<?xml version="1.0" encoding="UTF-8"?>
<svg width="324px" height="287px" viewBox="0 0 324 287" version="1.1" xmlns="http://www.w3.org/2000/svg" xmlns:xlink="http://www.w3.org/1999/xlink">
    <title>DF0B62D8-42F5-4D1B-93B0-6B92827388A3</title>
    <g id="Tikui" stroke="none" stroke-width="1" fill="none" fill-rule="evenodd">
        <g id="Home" transform="translate(-908.000000, -1757.000000)">
            <g id="SECTION-3" transform="translate(67.000000, 1757.404220)">
                <g id="6_BIRD" transform="translate(841.000000, 0.000000)">
                    <line x1="252" y1="88.8918919" x2="242" y2="134.304054" id="FLAG-HANDLE" stroke="#FFDD82" stroke-width="2"></line>
                    <g id="Bird" transform="translate(72.000000, 0.000000)">
                        <path d="M60.0423133,1.38587165 C64.3037189,7.35250558 71.3038507,18.7992156 70.535959,35.0788233 C70.0694583,45.0121991 65.729429,56.7181353 58.9599268,70.1538494 C58.9599268,70.1538494 45.3265739,88.4125885 55.2410249,118.622313 L5.98326501,107.31838 C5.98326501,107.31838 -6.53363104,141.328908 5.7054612,158.5634 L59.4159444,161.651837 C59.4159444,161.651837 53.2466032,180.281189 66.3531772,199.54848 C66.3531772,199.54848 88.6010688,236.202153 67.6792972,260.732445 C67.6792972,260.732445 138.985769,230.432851 136.794788,159.216529 C136.794788,159.216529 164.970908,142.723768 167.295549,122.406155 L177.516633,117.166444 C177.516633,117.166444 169.198243,115.153391 167.583836,114.75721 C165.966808,114.36103 161.943895,98.1059775 130.921596,106.833344 C130.921596,106.833344 132.735183,59.2435655 113.417335,32.1956913 C113.417335,32.1956913 95.7532064,1.16930255 60.0423133,1.38587165 Z" id="Path" fill="#FFFFFF"></path>
                        <g id="Group">
                            <g id="BIRD" fill="#9FB9FA">
                                <path d="M85.6343338,246.842072 C86.1506296,246.733217 86.5018155,246.272483 86.4546413,245.766182 C86.4100878,245.259881 85.982899,244.862434 85.4561201,244.839651 L74.6768082,244.391574 C74.1840996,244.371322 76.1968668,245.505437 76.0710688,245.966171 C75.9478917,246.426905 73.7175988,246.092746 74.1578917,246.307924 C76.2597657,247.335716 79.160981,247.490137 81.5432796,247.353436 C83.841713,247.224329 85.6343338,246.842072 85.6343338,246.842072 Z M91.4079356,232.850439 C91.9583016,232.794746 92.3697657,232.339075 92.3487994,231.804927 C92.3278331,231.270779 91.8822987,230.845487 91.3293119,230.830297 L76.6266764,230.44804 C76.1130015,230.435383 75.6674671,230.782199 75.567877,231.268248 C75.4709078,231.754297 75.7539531,232.237815 76.2335578,232.409957 C78.3432943,233.164346 82.1801318,233.293453 85.4928111,233.20485 C88.7059004,233.118779 91.4079356,232.850439 91.4079356,232.850439 Z M93.4495315,226.764699 C93.9605857,226.633061 94.2908053,226.152075 94.2174231,225.643242 C94.1414202,225.136941 93.6854026,224.762278 93.1533821,224.774935 L77.4102928,225.126815 C76.9044802,225.136941 76.4799122,225.496415 76.3986676,225.979932 C76.3200439,226.46345 76.6083309,226.931778 77.0879356,227.093795 C80.324612,228.195 84.4418741,228.124118 87.7493119,227.757049 C90.9964714,227.397576 93.4495315,226.764699 93.4495315,226.764699 Z M91.0279209,221.400438 C91.578287,221.321962 91.9714056,220.843507 91.9216105,220.306828 C91.8718155,219.77268 91.3974524,219.367639 90.8418448,219.38536 L76.1156223,219.861283 C75.6124305,219.876472 75.193104,220.233414 75.1144802,220.711869 C75.0358565,221.192855 75.3189019,221.658652 75.7906442,221.8232 C77.4889165,222.420635 81.3598243,222.342158 84.8087848,222.068756 C88.1214641,221.805479 91.0279209,221.400438 91.0279209,221.400438 Z M82.6833236,201.715449 C83.2389312,201.634441 83.629429,201.143328 83.5691508,200.604118 C83.5088726,200.062375 83.0187848,199.664929 82.4553148,199.702902 L69.1233529,200.576271 C68.5913324,200.611712 68.1720059,201.024348 68.145798,201.535712 C68.11959,202.047076 68.4943631,202.497684 69.0159004,202.586287 C70.7665886,202.874878 74.2207906,202.664763 77.2346999,202.366046 C80.1726061,202.074923 82.6833236,201.715449 82.6833236,201.715449 Z M77.2556662,182.706371 C77.8112738,182.6203 78.19653,182.126657 78.1310102,181.587446 C78.0654905,181.045704 77.5701611,180.65332 77.0093119,180.696356 L59.007101,182.035522 C58.5248755,182.070963 58.1291362,182.422843 58.0531332,182.886108 C57.9771303,183.349374 58.2392094,183.802513 58.6873646,183.979719 C59.1538653,184.16705 59.9610688,184.288563 61.0015227,184.316409 C63.0719473,184.367039 66.2090337,184.103763 69.1862518,183.772135 C73.3847584,183.303807 77.2556662,182.706371 77.2556662,182.706371 Z M20.0621523,151.508093 C20.6308638,151.523282 21.1052269,151.097989 21.1366764,150.551184 C21.1655051,150.004379 20.740937,149.533519 20.1748463,149.487952 L2.06256223,148.034867 C1.52005857,147.991832 2.17263543,148.693059 2.08352855,149.214549 C1.99442167,149.733508 1.18983895,149.895524 1.71923865,150.024631 C4.08581259,150.601814 8.69578331,150.979009 12.7160761,151.206844 C16.6813324,151.429617 20.0621523,151.508093 20.0621523,151.508093 Z M22.3029283,146.422298 C22.869019,146.465334 23.36959,146.060293 23.4272474,145.513487 C23.4849048,144.966682 23.0786823,144.47557 22.5125915,144.407219 L1.63799414,141.88584 C1.10335286,141.822552 1.23701318,142.30607 1.1190776,142.812371 C0.99852123,143.321203 0.66568082,143.68574 1.17673499,143.850288 C3.14494876,144.488228 8.45991215,145.143888 13.2847877,145.627405 C18.0362811,146.103328 22.3029283,146.422298 22.3029283,146.422298 Z M27.5183016,136.665875 C28.0870132,136.739288 28.6137921,136.357031 28.6976574,135.807694 C28.7815227,135.258357 28.3884041,134.745981 27.8196925,134.660669 L1.76379209,130.749239 C1.23701318,130.670509 1.67992679,130.934545 1.5384041,131.428948 C1.39426061,131.923352 0.712855051,132.491928 1.20556369,132.686601 C2.13594436,133.0562 8.76654466,134.076397 15.1665154,134.979639 C21.4564129,135.86845 27.5183016,136.665875 27.5183016,136.665875 Z M73.6232504,102.433334 C74.1867204,102.48447 74.6899122,102.094871 74.7606735,101.553129 C74.8314348,101.011134 74.4461786,100.512174 73.8879502,100.425343 L51.4225329,96.9323714 C50.8878917,96.849338 51.1159004,97.2386836 50.9796193,97.7439722 C50.8433382,98.2492608 50.3899414,98.705185 50.895754,98.8836561 C53.7340703,99.8805631 59.4421523,100.778995 64.4426208,101.417693 C69.3828111,102.048545 73.6232504,102.433334 73.6232504,102.433334 Z M59.6858858,70.6343292 C59.4473939,70.5561057 59.3058712,70.489274 59.2665593,70.4626931 C58.8681991,70.1839743 58.7240556,69.6761543 58.9206149,69.2407353 C59.1145534,68.8055694 59.5967789,68.5592539 60.0790044,68.6486161 L79.8895608,72.4099274 C80.4556515,72.5147318 80.8278038,73.0420444 80.7229722,73.5898623 C80.6155198,74.1376802 80.0730161,74.4999387 79.5043045,74.4007036 C79.5043045,74.4007036 74.404246,73.5088541 69.2543924,72.5815635 C65.1187848,71.8373008 61.9371449,71.1580978 60.3332211,70.8077374 C60.0816252,70.75331 59.8745827,70.6955917 59.7120937,70.6424301 L59.6858858,70.6376202 L59.6858858,70.6343292 Z M83.2808638,21.4990665 C83.8469546,21.5337482 84.3396633,21.1246568 84.3894583,20.5773453 C84.4392533,20.0300337 84.0277892,19.5442377 83.4643192,19.482469 C83.4643192,19.482469 80.2643338,19.1326149 76.8153734,18.845289 C73.2327526,18.5465713 70.2581552,18.0926723 69.2203221,18.3516453 C68.7197511,18.4764486 68.3895315,18.9326259 68.4393265,19.4282948 C68.4865007,19.9237105 68.9005857,20.311284 69.4168814,20.3426747 L83.2808638,21.4990665 Z M83.5717716,17.7114275 C84.143104,17.7531973 84.643675,17.3433465 84.6960908,16.7912251 C84.7458858,16.2393568 84.3291801,15.7505231 83.7578477,15.6943236 C83.7578477,15.6943236 80.9195315,15.4145922 77.520366,15.130051 C74.1002343,14.8437377 70.1166325,14.553374 67.857511,14.5328688 C67.294041,14.5278057 67.6924012,14.6966572 67.6661933,15.2424498 C67.6426061,15.7882425 68.0724158,16.2537864 68.6358858,16.29505 L83.5717716,17.7114275 Z" id="Shape"></path>
                                <g id="Group" transform="translate(127.708254, 105.637428)">
                                    <path d="M1.11645681,1.0169059 C1.11645681,1.0169059 0.786237189,6.07510773 0.238491947,8.51041635 C0.115314788,9.05646216 0.474363104,9.59617921 1.04045388,9.71465368 C1.60654466,9.83312815 2.16477306,9.48580555 2.28795022,8.93975974 C2.85666179,6.40673499 3.21046852,1.146519 3.21046852,1.146519 C3.24715959,0.58882826 2.80686676,0.107082697 2.23029283,0.0711353142 C1.65371889,0.0354410818 1.15314788,0.45896201 1.11645681,1.0169059 Z" id="Path"></path>
                                </g>
                                <path d="M48.6104246,117.752488 C48.6104246,117.752488 54.2031918,128.675683 57.004817,129.023005 L55.1492972,118.413464 L48.6104246,117.752488 Z" id="Path"></path>
                                <path d="M69.8702782,258.178155 C84.7170571,252.03419 137.449985,225.506541 135.90896,159.20134 C135.901098,158.816551 136.118624,158.459608 136.47243,158.282403 C136.47243,158.282403 163.005315,144.951493 166.231508,122.319831 C166.283924,121.96061 166.527657,121.655311 166.876223,121.519116 C166.876223,121.519116 172.652445,119.26 176.505007,117.752994 C176.51549,117.748944 176.523353,117.739324 176.520732,117.729198 C176.520732,117.718819 176.51287,117.710465 176.502387,117.708693 C172.235739,116.925445 165.678521,115.721208 165.678521,115.721208 C165.256574,115.643237 164.923734,115.323255 164.84511,114.914164 C164.84511,114.914164 164.027423,110.928814 159.50918,108.06239 C154.720996,105.024077 145.972796,103.316576 130.1406,108.165422 C129.80776,108.267189 129.446091,108.203142 129.173529,107.994293 C128.900966,107.785696 128.751581,107.459638 128.777789,107.124467 C128.777789,107.124467 130.706691,82.3015334 123.169297,56.7133254 C115.684319,31.3068796 98.8352562,5.09718702 61.2269107,2.05912685 C60.6503367,2.01254715 60.2205271,1.52270077 60.2677013,0.96576948 C60.3174963,0.408838194 60.8259297,-0.00556931286 61.4025037,0.0410103947 C100.080132,3.16539491 117.487423,30.0310007 125.184685,56.1589257 C131.736662,78.3949136 131.23347,100.061566 130.955666,105.804034 C146.837657,101.211882 155.727379,103.240631 160.659707,106.369572 C164.774348,108.980314 166.255095,112.406454 166.716354,113.850425 L176.892884,115.719183 C177.818023,115.888793 178.515154,116.625968 178.606881,117.530222 C178.70123,118.434223 178.163968,119.289112 177.293865,119.630106 L168.220688,123.178771 C164.821523,144.361652 141.952504,157.631806 138.016076,159.770928 C139.452269,237.953955 66.6938799,261.562778 66.6938799,261.562778 C66.2378624,261.712137 65.7372914,261.539995 65.4778331,261.147611 C65.2183748,260.755228 65.2681698,260.243864 65.6010102,259.904642 C74.4461786,250.915265 76.3252855,239.688036 75.4315959,229.460753 C74.1212006,214.489427 66.8747145,201.624315 66.3662811,200.738287 C53.4903367,183.77973 56.991713,167.049008 58.3492826,162.365722 L5.50628111,159.467148 C5.1472328,159.449427 4.82487555,159.25197 4.64928258,158.948189 C0.568711567,151.834658 -0.285666179,142.040261 0.204421669,132.842288 C0.930380673,119.214939 4.5575549,106.922706 4.5575549,106.922706 C4.71218155,106.399191 5.26778917,106.087309 5.81553441,106.216669 L54.7587994,117.777297 C55.3222694,117.909948 55.665593,118.458525 55.5293119,119.00128 C55.3930307,119.544288 54.8243192,119.877181 54.26347,119.74453 L6.31086384,108.418826 C5.47483163,111.504479 2.89335286,121.768216 2.29843338,132.946333 C1.83979502,141.551681 2.53954612,150.710669 6.21127379,157.479916 L59.809063,160.416462 C60.1392826,160.434183 60.4432943,160.603794 60.6267496,160.872133 C60.8075842,161.143005 60.846896,161.477163 60.7315813,161.778413 C60.7315813,161.778413 53.5899268,180.536871 68.0986237,199.594047 C68.1222108,199.626956 68.145798,199.659866 68.1667643,199.695307 C68.1667643,199.695307 76.1234846,213.329998 77.520366,229.291142 C78.3616398,238.893144 76.8284773,249.322948 69.8702782,258.178155 Z" id="Path"></path>
                                <path d="M62.08653,1.9072365 C62.4219912,2.7069392 63.5541728,5.40046142 63.6249341,5.52931507 C65.1345095,8.30865533 66.6073939,11.0960964 67.8706149,13.9901139 C71.6864861,22.7245685 73.0492972,32.2420179 71.0522548,41.5478334 C69.2150805,50.1121708 65.490937,58.1332471 61.8296925,66.1786258 C58.231347,74.0840123 54.6906589,82.013448 53.1548755,90.5362687 C50.746369,103.891987 55.3039239,115.216932 58.1448609,127.83902 C58.2680381,128.385066 57.9089898,128.924783 57.342899,129.04351 C56.7768082,129.162238 56.2185798,128.815422 56.0954026,128.269123 C53.1968082,115.387555 48.6313909,103.81908 51.0896925,90.1884398 C52.6543045,81.5043622 56.2447877,73.4187325 59.9112738,65.3634809 C63.5148609,57.4482216 67.1918302,49.5625809 68.9975549,41.13697 C70.9081113,32.2351828 69.5898536,23.1326473 65.9390922,14.7774122 C64.6994583,11.9357969 63.2527818,9.19974539 61.7694143,6.47103524 C61.6750659,6.29712079 60.134041,3.11375219 59.9322401,2.05077289 C59.7723719,1.20955349 60.2572182,0.771856132 60.5402635,0.640470979 C60.7813763,0.528328446 61.1299414,0.449342287 61.5676135,0.661988778 C62.0472182,0.893368413 62.2647438,1.43207286 62.08653,1.9072365 Z" id="Shape"></path>
                                <path d="M137.109283,158.074819 C130.711933,160.725306 115.498243,165.947803 101.03672,164.9352 C100.753675,164.909885 100.488975,165.066839 100.384143,165.322521 C100.281933,165.575671 100.363177,165.864263 100.588565,166.033874 C108.865022,169.696963 135.670469,178.050932 136.186764,175.696632 L137.109283,158.074819 Z" id="Path"></path>
                            </g>
                            <g transform="translate(139.836504, 127.870704)" fill="#FF7866" id="Oval">
                                <ellipse cx="3.05189779" cy="2.82642374" rx="2.86189064" ry="2.76439209"></ellipse>
                            </g>
                            <g transform="translate(150.488569, 122.060085) rotate(178.512377) translate(-150.488569, -122.060085) translate(143.988569, 117.712112)" fill="#000000" id="Path">
                                <path d="M2.2284072,7.5011053 C2.2284072,5.68829388 2.88448647,4.07040843 3.93421332,3.07400768 C4.54730809,2.49277391 5.29388106,2.13228747 6.11058664,2.13228747 C6.92729222,2.13228747 7.67612754,2.49277391 8.28695997,3.07400768 C9.33894915,4.07040843 9.99502843,5.68829388 9.99502843,7.5011053 C9.99502843,8.05980866 10.4633333,8.51370768 11.0424929,8.51370768 C11.6216526,8.51370768 12.0899574,8.05980866 12.0899574,7.5011053 C12.0899574,3.35120758 9.31858807,0.107082702 6.11058664,0.107082702 C2.90484756,0.107082702 0.131215855,3.35120758 0.131215855,7.5011053 C0.131215855,8.05980866 0.601783061,8.51370768 1.1809427,8.51370768 C1.75783999,8.51370768 2.2284072,8.05980866 2.2284072,7.5011053 Z"></path>
                            </g>
                        </g>
                    </g>
                    <g id="FLAG" transform="translate(26.000000, 15.459459)" fill="#FFDD82">
                        <path d="M219.184437,79.8941707 C203.617905,71.8396801 138.50956,43.968638 2.55037895,56.6607542 C1.73685298,56.7366564 0.941977435,56.3953494 0.457066575,55.7618189 C-0.0278442856,55.1285414 -0.131603652,54.296147 0.18414004,53.5702688 C0.18414004,53.5702688 7.16675136,37.2849415 29.4101326,27.9593417 C23.9967832,25.1251528 13.9941176,20.6383196 4.87012316,20.6049226 C3.78235725,20.6008745 2.84300663,19.8701891 2.61027043,18.8465212 C2.37753423,17.8231063 2.91366807,16.7809688 3.90030144,16.3394709 C3.90030144,16.3394709 105.414262,-29.2140054 235.943545,31.9242207 C236.907588,32.3750799 237.425071,33.4017839 237.199165,34.4095124 L225.922229,84.5434347 C224.687624,83.3120477 223.305917,82.2701632 221.624752,81.2459892 L221.630006,81.2156283 C221.330549,81.0445953 220.975928,80.8477556 220.566144,80.6261211 C220.127465,80.3774148 219.670399,80.1276965 219.189691,79.8744361 L219.184437,79.8941707 Z" id="Path"></path>
                    </g>
                    <g id="HAND-2" transform="translate(209.000000, 170.054054)">
                        <path d="M0.147012892,115.936751 C0.147012892,115.936751 -0.0105072776,70.6625599 12.9397123,52.3934925 C12.9397123,52.3934925 27.4108604,32.5127471 31.4246404,26.2335483 C31.4246404,26.2335483 33.8964775,20.4543504 36.5416846,17.4924163 C37.1721213,16.7969836 38.0704935,16.3807393 39.0266558,16.3426681 C39.9854448,16.304597 40.9153389,16.6497753 41.6035656,17.2944464 C44.3722332,19.8858215 48.2494187,26.6294881 45.0052967,43.3579437 L75.1638102,29.6574122 C75.1638102,29.6574122 85.0117561,-0.862945669 93.4569804,0.0507615099 C93.4569804,0.0507615099 96.8823529,-0.167512983 96.0627853,14.657386 C96.0627853,14.657386 100.720136,7.76143487 104.899406,10.4492568 C104.899406,10.4492568 109.525235,14.5203299 105.377487,33.5457438 C105.377487,33.5457438 113.686117,28.1345669 114.784127,34.459451 C115.059943,36.0406721 114.616011,37.6574261 113.570537,38.9010831 C109.491086,43.637132 95.9498321,58.8579708 79.5400913,71.8046939 L78.1583843,115.535735 L0.147012892,115.936751 Z" id="Path" fill="#310CA3"></path>
                        <path d="M41.0650676,59.1650779 C42.0212299,55.4239546 42.7436052,51.571156 42.6542933,51.0280079 C42.5807424,50.6066873 42.8749462,50.2082095 43.3083714,50.1371434 C43.7444234,50.0660773 44.156834,50.3503417 44.230385,50.7716622 C44.3302041,51.3173485 43.8127207,55.0051722 42.9747653,58.7894427 L42.9695117,58.8097473 C43.938808,58.6777674 44.913358,58.6219298 45.8905348,58.6320821 C48.8535871,58.6549247 51.8350271,59.2869055 54.6903798,60.2640646 C55.3733529,60.5051818 55.7227198,61.2361475 55.473172,61.8935091 C55.2236241,62.5508706 54.469727,62.8884347 53.7893808,62.6498556 C51.2177246,61.7082296 48.5278615,61.0711726 45.8432521,60.9950303 C44.6874516,60.9620354 43.5342778,61.0305634 42.3916114,61.2234571 C41.8347257,63.3808213 41.204289,65.3427537 40.5896133,66.4950399 C39.867238,67.8554484 38.4487555,69.4417456 36.9383343,69.890985 C35.7405047,70.2463155 34.4481096,70.0305791 33.2712945,68.6320995 C32.099733,67.2437722 32.1864181,65.7793027 32.8956593,64.4341226 C33.7546292,62.8122924 35.6853415,61.3808178 37.059168,60.6650805 C38.3620705,59.9848763 39.7017483,59.4950277 41.0650676,59.1650779 Z M40.3663336,61.7056915 C39.6071828,61.9391944 38.8559125,62.2361493 38.1151494,62.6041702 C37.0434071,63.134628 35.4988373,64.1676247 34.8106106,65.4036675 C34.4638705,66.0280341 34.3719318,66.7133144 34.9051761,67.3757521 C35.1967531,67.7361589 35.4804496,67.9595095 35.7904143,68.0305756 C36.1397812,68.111794 36.4865214,68.0051949 36.8148738,67.8249915 C37.6817242,67.3529095 38.4329946,66.4188977 38.8769271,65.621942 C39.3760227,64.7336155 39.8856257,63.3148313 40.3663336,61.7056915 Z" id="Shape" fill="#FFF7F3"></path>
                        <g id="Group" transform="translate(53.766443, 29.634894)" fill="#FFF7F3">
                            <path d="M17.6576003,4.07957405 L18.3983865,1.4596191 L21.4221649,0.0392502614 L20.0697688,5.18348765 C19.9906813,5.4655989 19.8114163,5.71336618 19.5662451,5.88263293 L2.13272599,17.9275569 C1.54220606,18.3347784 0.722332412,18.2023087 0.300532463,17.6331799 C-0.121267485,17.0640512 0.0158174981,16.2692334 0.603701176,15.8620119 L17.6576003,4.07957405 Z" id="Path"></path>
                        </g>
                        <path d="M82.1196279,39.2031141 C86.6929205,22.3274501 92.4220136,14.4391115 95.8132374,11.0127096 C95.9235639,10.9010343 96.1731117,10.6726075 96.1731117,10.6726075 L96.0417707,14.6421575 C96.0417707,14.6421575 95.8447593,14.8629701 95.7449401,14.9898739 C92.6190251,18.9568859 88.2926535,26.4162898 84.6466282,39.8985468 C84.6518818,40.1447401 84.5835845,40.3934715 84.4469899,40.6041318 C84.2788735,41.0229143 83.8979847,41.317331 83.4593058,41.3960114 L62.9832486,55.1929898 C62.3895875,55.5940057 61.5700198,55.4544115 61.1549823,54.8782684 C60.7399449,54.3046633 60.8844199,53.5127838 61.4807079,53.1117678 L82.1196279,39.2031141 Z" id="Path" fill="#FFF7F3"></path>
                        <path d="M106.01055,30.2208649 C106.01055,30.2208649 67.5460339,60.1523893 67.530273,60.2640646 C67.4383343,60.9594973 66.9366118,61.5305643 67.4173198,62.0559459 C67.8980277,62.5813275 68.7281027,62.629551 69.2718543,62.1650831 C69.3086297,62.0153367 105.414262,33.5609723 105.414262,33.5609723" id="Path" fill="#FFF7F3"></path>
                        <path d="M79.5637327,71.8782981 C79.5637327,71.8782981 69.1326328,81.3021724 63.138231,86.7158874 C62.4500043,87.3377159 62.2162174,88.2996465 62.5498234,89.1524399 C62.8808027,90.0052333 63.7108776,90.5813764 64.651279,90.6118333 C70.5432349,90.8072651 78.9490569,91.0839154 78.9490569,91.0839154 L79.5637327,71.8782981 Z" id="Path" fill="#FFF7F3"></path>
                    </g>
                    <g id="HAND-1" transform="translate(57.500000, 228.027027) scale(-1, 1) translate(-57.500000, -228.027027) translate(0.000000, 170.054054)">
                        <path d="M0.147012892,115.936751 C0.147012892,115.936751 -0.0105072776,70.6625599 12.9397123,52.3934925 C12.9397123,52.3934925 27.4108604,32.5127471 31.4246404,26.2335483 C31.4246404,26.2335483 33.8964775,20.4543504 36.5416846,17.4924163 C37.1721213,16.7969836 38.0704935,16.3807393 39.0266558,16.3426681 C39.9854448,16.304597 40.9153389,16.6497753 41.6035656,17.2944464 C44.3722332,19.8858215 48.2494187,26.6294881 45.0052967,43.3579437 L75.1638102,29.6574122 C75.1638102,29.6574122 85.0117561,-0.862945669 93.4569804,0.0507615099 C93.4569804,0.0507615099 96.8823529,-0.167512983 96.0627853,14.657386 C96.0627853,14.657386 100.720136,7.76143487 104.899406,10.4492568 C104.899406,10.4492568 109.525235,14.5203299 105.377487,33.5457438 C105.377487,33.5457438 113.686117,28.1345669 114.784127,34.459451 C115.059943,36.0406721 114.616011,37.6574261 113.570537,38.9010831 C109.491086,43.637132 95.9498321,58.8579708 79.5400913,71.8046939 L78.1583843,115.535735 L0.147012892,115.936751 Z" id="Path" fill="#310CA3"></path>
                        <path d="M41.0650676,59.1650779 C42.0212299,55.4239546 42.7436052,51.571156 42.6542933,51.0280079 C42.5807424,50.6066873 42.8749462,50.2082095 43.3083714,50.1371434 C43.7444234,50.0660773 44.156834,50.3503417 44.230385,50.7716622 C44.3302041,51.3173485 43.8127207,55.0051722 42.9747653,58.7894427 L42.9695117,58.8097473 C43.938808,58.6777674 44.913358,58.6219298 45.8905348,58.6320821 C48.8535871,58.6549247 51.8350271,59.2869055 54.6903798,60.2640646 C55.3733529,60.5051818 55.7227198,61.2361475 55.473172,61.8935091 C55.2236241,62.5508706 54.469727,62.8884347 53.7893808,62.6498556 C51.2177246,61.7082296 48.5278615,61.0711726 45.8432521,60.9950303 C44.6874516,60.9620354 43.5342778,61.0305634 42.3916114,61.2234571 C41.8347257,63.3808213 41.204289,65.3427537 40.5896133,66.4950399 C39.867238,67.8554484 38.4487555,69.4417456 36.9383343,69.890985 C35.7405047,70.2463155 34.4481096,70.0305791 33.2712945,68.6320995 C32.099733,67.2437722 32.1864181,65.7793027 32.8956593,64.4341226 C33.7546292,62.8122924 35.6853415,61.3808178 37.059168,60.6650805 C38.3620705,59.9848763 39.7017483,59.4950277 41.0650676,59.1650779 Z M40.3663336,61.7056915 C39.6071828,61.9391944 38.8559125,62.2361493 38.1151494,62.6041702 C37.0434071,63.134628 35.4988373,64.1676247 34.8106106,65.4036675 C34.4638705,66.0280341 34.3719318,66.7133144 34.9051761,67.3757521 C35.1967531,67.7361589 35.4804496,67.9595095 35.7904143,68.0305756 C36.1397812,68.111794 36.4865214,68.0051949 36.8148738,67.8249915 C37.6817242,67.3529095 38.4329946,66.4188977 38.8769271,65.621942 C39.3760227,64.7336155 39.8856257,63.3148313 40.3663336,61.7056915 Z" id="Shape" fill="#FFF7F3"></path>
                        <g id="Group" transform="translate(53.766443, 29.634894)" fill="#FFF7F3">
                            <path d="M17.6576003,4.07957405 L18.3983865,1.4596191 L21.4221649,0.0392502614 L20.0697688,5.18348765 C19.9906813,5.4655989 19.8114163,5.71336618 19.5662451,5.88263293 L2.13272599,17.9275569 C1.54220606,18.3347784 0.722332412,18.2023087 0.300532463,17.6331799 C-0.121267485,17.0640512 0.0158174981,16.2692334 0.603701176,15.8620119 L17.6576003,4.07957405 Z" id="Path"></path>
                        </g>
                        <path d="M82.1196279,39.2031141 C86.6929205,22.3274501 92.4220136,14.4391115 95.8132374,11.0127096 C95.9235639,10.9010343 96.1731117,10.6726075 96.1731117,10.6726075 L96.0417707,14.6421575 C96.0417707,14.6421575 95.8447593,14.8629701 95.7449401,14.9898739 C92.6190251,18.9568859 88.2926535,26.4162898 84.6466282,39.8985468 C84.6518818,40.1447401 84.5835845,40.3934715 84.4469899,40.6041318 C84.2788735,41.0229143 83.8979847,41.317331 83.4593058,41.3960114 L62.9832486,55.1929898 C62.3895875,55.5940057 61.5700198,55.4544115 61.1549823,54.8782684 C60.7399449,54.3046633 60.8844199,53.5127838 61.4807079,53.1117678 L82.1196279,39.2031141 Z" id="Path" fill="#FFF7F3"></path>
                        <path d="M106.01055,30.2208649 C106.01055,30.2208649 67.5460339,60.1523893 67.530273,60.2640646 C67.4383343,60.9594973 66.9366118,61.5305643 67.4173198,62.0559459 C67.8980277,62.5813275 68.7281027,62.629551 69.2718543,62.1650831 C69.3086297,62.0153367 105.414262,33.5609723 105.414262,33.5609723" id="Path" fill="#FFF7F3"></path>
                        <path d="M79.5637327,71.8782981 C79.5637327,71.8782981 69.1326328,81.3021724 63.138231,86.7158874 C62.4500043,87.3377159 62.2162174,88.2996465 62.5498234,89.1524399 C62.8808027,90.0052333 63.7108776,90.5813764 64.651279,90.6118333 C70.5432349,90.8072651 78.9490569,91.0839154 78.9490569,91.0839154 L79.5637327,71.8782981 Z" id="Path" fill="#FFF7F3"></path>
                    </g>
                    <path d="M88.0514,53.4305973 C88.6584,53.3127189 89.2444,53.1416986 89.8094,52.9165703 C90.3754,52.6914419 90.8864,52.4353946 91.3444,52.1445635 C91.8014,51.8556649 92.1584,51.5503405 92.4134,51.230523 C92.6204,50.9174689 92.6434,50.6334014 92.4834,50.3783203 C92.4194,50.2807324 92.3154,50.2101986 92.1714,50.1686514 C92.0274,50.1271041 91.8844,50.1386986 91.7424,50.2044014 C91.3214,50.4218 90.8724,50.6295365 90.3984,50.8266446 C89.9244,51.0237527 89.4394,51.1909081 88.9454,51.3300432 C88.4494,51.4682122 87.9564,51.5706311 87.4624,51.6363338 C86.9684,51.7010703 86.5124,51.6972054 86.0954,51.6208743 C85.4194,51.5068608 84.8334,51.230523 84.3394,50.792827 C83.8444,50.3541649 83.5344,49.7792662 83.4114,49.0642662 C83.2854,48.3289757 83.3274,47.5888541 83.5384,46.8439014 C83.7494,46.0999149 84.1174,45.4940973 84.6404,45.0303135 C85.1634,44.5665297 85.7154,44.2728 86.2934,44.1491243 C86.8704,44.0254486 87.4334,43.9723068 87.9794,43.9877662 C88.2914,44.000327 88.4934,43.87955 88.5874,43.6264014 C88.6484,43.508523 88.6604,43.3713203 88.6254,43.2147932 C88.5914,43.0592324 88.5144,42.936523 88.3984,42.8476311 C87.9014,42.4553473 87.2074,42.2968878 86.3184,42.3761176 C85.4294,42.4553473 84.5784,42.7539081 83.7734,43.2718 C82.6824,43.9713405 81.9024,44.8931108 81.4354,46.0264824 C80.9684,47.1608203 80.8794,48.3531311 81.1564,49.6024486 C81.2764,50.122273 81.4674,50.6111784 81.7294,51.0691649 C81.9914,51.5281176 82.3324,51.9387595 82.7534,52.3010905 C83.1744,52.6643878 83.6764,52.9581176 84.2584,53.1832459 C84.8404,53.4083743 85.5224,53.5349486 86.3064,53.5649014 C86.8644,53.5929216 87.4444,53.5484757 88.0514,53.4305973 M100.6414,52.6788811 C101.4654,52.5754959 102.2004,52.3465027 102.8534,51.9919014 C103.5054,51.6373 104.0774,51.2083 104.5724,50.7049014 C105.0674,50.2005365 105.4994,49.6410973 105.8664,49.0246514 C106.2354,48.4091716 106.5314,47.7907932 106.7564,47.1695162 C106.9114,46.618773 106.9474,46.038077 106.8644,45.4254959 C106.7804,44.8129149 106.5784,44.2283541 106.2594,43.6718135 C105.9394,43.115273 105.5034,42.6292662 104.9494,42.2166919 C104.3964,41.8031514 103.7294,41.52005 102.9504,41.3712527 C102.4554,41.2553068 102.0534,41.3441986 101.7474,41.6369622 C101.2734,41.4775365 100.7634,41.3722189 100.2204,41.3200432 C99.6764,41.2678676 99.2274,41.2649689 98.8724,41.3103811 C98.2384,41.390577 97.6874,41.6021784 97.2234,41.9432527 C96.7594,42.284327 96.3634,42.6988338 96.0344,43.1848405 C95.7054,43.6718135 95.4554,44.2119284 95.2844,44.8071176 C95.1134,45.4013405 95.0154,46.002327 94.9884,46.6081446 C94.9394,47.4332932 95.0214,48.2391176 95.2344,49.0265838 C95.4464,49.81405 95.7894,50.4952324 96.2604,51.0749622 C96.7304,51.6527595 97.3314,52.0952865 98.0604,52.4044757 C98.7894,52.7136649 99.6484,52.8044892 100.6414,52.6788811 M101.0494,50.2942595 C100.5944,50.4469216 100.1924,50.5029622 99.8404,50.4623811 C99.2614,50.38605 98.8114,50.1928068 98.4884,49.8816851 C98.1664,49.5695973 97.9294,49.2034014 97.7804,48.7830973 C97.6324,48.3627932 97.5444,47.9289622 97.5174,47.4816041 C97.4914,47.0332797 97.4974,46.645827 97.5364,46.3182797 C97.5644,46.1211716 97.6354,45.8535297 97.7494,45.5163203 C97.8644,45.1781446 98.0104,44.8419014 98.1914,44.5066243 C98.3704,44.1713473 98.5934,43.8689216 98.8584,43.5993473 C99.1224,43.3288068 99.4064,43.1751784 99.7094,43.1374959 C99.9864,43.1027122 100.3194,43.1848405 100.7074,43.3848473 C101.0954,43.5848541 101.4334,43.7433135 101.7234,43.8592595 C101.8284,43.8892122 101.9674,43.8950095 102.1434,43.8747189 C102.3184,43.8544284 102.4894,43.7809959 102.6554,43.6553878 C103.4094,43.8689216 103.9324,44.2998541 104.2274,44.9433541 C104.5214,45.5858878 104.5694,46.2284216 104.3754,46.8709554 C104.2014,47.4468203 103.9304,47.968577 103.5644,48.4381581 C103.1974,48.9087054 102.8014,49.2961581 102.3734,49.6043811 C101.9454,49.9116378 101.5044,50.1415973 101.0494,50.2942595 M112.8824,50.6672189 C113.1544,50.7319554 113.4154,50.7280905 113.6664,50.6556243 C113.9184,50.5841243 114.1254,50.4672122 114.2874,50.3068203 C114.5054,49.8217797 114.7394,49.2874622 114.9934,48.7048338 C115.2464,48.1222054 115.5094,47.539577 115.7794,46.9569486 C116.0494,46.3743203 116.3294,45.8013541 116.6174,45.2399824 C116.9054,44.6786108 117.1934,44.1665162 117.4764,43.7027324 C117.8064,43.1288 118.1974,42.8196108 118.6464,42.7741986 C119.0204,42.7123608 119.3634,42.9191311 119.6734,43.3935432 C119.9844,43.8689216 120.2644,44.4312595 120.5134,45.0795905 C120.7634,45.7288878 120.9874,46.368523 121.1844,46.9994622 C121.3824,47.6294351 121.5454,48.0700297 121.6724,48.3202797 C121.6994,48.4255973 121.7994,48.5280162 121.9714,48.6265703 C122.1444,48.7260905 122.3994,48.6951716 122.7374,48.5328473 C123.4624,48.2284892 123.7504,47.7936919 123.5954,47.2236243 C123.4414,46.5897865 123.2474,45.8622257 123.0144,45.0399757 C122.7824,44.2186919 122.4684,43.437023 122.0714,42.6959351 C121.6744,41.9558135 121.1894,41.3422662 120.6144,40.8562595 C120.0404,40.3702527 119.3354,40.148023 118.5034,40.1915027 C117.9484,40.2214554 117.4434,40.4204959 116.9874,40.7876581 C116.5324,41.1557865 116.1074,41.613773 115.7144,42.1616176 C115.3204,42.7094622 114.9634,43.3036851 114.6414,43.9442865 C114.3204,44.5848878 114.0264,45.1926378 113.7574,45.7665703 C113.6884,45.3878135 113.6064,44.9878 113.5104,44.5684622 C113.4154,44.1481581 113.3074,43.7346176 113.1874,43.3268743 C113.0664,42.9191311 112.9524,42.5220162 112.8454,42.1355297 C112.7384,41.748077 112.6384,41.3983068 112.5484,41.0852527 C112.3074,40.2919892 111.7394,39.8639554 110.8454,39.8088811 C110.2084,39.7963203 109.8404,39.9402865 109.7434,40.2369149 C109.6464,40.5335432 109.7014,40.9190635 109.9064,41.3934757 C110.3694,42.7857932 110.7584,44.152023 111.0754,45.4940973 C111.3934,46.8342392 111.7114,48.3251108 112.0334,49.9647797 C112.0424,50.113577 112.1244,50.256577 112.2804,50.3937797 C112.4344,50.5309824 112.6354,50.6218068 112.8824,50.6672189 M127.7794,52.859694 C128.3754,52.8479689 129.1034,52.7986919 129.9614,52.7155973 C130.8204,52.6325027 131.6794,52.4895027 132.5424,52.2875635 C133.4044,52.0856243 134.1984,51.8083203 134.9264,51.4537189 C135.6544,51.0981514 136.1604,50.6382324 136.4464,50.0681649 C136.8094,49.3290095 136.8914,48.6652189 136.6844,48.075827 C136.4764,47.4883676 136.0664,46.9443878 135.4494,46.4467865 C134.8334,45.9511176 134.0664,45.4651108 133.1454,44.9955297 C132.2244,44.5249824 131.3354,44.0698946 130.4774,43.6293 C129.9634,43.3355703 129.5724,43.0418405 129.3024,42.7471446 C129.0344,42.4534149 128.9384,42.1461581 129.0174,41.8253743 C129.0444,41.6543541 129.1974,41.4553135 129.4754,41.2292189 C129.7534,41.0021581 130.0954,40.7963541 130.4994,40.6118068 C130.9044,40.4282257 131.3454,40.2929554 131.8234,40.2059959 C132.3014,40.1200027 132.7534,40.1306311 133.1754,40.2388473 C133.3734,40.3026176 133.4934,40.4417527 133.5364,40.6543203 C133.5794,40.8678541 133.6224,41.09105 133.6644,41.3258405 C133.6834,41.5171514 133.7964,41.6717459 134.0044,41.7905905 C134.2114,41.9084689 134.4894,41.9471176 134.8394,41.9075027 C135.1134,41.8678878 135.3114,41.7529081 135.4304,41.5625635 C135.5504,41.3731851 135.6154,41.1287324 135.6284,40.8301716 C135.5404,39.9354554 135.1554,39.254273 134.4684,38.7924216 C133.7814,38.3296041 132.8934,38.074523 131.8084,38.0349081 C131.1764,38.0368405 130.5404,38.1576176 129.9054,38.3982054 C129.2694,38.6387932 128.7024,38.9605432 128.2064,39.3624892 C127.7094,39.7644351 127.3094,40.2253203 127.0054,40.7422459 C126.7004,41.2591716 126.5614,41.7954216 126.5844,42.3480973 C126.6814,42.963577 126.9154,43.4737392 127.2844,43.8814824 C127.6534,44.2892257 128.0944,44.6380297 128.6094,44.9278946 C129.1234,45.2177595 129.7404,45.5404757 130.4574,45.8970095 C131.1744,46.252577 131.8394,46.6226378 132.4524,47.0052595 C133.0654,47.3888473 133.5534,47.7569757 133.9194,48.1106108 C134.2854,48.4632797 134.3794,48.7676378 134.2024,49.0217527 C134.0014,49.3183811 133.6564,49.5609014 133.1704,49.7512459 C132.6834,49.9415905 132.1394,50.0961851 131.5354,50.2150297 C130.9314,50.3348405 130.2994,50.4246986 129.6374,50.4855703 C128.9754,50.5464419 128.3554,50.5821919 127.7784,50.5928203 C127.3684,50.60055 126.9704,50.6836446 126.5864,50.8411378 C126.2024,50.9995973 126.0114,51.2711041 126.014365,51.6537257 C126.0154,51.7600095 126.0824,51.8807865 126.2154,52.0160568 C126.3484,52.1503608 126.5044,52.2798338 126.6844,52.4035095 C126.8644,52.5271851 127.0564,52.6344351 127.2594,52.7262257 C127.4634,52.81705 127.6364,52.8624622 127.7794,52.859694 M140.0644,38.7798608 C140.4064,38.9383203 140.7304,38.9798676 141.0364,38.9045027 C141.7754,38.7576378 142.4794,38.6552189 143.1514,38.5972459 C143.8224,38.5383068 144.4724,38.5141514 145.1004,38.5218811 C145.3014,38.5325095 145.5524,38.5334757 145.8554,38.5267122 C146.1574,38.5209149 146.3434,38.4136649 146.4114,38.2039959 C146.4884,37.9093 146.4154,37.6493878 146.1954,37.4252257 C145.9744,37.2010635 145.6664,37.0252122 145.2714,36.8996041 C144.9994,36.823273 144.6484,36.7691649 144.2194,36.7401784 C143.7904,36.7111919 143.3414,36.7082932 142.8704,36.7324486 C142.4004,36.7575703 141.9334,36.8097459 141.4724,36.8899419 C141.0104,36.9701378 140.6124,37.0696581 140.2754,37.1885027 C140.0684,37.2677324 139.8854,37.3585568 139.7274,37.4609757 C139.5704,37.5633946 139.4864,37.6986649 139.4764,37.8696851 C139.5254,38.3180095 139.7214,38.6204351 140.0644,38.7798608 M143.4124,50.5899216 C143.7804,50.8179486 144.1374,50.8450027 144.4854,50.6701176 C144.7584,50.5338811 144.9024,50.2691378 144.9194,49.8758878 C144.9354,49.4826378 144.8714,49.1116108 144.7274,48.763773 C144.6034,48.4816378 144.5074,48.120273 144.4424,47.6806446 C144.3764,47.2410162 144.3234,46.7859284 144.2844,46.3153811 C144.2454,45.8448338 144.2304,45.3752527 144.2394,44.9066378 C144.2484,44.4389892 144.2674,44.0128878 144.2954,43.6312324 C144.3564,43.1442595 144.2634,42.7297527 144.0164,42.3886784 C143.7684,42.0476041 143.4224,41.8562932 142.9784,41.8176446 C142.7024,41.8495297 142.4694,41.9896311 142.2794,42.2389149 C142.0894,42.4862662 141.9724,42.7597054 141.9284,43.0563338 C141.9104,43.3326716 141.8904,43.7471784 141.8674,44.2998541 C141.8444,44.8525297 141.8504,45.4486851 141.8844,46.0892865 C141.9184,46.7289216 141.9874,47.3762865 142.0924,48.0294486 C142.1974,48.6826108 142.3694,49.2372189 142.6054,49.6942392 C142.7754,50.0623676 143.0434,50.3609284 143.4124,50.5899216 M149.4624,53.3851851 C150.0514,53.4248 150.7724,53.4373608 151.6264,53.4286649 C152.4804,53.4190027 153.3404,53.3504014 154.2094,53.2218946 C155.0774,53.0943541 155.8854,52.8856514 156.6354,52.5938541 C157.3844,52.3020568 157.9264,51.8865838 158.2594,51.3426041 C158.6844,50.6382324 158.8254,49.9841041 158.6744,49.3802189 C158.5234,48.7763338 158.1674,48.1985365 157.6044,47.6526243 C157.0394,47.1047797 156.3274,46.5559689 155.4614,46.0090905 C154.5954,45.4622122 153.7594,44.9336919 152.9534,44.4215973 C152.4734,44.0853541 152.1134,43.758773 151.8744,43.4428203 C151.6354,43.1259014 151.5694,42.8118811 151.6764,42.4997932 C151.7184,42.3326378 151.8864,42.1471243 152.1814,41.9442189 C152.4764,41.7422797 152.8324,41.5664284 153.2474,41.4176311 C153.6634,41.2698 154.1104,41.1712459 154.5904,41.1268 C155.0704,41.0813878 155.5134,41.1306649 155.9204,41.2726986 C156.1104,41.3538608 156.2164,41.5026581 156.2394,41.7181243 C156.2624,41.9345568 156.2844,42.1606514 156.3044,42.3983405 C156.3064,42.5906176 156.4044,42.7539081 156.5974,42.8901446 C156.7914,43.0254149 157.0624,43.0872527 157.4114,43.0785568 C157.6864,43.0621311 157.8914,42.963577 158.0264,42.7838608 C158.1614,42.6051108 158.2484,42.3674216 158.2874,42.0717595 C158.2814,41.1722122 157.9634,40.4620432 157.3274,39.9431851 C156.6914,39.4233608 155.8384,39.0948473 154.7704,38.9624757 C154.1474,38.9103 153.5094,38.9769689 152.8604,39.1615162 C152.2114,39.3470297 151.6224,39.6195027 151.0974,39.9770027 C150.5724,40.3354689 150.1354,40.7596378 149.7894,41.2485432 C149.4424,41.7374486 149.2574,42.2592054 149.2294,42.8128473 C149.2694,43.4331581 149.4544,43.9626446 149.7814,44.4003405 C150.1084,44.8380365 150.5134,45.2225905 150.9944,45.5559351 C151.4744,45.8883135 152.0544,46.2622392 152.7294,46.6777122 C153.4044,47.0931851 154.0274,47.5192865 154.5964,47.9531176 C155.1664,48.3859824 155.6144,48.7956581 155.9444,49.1782797 C156.2734,49.5618676 156.3374,49.872023 156.1414,50.1097122 C155.9154,50.3889486 155.5534,50.60055 155.0574,50.7493473 C154.5604,50.8971784 154.0104,51.0044284 153.4034,51.0720635 C152.7984,51.1387324 152.1664,51.1744824 151.5074,51.1783473 C150.8494,51.1822122 150.2354,51.1657865 149.6644,51.1271378 C149.2604,51.0991176 148.8614,51.1483946 148.4684,51.2730365 C148.0744,51.3976784 147.8634,51.650827 147.8314,52.0324824 C147.8224,52.1387662 147.8784,52.2643743 147.9964,52.410273 C148.1154,52.5561716 148.2584,52.6991716 148.4244,52.8373405 C148.5904,52.9755095 148.7704,53.0991851 148.9624,53.2074014 C149.1544,53.3165838 149.3214,53.3745568 149.4624,53.3851851 M165.8234,54.3987459 C165.8924,54.4045432 165.9614,54.4093743 166.0304,54.4151716 C166.5494,54.4422257 167.1574,54.3919824 167.8594,54.2654081 C168.5594,54.1388338 169.2614,53.9774757 169.9664,53.7823 C170.6714,53.5871243 171.3404,53.3716581 171.9724,53.1378338 C172.6064,52.9030432 173.1224,52.6904757 173.5224,52.4972324 C173.8794,52.2750027 174.1494,52.0063946 174.3324,51.6914081 C174.5154,51.3773878 174.6074,51.1000838 174.605432,50.8623946 C174.5874,50.7087662 174.4824,50.5937865 174.2894,50.5184216 C174.0974,50.444023 173.8724,50.4391919 173.6164,50.5058608 C173.0514,50.6517595 172.4564,50.8092527 171.8304,50.9812392 C171.2034,51.1532257 170.5704,51.31555 169.9264,51.4672459 C169.2824,51.6189419 168.6444,51.7532459 168.0104,51.8672595 C167.3774,51.9822392 166.7954,52.0479419 166.2644,52.0624351 C166.2444,52.0382797 166.2584,51.8798203 166.3054,51.5851243 C166.3534,51.2904284 166.4274,50.908773 166.5284,50.4382257 C166.6294,49.9686446 166.7474,49.4314284 166.8844,48.826577 C167.0204,48.2217257 167.1704,47.5762932 167.3344,46.8893135 C167.9194,46.9260297 168.4884,46.9724081 169.0444,47.0303811 C169.5994,47.0883541 170.1174,47.1521243 170.5964,47.2236243 C170.8364,47.2593743 171.1624,47.2593743 171.5754,47.2255568 C171.9884,47.1917392 172.2524,47.0013946 172.3674,46.6525905 C172.4504,46.2129622 172.2844,45.8525635 171.8654,45.573327 C171.4464,45.2940905 171.0044,45.1308 170.5404,45.0844216 C170.1264,45.0448068 169.6934,44.9984284 169.2434,44.9452865 C168.7944,44.8921446 168.3234,44.8544622 167.8314,44.8303068 C168.0654,43.8940432 168.3044,42.9819351 168.5474,42.0901176 C168.7904,41.1992662 169.0264,40.4040703 169.2524,39.7045297 C169.2974,39.4523473 169.1464,39.2001649 168.7964,38.9479824 C168.4474,38.6958 168.0584,38.5528 167.6324,38.5180162 C167.4584,38.494827 167.2804,38.5682595 167.0994,38.7373473 C166.9174,38.9074014 166.7944,39.1170703 166.7264,39.3663541 C166.5254,40.1132392 166.2994,40.9432189 166.0494,41.8562932 C165.7994,42.7684014 165.5574,43.714327 165.3264,44.6940703 C164.0964,44.6457595 162.9724,44.6409284 161.9544,44.6757122 C161.5264,44.7346514 161.2364,44.8631581 161.0854,45.0602662 C160.9334,45.2583405 160.8494,45.4196986 160.8314,45.546273 C160.7814,45.9047392 160.9344,46.16755 161.2904,46.3366378 C161.6474,46.5047595 161.9814,46.6071784 162.2944,46.6429284 C162.6864,46.645827 163.0954,46.6564554 163.5214,46.6757797 C163.9474,46.6941378 164.3924,46.7124959 164.8564,46.7269892 C164.6534,47.7105973 164.4654,48.6410635 164.2934,49.5212865 C164.1214,50.4005432 164.0094,51.1802797 163.9544,51.8604959 C163.8994,52.5397459 164.0394,53.125273 164.3694,53.6180432 C164.6994,54.1108135 165.2524,54.3745905 166.0304,54.4151716 C165.9614,54.4093743 165.8924,54.4045432 165.8234,54.3987459 M179.7354,53.7233608 C180.4844,54.0605703 181.2414,54.2402865 182.0114,54.2634757 C182.8974,54.3098541 183.7414,54.1726514 184.5504,53.8528338 C185.3594,53.5310838 186.0324,53.0817932 186.5724,52.5010973 C186.7964,52.0044622 186.7574,51.6691851 186.4554,51.4952662 C186.3484,51.4285973 186.1714,51.3967122 185.9244,51.3976784 C185.6774,51.3996108 185.4274,51.4614486 185.1764,51.5831919 C184.9254,51.7039689 184.6394,51.8189486 184.3184,51.9271649 C183.9974,52.0353811 183.6524,52.1213743 183.2814,52.1880432 C182.9104,52.2537459 182.5264,52.2798338 182.1254,52.2663068 C181.7254,52.2518135 181.3434,52.1880432 180.9784,52.0740297 C180.3654,51.8691919 179.8954,51.5155568 179.5654,51.0092595 C179.2364,50.5039284 179.1264,49.8826514 179.2374,49.1444622 C180.4694,49.371523 181.6464,49.4623473 182.7714,49.4130703 C183.8964,49.3647595 184.9784,49.2005027 186.0194,48.9183676 C186.4794,48.7763338 186.7864,48.5695635 186.9434,48.2980568 C187.0994,48.0255838 187.1334,47.6738811 187.0414,47.24005 C186.8854,46.4661108 186.4384,45.7926581 185.6934,45.2254892 C184.9484,44.6592865 184.0464,44.3027527 182.9914,44.1626514 C182.1114,44.0351108 181.3104,44.0573338 180.5914,44.2273878 C179.8724,44.3974419 179.2464,44.6689486 178.7154,45.0390095 C178.1834,45.4090703 177.7554,45.8699554 177.4274,46.4178 C177.0994,46.9666108 176.9054,47.5704959 176.8434,48.2294554 C176.7704,48.9299622 176.8104,49.6295027 176.9584,50.3261446 C177.1064,51.0218203 177.4004,51.6585568 177.8374,52.2344216 C178.3544,52.8904824 178.9864,53.3861514 179.7354,53.7233608 M179.5644,47.3202459 C179.6434,47.074827 179.7944,46.8699892 180.0174,46.7057324 C180.2414,46.5405095 180.4854,46.4023405 180.7474,46.288327 C181.0104,46.1752797 181.2924,46.0931514 181.5924,46.0419419 C181.8914,45.9907324 182.1664,45.9675432 182.4164,45.9723743 C182.9644,45.9916986 183.4844,46.0999149 183.9774,46.2960568 C184.4704,46.4921986 184.7634,46.8081514 184.8594,47.2410162 C184.5604,47.3328068 184.2004,47.4004419 183.7774,47.4458541 C183.3544,47.4922324 182.8994,47.5154216 182.4124,47.5183203 C181.9264,47.5212189 181.4314,47.5076919 180.9274,47.476773 C180.4244,47.4468203 179.9704,47.3946446 179.5644,47.3202459 M190.7364,56.6896446 C190.9664,56.8316784 191.2064,56.9051108 191.4604,56.9118743 C191.7144,56.9176716 191.9414,56.8683946 192.1414,56.7640432 C192.4944,56.3669284 192.8794,55.9292324 193.2974,55.4499892 C193.7154,54.9717122 194.1404,54.4944014 194.5744,54.0209554 C195.0084,53.5465432 195.4464,53.0856581 195.8904,52.6373338 C196.3344,52.1890095 196.7604,51.7860973 197.1694,51.4285973 C197.6554,50.9812392 198.1144,50.8034554 198.5414,50.8933135 C198.9054,50.9454892 199.1554,51.2421176 199.2904,51.7860973 C199.4254,52.330077 199.5044,52.9474892 199.5284,53.6393 C199.5514,54.3301446 199.5534,55.0045635 199.5354,55.663523 C199.5174,56.32055 199.5274,56.7881986 199.5644,57.0635703 C199.5554,57.1717865 199.6144,57.2983608 199.7414,57.4442595 C199.8694,57.5901581 200.1144,57.6346041 200.4774,57.5814622 C201.2414,57.5060973 201.6454,57.17855 201.6854,56.5910905 C201.7434,55.9427595 201.7984,55.1929757 201.8454,54.3417392 C201.8924,53.4914689 201.8524,52.6547257 201.7224,51.8334419 C201.5924,51.0121581 201.3404,50.2845973 200.9654,49.6526919 C200.5914,49.0207865 200.0114,48.6004824 199.2314,48.3956446 C198.7104,48.2584419 198.1824,48.2980568 197.6454,48.5125568 C197.1094,48.7270568 196.5724,49.0372122 196.0364,49.4410905 C195.5004,49.8449689 194.9834,50.3048878 194.4844,50.8179486 C193.9854,51.3329419 193.5224,51.8228135 193.0934,52.2894959 C193.1504,51.9078405 193.2014,51.5039622 193.2464,51.0759284 C193.2914,50.6488608 193.3224,50.2227595 193.3424,49.7995568 C193.3614,49.3773203 193.3824,48.9647459 193.4054,48.5656986 C193.4304,48.1656851 193.4504,47.8033541 193.4654,47.4777392 C193.4954,46.6525905 193.1094,46.0776919 192.3044,45.7588405 C191.7224,45.5578676 191.3384,45.5849216 191.1554,45.8390365 C190.9724,46.0921851 190.9014,46.4748068 190.9394,46.9869014 C190.9244,48.4478203 190.8474,49.8642932 190.7154,51.2334216 C190.5824,52.6035162 190.4034,54.1146784 190.1794,55.7698068 C190.1404,55.913773 190.1714,56.0741649 190.2704,56.2509824 C190.3684,56.4278 190.5244,56.5727324 190.7364,56.6896446 M206.8874,60.9323 C207.4734,61.2028405 208.0944,61.3922189 208.7494,61.5004351 C209.4054,61.6086514 210.0774,61.6569622 210.7674,61.6463338 C211.4564,61.6366716 212.1314,61.5844959 212.7934,61.4917392 C213.4474,61.4183068 214.0054,61.2753068 214.4674,61.0598405 C214.9284,60.8453405 215.1104,60.5409824 215.0094,60.1458 C214.9304,59.8250162 214.7524,59.6288743 214.4754,59.5573743 C214.1974,59.4858743 213.8784,59.4568878 213.5194,59.4713811 C212.6494,59.6298405 211.7584,59.7013405 210.8484,59.6858811 C209.9364,59.6704216 209.1594,59.5525432 208.5144,59.3274149 C207.7044,59.0733 207.1924,58.6481649 206.9754,58.0452459 C206.7584,57.4442595 206.8254,56.807523 207.1854,56.1350365 C207.3864,55.7727054 207.6464,55.4277662 207.9634,55.1011851 C208.2804,54.7746041 208.6394,54.4982662 209.0374,54.2760365 C209.4364,54.0528405 209.8604,53.9050095 210.3094,53.8335095 C210.7584,53.7620095 211.2254,53.8035568 211.7094,53.9581514 C212.2394,54.1282054 212.6104,54.483773 212.8204,55.0238878 C212.8974,55.2963608 213.0454,55.484773 213.2624,55.5900905 C213.4804,55.6954081 213.6834,55.7340568 213.8734,55.7070027 C214.1164,55.6751176 214.2944,55.5823608 214.4054,55.4277662 C214.5144,55.2731716 214.5774,55.1089149 214.5934,54.9340297 C214.6154,54.1311041 214.2854,53.4634486 213.6014,52.9368608 C212.9164,52.410273 212.1184,52.0701649 211.2154,51.9204014 C210.6514,51.8315095 210.1074,51.8363405 209.5824,51.9310297 C209.0584,52.0257189 208.5594,52.1812797 208.0874,52.3948135 C207.6144,52.6083473 207.1834,52.8740568 206.7934,53.1919419 C206.4044,53.5107932 206.0744,53.8412392 205.8064,54.1842459 C205.1104,55.1137459 204.6964,56.092523 204.5524,57.1176784 C204.4084,58.1428338 204.6794,59.0452797 205.3544,59.8279149 C205.7904,60.2945973 206.3004,60.6617595 206.8874,60.9323 M216.3784,74.4573946 C216.4464,74.4776851 216.5134,74.4989419 216.5804,74.5192324 C216.7864,74.5743068 216.9944,74.5830027 217.2014,74.5472527 C218.5284,74.316327 219.7094,73.9472324 220.7484,73.4361041 C221.7874,72.9240095 222.7194,72.2998338 223.5434,71.5587459 C224.3664,70.8176581 225.0944,69.9876784 225.7224,69.0649419 C226.3504,68.1431716 226.9234,67.1701919 227.4404,66.1460027 C227.9564,65.1208473 228.4224,64.0580095 228.8354,62.9555568 C229.2474,61.8540703 229.6614,60.7641784 230.0784,59.6878135 C230.1774,59.4733135 230.1344,59.2076041 229.9474,58.8897189 C229.7594,58.5728 229.4764,58.3611986 229.0984,58.2558811 C228.9534,58.2210973 228.7954,58.2336581 228.6224,58.2916311 C228.4504,58.3496041 228.2854,58.4336649 228.1304,58.5447797 C227.9754,58.6558946 227.8394,58.7805365 227.7244,58.9196716 C227.6094,59.0578405 227.5254,59.1853811 227.4734,59.3032595 C227.2284,59.8501378 226.8254,60.3516041 226.2694,60.811523 C225.7134,61.2704757 225.1214,61.6540635 224.4954,61.9622865 C223.8694,62.2705095 223.2684,62.4869419 222.6894,62.6096514 C222.1094,62.733327 221.6554,62.733327 221.3234,62.6096514 C221.0354,62.5024014 220.8344,62.2337932 220.7194,61.8047932 C220.6044,61.374827 220.5264,60.89655 220.4864,60.3699622 C220.4474,59.8433743 220.4424,59.3245162 220.4714,58.8124216 C220.5014,58.300327 220.5164,57.9196378 220.5154,57.6684216 C220.4914,57.4104419 220.3534,57.17855 220.0984,56.9737122 C219.8434,56.7688743 219.5334,56.6355365 219.1684,56.5736986 C218.9024,56.5244216 218.7104,56.5814284 218.5934,56.7447189 C218.4764,56.9070432 218.4004,57.0954554 218.3654,57.3099554 C218.3244,57.4761446 218.2864,57.7805027 218.2524,58.2210973 C218.2174,58.6616919 218.2004,59.1660568 218.2034,59.7332257 C218.2054,60.3013608 218.2404,60.8975162 218.3064,61.5226581 C218.3714,62.1478 218.4974,62.7313946 218.6814,63.2753743 C218.8534,63.7246649 219.0674,64.064773 219.3264,64.2966649 C219.5844,64.5275905 219.8674,64.7005432 220.1734,64.8145568 C220.5464,64.9536919 220.9754,65.0174622 221.4604,65.0068338 C221.9474,64.9962054 222.4404,64.9440297 222.9394,64.8503068 C223.4384,64.7556176 223.9324,64.6203473 224.4194,64.4435297 C224.9074,64.2667122 225.3484,64.0831311 225.7424,63.8947189 C225.3544,65.1198811 224.8814,66.2030095 224.3284,67.1450703 C223.7764,68.0871311 223.1224,68.9035838 222.3734,69.597327 C221.6244,70.2920365 220.7794,70.8804622 219.8354,71.3655027 C218.8924,71.8515095 217.8244,72.2466919 216.6304,72.5558811 C216.2384,72.6843878 215.9364,72.8351176 215.7234,73.0071041 C215.5094,73.1781243 215.3984,73.3655703 215.3914,73.5675095 C215.3854,73.7018135 215.4424,73.8303203 215.5614,73.9539959 C215.6804,74.0776716 215.8284,74.1887865 216.0054,74.2883068 C216.1824,74.387827 216.3734,74.4651243 216.5804,74.5192324 C216.5134,74.4989419 216.4464,74.4776851 216.3784,74.4573946" id="Fill-1" fill="#310CA3"></path>
                </g>
            </g>
        </g>
    </g>
</svg>