<?xml version="1.0" encoding="UTF-8"?>
<svg width="35px" height="30px" viewBox="0 0 35 30" version="1.1" xmlns="http://www.w3.org/2000/svg" xmlns:xlink="http://www.w3.org/1999/xlink">
    <title>79E9B467-A0B5-45F9-8D51-2F47CEB065F7</title>
    <defs>
        <filter id="filter-1">
            <feColorMatrix in="SourceGraphic" type="matrix" values="0 0 0 0 0.192157 0 0 0 0 0.047059 0 0 0 0 0.639216 0 0 0 1.000000 0"></feColorMatrix>
        </filter>
    </defs>
    <g id="Tikui" stroke="none" stroke-width="1" fill="none" fill-rule="evenodd">
        <g id="Get-started" transform="translate(-1301.000000, -32.000000)">
            <g id="Group-2" transform="translate(1302.000000, 32.000000)">
                <circle id="Oval" fill="#FFF1F5" cx="19.5" cy="14.5" r="14.5"></circle>
                <g filter="url(#filter-1)" id="github" stroke-linecap="round" stroke-linejoin="round">
                    <g transform="translate(0.000000, 7.000000)">
                        <path d="M7,19 C2,20.5 2,16.5 0,16 M14,22 L14,18.13 C14.0758831,17.1653973 13.7334911,16.2147131 13.06,15.52 C16.2,15.17 19.5,13.98 19.5,8.52 C19.4997434,7.12382701 18.9626921,5.78119881 18,4.77 C18.4558559,3.54850655 18.423624,2.19834937 17.91,1 C17.91,1 16.73,0.65 14,2.48 C11.7080091,1.85882174 9.29199093,1.85882174 7,2.48 C4.27,0.65 3.09,1 3.09,1 C2.576376,2.19834937 2.54414413,3.54850655 3,4.77 C2.03012711,5.78869968 1.49252265,7.14346292 1.49992303,8.55 C1.49992303,13.97 4.8,15.16 7.94,15.55 C7.27461958,16.2375636 6.93287138,17.1755533 7,18.13 L7,22" id="Shape" stroke="#000000" stroke-width="2"></path>
                    </g>
                </g>
            </g>
        </g>
    </g>
</svg>