<?xml version="1.0" encoding="UTF-8"?>
<svg width="35px" height="30px" version="1.1" viewBox="0 0 35 30" xmlns="http://www.w3.org/2000/svg" xmlns:cc="http://creativecommons.org/ns#" xmlns:dc="http://purl.org/dc/elements/1.1/" xmlns:rdf="http://www.w3.org/1999/02/22-rdf-syntax-ns#">
 <title>GitLab logo (Tikui design)</title>
 <defs>
  <filter id="filter-1-3" x="-.051282" y="-.047558" width="1.1026" height="1.0951">
   <feColorMatrix in="SourceGraphic" values="0 0 0 0 0.192157 0 0 0 0 0.047059 0 0 0 0 0.639216 0 0 0 1.000000 0"/>
  </filter>
 </defs>
 <g id="Tikui" fill="none" fill-rule="evenodd">
  <g id="Get-started" transform="translate(-1301 -32)">
   <g transform="translate(1302 32)">
    <circle id="Oval" cx="19.5" cy="14.5" r="14.5" fill="#FFF1F5"/>
    <g id="gitlab" transform="translate(-27.893 -4.3714)" filter="url(#filter-1-3)" stroke-linecap="round" stroke-linejoin="round">
     <path d="m48.318 21.289c-0.95319-2.4839-1.9041-4.9687-2.8564-7.453-0.7772-1.1685-1.574 0.15542-1.7022 0.97961-0.53795 1.6459-1.0759 3.2917-1.6139 4.9376h-7.7299c-0.63632-1.9468-1.2726-3.8936-1.9089-5.8404-0.64543-1.249-1.5989-0.02509-1.7477 0.8088-0.8399 2.1878-1.6811 4.375-2.5202 6.5631-1.0456 2.4669 0.25821 5.1902 2.3852 6.549 2.3824 1.7784 4.757 3.5673 7.1271 5.3622 0.85487 0.49965 1.4665-0.39719 2.1168-0.80124 2.3267-1.7824 4.6979-3.5071 7.0187-5.2963 1.6242-1.4005 2.2191-3.814 1.4312-5.8093z" fill="none" stroke="#999" stroke-width="2"/>
    </g>
   </g>
  </g>
 </g>
 <metadata>
  <rdf:RDF>
   <cc:Work rdf:about="">
    <dc:title>GitLab logo (Tikui design)</dc:title>
   </cc:Work>
  </rdf:RDF>
 </metadata>
</svg>
