<?xml version="1.0" encoding="UTF-8"?>
<svg width="481px" height="323px" viewBox="0 0 481 323" version="1.1" xmlns="http://www.w3.org/2000/svg" xmlns:xlink="http://www.w3.org/1999/xlink">
    <title>EEF78C28-18FF-483A-8830-50A091F77480</title>
    <g id="Tikui" stroke="none" stroke-width="1" fill="none" fill-rule="evenodd">
        <g id="Home" transform="translate(-146.000000, -1330.000000)">
            <g id="SECTION-2" transform="translate(146.000000, 1330.404220)">
                <g id="8_BLM_LAPTOP" transform="translate(0.000000, 0.372153)">
                    <g id="BOTTLE" transform="translate(0.000000, 147.063282)">
                        <path d="M0.429787989,156.829514 L0.429787989,44.9903769 C0.429787989,39.6084365 4.90276669,35.2442348 10.4204427,35.2442348 L10.4207374,35.2442348 L10.4207374,14.3202165 C10.4207374,10.5252585 11.9665593,6.88554877 14.7180278,4.20320347 C17.1387541,1.8428546 20.3179471,0.390995671 23.6967057,0.0776241406 L23.6967057,0.0114998727 L46.4117968,0.0114998727 L46.4117968,0.0776241406 C49.7905553,0.390995671 52.9697483,1.8428546 55.3904746,4.20320347 C58.1419431,6.88554877 59.687765,10.5252585 59.687765,14.3202165 L59.687765,35.2442348 L59.6880597,35.2442348 C65.2057357,35.2442348 69.6787144,39.6084365 69.6787144,44.9903769 L69.6787144,156.829514 L0.429787989,156.829514 Z" id="Path" fill="#FFDD82"></path>
                        <g id="Group" transform="translate(10.292306, 30.199402)" fill="#FFFFFF">
                            <rect id="Rectangle" x="0.128477818" y="0.140040827" width="49.2670719" height="4.87421345"></rect>
                        </g>
                        <g id="Group" transform="translate(0.209894, 3.269824)" fill="#FFF7F3">
                            <path d="M45.1432604,153.558931 C44.4601035,147.870986 43.1316393,141.930878 40.7593818,136.921431 C37.9433256,130.976124 33.6410101,126.346219 27.0053528,125.384364 C26.9994888,126.101856 26.9595069,126.829747 26.8838079,127.570636 C26.5207725,131.129501 25.3839548,135.548837 22.4724751,138.002868 C20.879331,139.344267 19.3115087,139.793999 17.9180073,139.703013 C15.8170934,139.567833 13.9856573,138.164044 12.8968178,136.094755 C11.2421016,132.951827 11.3703101,128.360917 14.5478024,125.602731 C17.00802,123.465852 20.2785368,122.358419 23.5677118,122.142651 C21.8460926,111.49725 11.1696011,104.740865 0.220166819,103.454058 L0.220166819,100.331928 C12.8067253,101.720119 25.1022159,109.760711 26.8059765,122.21284 L26.9603065,122.231038 C34.9979947,123.187694 40.303322,128.519493 43.6631316,135.613827 C46.220905,141.015816 47.6370627,147.44465 48.3484734,153.558931 L45.1432604,153.558931 Z M23.807603,125.249184 C21.205583,125.40776 18.6168904,126.244835 16.6745712,127.931981 C14.6392276,129.699716 14.682408,132.658071 15.7421941,134.670169 C16.2824824,135.697015 17.0861179,136.523691 18.1280454,136.59128 C18.8293274,136.635474 19.5796537,136.318321 20.3814235,135.642423 C22.6995722,133.687517 23.4117825,130.094856 23.7009847,127.261282 C23.7708197,126.577585 23.8060037,125.906885 23.807603,125.249184 Z M69.4687618,47.2505017 L69.4687618,50.4610194 C68.875964,50.616996 68.3793892,50.7599745 68.1677518,50.8015683 C57.3110754,52.9904394 45.7709757,61.719928 47.1388886,73.5741472 C48.9327418,72.5317038 51.0003374,71.7856159 52.94239,71.5438522 C55.655293,71.205903 58.085391,71.858405 59.4690301,73.6027429 C60.382216,74.7569695 60.9030464,76.4415165 60.5991843,78.8097607 C60.2060292,81.8798995 58.8253221,83.4708605 57.1953946,84.1545578 C55.591322,84.825257 53.5741035,84.6198879 51.5766094,83.6944269 C49.4042613,82.6857784 47.2694961,80.8348565 45.8277499,78.7915634 C45.7776393,78.8695517 45.7307273,78.94754 45.6867472,79.0281279 C40.9134453,87.6484329 42.9458569,97.7037223 48.6128868,104.668076 C53.4936067,110.662776 61.1093529,114.372418 69.4687618,112.812653 L69.4687618,115.986776 C60.1047418,117.515346 51.5931353,113.345573 46.107623,106.607385 C39.6862685,98.71757 37.4635432,87.3130833 42.8725568,77.5463505 C43.219866,76.917245 43.7017808,76.3063368 44.2841833,75.7240243 C44.2082177,75.4640633 44.1482449,75.2041024 44.1055976,74.9493406 C41.7655922,60.9634417 54.8673837,50.2998436 67.5200456,47.7470271 C67.8084481,47.6872361 68.6032876,47.4610701 69.4687618,47.2505017 Z M48.1205768,76.5948934 C49.1987545,78.3600283 51.0845659,80.0107803 52.9495868,80.8764502 C54.0171026,81.370376 55.0758225,81.6459346 55.9327672,81.2871885 C56.7651897,80.9388409 57.2244481,79.9899834 57.4254236,78.4250185 C57.593614,77.1096161 57.4446149,76.1503602 56.9381779,75.5108563 C56.1918497,74.5697977 54.810876,74.4554148 53.3472731,74.6373875 C51.5832731,74.8583543 49.6540147,75.586245 48.1205768,76.5948934 Z M0.220166819,66.8203618 C8.87197646,63.8516078 16.4253509,58.1090705 20.4094108,49.7409276 C22.3861143,45.5867517 23.4973437,41.0452339 23.5938333,36.464722 C23.6255522,34.9439505 23.6191551,33.3789856 23.3632712,31.8738117 L26.5986039,31.8816105 C26.8102413,33.4153801 26.8238351,34.9933431 26.791583,36.5271127 C26.6862975,41.5391597 25.4732476,46.509613 23.3104951,51.0537304 C18.7952095,60.5397053 10.1068831,66.9815376 0.220166819,70.1088678 L0.220166819,66.8203618 Z M59.4751607,12.2051665 C56.5916684,15.2883033 52.8163139,17.8021257 48.910885,19.1747195 C44.4963537,20.7266863 39.9416194,20.8176726 36.2822123,18.8523679 C34.9318913,18.1270768 33.6929865,17.1236276 32.6268034,15.7952271 C23.8747725,17.393987 16.0713781,11.0041469 13.0876646,4.03979312 C12.9519928,3.72524037 12.8264497,3.40548841 12.7113019,3.08833605 C13.4848178,2.04849226 14.3657516,1.04764262 15.1483301,0.34574806 C15.3346456,1.1542266 15.6907507,2.02509578 16.0388595,2.83617393 C18.3623391,8.25895929 24.1178623,13.4347817 30.828419,12.8888638 C30.6594289,12.5327173 30.5000346,12.1609731 30.3499693,11.7762309 C29.9165658,10.663598 29.9147,9.17922104 30.3291787,7.62725419 C30.8814616,5.55796505 32.1512857,3.36129505 33.6996502,1.94190827 C35.8450772,-0.0259960947 38.451895,-0.597910178 40.7676447,1.40898833 C42.9221343,3.27810754 42.9570518,5.97390256 41.5840745,8.63330305 C40.3862177,10.9547543 38.0832621,13.2008169 35.7576502,14.557813 C36.3864317,15.2025162 37.0794507,15.7198385 37.8249793,16.1201783 C40.7220654,17.6747448 44.3310953,17.4693756 47.8265768,16.2397604 C52.2344444,14.6903931 56.4967781,11.5006723 59.0761416,7.7130413 C59.3999948,9.02064486 59.4930192,10.5284184 59.4751607,12.2051665 Z M33.9515359,12.0231938 C35.8301506,11.0119457 37.7471479,9.12982846 38.7272368,7.22951394 C39.386671,5.95310569 39.6774725,4.6377033 38.6424752,3.74083803 C37.7298224,2.94795714 36.7364063,3.43928333 35.8906565,4.21396695 C34.7498406,5.26160957 33.8313238,6.8889651 33.4243084,8.41233625 C33.1990772,9.25720932 33.1041869,10.0630883 33.3400799,10.6687973 C33.527195,11.149725 33.7313691,11.5994575 33.9515359,12.0231938 Z" id="Shape"></path>
                        </g>
                    </g>
                    <g id="PLANT" transform="translate(241.000000, 0.597817)">
                        <g id="VASE" transform="translate(52.498826, 122.490620)">
                            <g id="Group" transform="translate(1.763829, 1.705613)" fill="#C59FFC">
                                <path d="M30.8328393,158.389126 C31.0772885,149.536243 38.6552149,142.408015 47.9657761,142.408015 C57.2790235,142.408015 64.8542637,149.536243 65.0987129,158.389126 L61.8752064,158.389126 C61.6307572,151.250462 55.4846049,145.539008 47.9657761,145.539008 C40.4469473,145.539008 34.300795,151.250462 34.059032,158.389126 L30.8328393,158.389126 Z M85.5921552,144.978038 C83.0214088,146.454823 80.0128028,147.302801 76.7973551,147.302801 C67.3309911,147.302801 59.6590457,139.939748 59.6590457,130.88335 C59.6590457,121.826952 67.3309911,114.463899 76.7973551,114.463899 C82.0677881,114.463899 86.7821663,116.744306 89.9277714,120.331902 L89.1487573,124.757039 C86.8251464,120.501498 82.1618071,117.594892 76.7973551,117.594892 C69.1254097,117.594892 62.8825522,123.54117 62.8825522,130.88335 C62.8825522,138.225529 69.1254097,144.171807 76.7973551,144.171807 C80.5070738,144.171807 83.8810105,142.783734 86.3765418,140.518982 L85.5921552,144.978038 Z M8.26292155,108.992488 C11.2957039,106.396373 15.2928519,104.815221 19.6768207,104.815221 C29.1431846,104.815221 36.8178162,112.180883 36.8178162,121.237281 C36.8178162,130.29107 29.1431846,137.656732 19.6768207,137.656732 C17.2699358,137.656732 14.97856,137.179256 12.8993983,136.320842 L12.2466383,132.472329 C14.3983288,133.771691 16.9475852,134.525739 19.6768207,134.525739 C27.3514523,134.525739 33.5943098,128.576851 33.5943098,121.237281 C33.5943098,113.895102 27.3514523,107.946214 19.6768207,107.946214 C15.3438907,107.946214 11.464938,109.845684 8.91299535,112.817518 L8.26292155,108.992488 Z M92.2513823,107.111283 C84.0206958,105.908459 77.7133682,99.0907214 77.7133682,90.8796914 C77.7133682,81.8232931 85.3853135,74.4602404 94.8516775,74.4602404 C95.9073759,74.4602404 96.9415842,74.551561 97.9462437,74.7263748 L97.4036201,77.8130124 C96.5762534,77.6668994 95.7247105,77.5912337 94.8516775,77.5912337 C87.1770459,77.5912337 80.9368746,83.5375119 80.9368746,90.8796914 C80.9368746,97.5513164 86.0917987,103.072301 92.7940059,104.024645 L92.2513823,107.111283 Z M0.682308867,59.4366906 C1.3485002,59.3610249 2.02812281,59.3218875 2.71580419,59.3218875 C12.1794819,59.3218875 19.8541135,66.6849402 19.8541135,75.7413385 C19.8541135,83.9314953 13.5763347,90.7387967 5.37519702,91.9651024 L4.85137722,88.8758556 C11.5132906,87.8922019 16.6306071,82.389481 16.6306071,75.7413385 C16.6306071,68.4017682 10.3877496,62.4528808 2.71580419,62.4528808 C1.92604511,62.4528808 1.15240356,62.5155007 0.400252052,62.6355221 L0.204155409,61.4901004 C0.35458571,60.788236 0.513074778,60.1046358 0.682308867,59.4366906 Z M73.1789691,31.3568985 C74.4871754,31.8004559 75.7309117,32.2622774 76.9182366,32.7397539 C72.5987379,34.9940691 69.665347,39.3722415 69.665347,44.4053133 C69.665347,51.7474927 75.9082045,57.6937709 83.5801499,57.6937709 C89.8337524,57.6937709 95.1364206,53.7461101 96.8851728,48.3086183 C97.6400106,49.6210264 98.2283005,50.9125612 98.6876502,52.1623493 C95.7972394,57.3154426 90.1158093,60.8247643 83.5801499,60.8247643 C74.1137859,60.8247643 66.4418406,53.4617116 66.4418406,44.4053133 C66.4418406,39.0930612 69.0824296,34.3600429 73.1789691,31.3568985 Z M32.4016124,20.3671118 C41.6799385,20.5732355 49.1342972,27.8554042 49.1342972,36.7813445 C49.1342972,45.8377428 41.4623518,53.2034046 31.9959878,53.2034046 C22.5645452,53.2034046 14.9114036,45.889926 14.8576785,36.8804926 C15.9805333,36.0690435 17.114133,35.3567425 18.2450465,34.7357621 C18.1375963,35.4010982 18.081185,36.0846984 18.081185,36.7813445 C18.081185,44.1235239 24.3213562,50.0724113 31.9959878,50.0724113 C39.6706195,50.0724113 45.9107907,44.1235239 45.9107907,36.7813445 C45.9107907,29.9740431 40.5436525,24.3643466 33.6426624,23.5842075 L32.4016124,20.3671118 Z M49.2256298,0.0730565117 C48.9919256,1.03844613 48.8683579,2.04297317 48.8683579,3.07620097 C48.8683579,10.4157712 55.1085291,16.3646586 62.7831608,16.3646586 C65.6010426,16.3646586 68.2255142,15.5636461 70.4201848,14.1833999 L68.5989037,18.525044 C66.7803088,19.1538519 64.8247148,19.495652 62.7831608,19.495652 C53.3167968,19.495652 45.6448514,12.1325993 45.6448514,3.07620097 C45.6448514,2.05080065 45.7415566,1.04627361 45.9295945,0.0730565117 L49.2256298,0.0730565117 Z" id="Shape"></path>
                            </g>
                            <g id="Group" transform="translate(50.318703, 69.743914)" fill="#C59FFC">
                                <path d="M1.75044378,3.26532159 C9.34621335,3.26532159 15.5305891,9.08860296 15.5305891,16.2842659 C15.5305891,23.4799288 9.34621335,29.3032101 1.75044378,29.3032101 C0.862080422,29.3032101 0.13929958,30.0055905 0.13929958,30.8698671 C0.13929958,31.7341437 0.862080422,32.4340334 1.75044378,32.4340334 C11.1465947,32.4340334 18.7528775,25.1860655 18.7528775,16.2842659 C18.7528775,7.37997549 11.1465947,0.132007661 1.75044378,0.132007661 C0.862080422,0.132007661 0.13929958,0.834388049 0.13929958,1.69866462 C0.13929958,2.5629412 0.862080422,3.26532159 1.75044378,3.26532159 Z" id="Path"></path>
                            </g>
                            <g id="Group" transform="translate(34.811769, 69.743914)" fill="#C59FFC">
                                <path d="M17.2573782,29.3032101 C9.66423692,29.3032101 3.47723292,23.4799288 3.47723292,16.2842659 C3.47723292,9.08860296 9.66423692,3.26532159 17.2573782,3.26532159 C18.1483699,3.26532159 18.8685224,2.5629412 18.8685224,1.69866462 C18.8685224,0.834388049 18.1483699,0.132007661 17.2573782,0.132007661 C7.86122726,0.132007661 0.254944515,7.37997549 0.254944515,16.2842659 C0.254944515,25.1860655 7.86122726,32.4340334 17.2573782,32.4340334 C18.1483699,32.4340334 18.8685224,31.7341437 18.8685224,30.8698671 C18.8685224,30.0055905 18.1483699,29.3032101 17.2573782,29.3032101 Z" id="Path"></path>
                            </g>
                            <g id="Group" transform="translate(43.063856, 0.168867)" fill="#310CA3">
                                <path d="M33.2182815,3.17685491 L1.83701931,3.17685491 C0.947515223,3.17685491 0.223757239,2.47386843 0.223757239,1.60989269 C0.223757239,0.745916946 0.947515223,0.0456136262 1.83701931,0.0456136262 L35.6602741,0.0456136262 C36.2017114,0.0456136262 36.707237,0.308562765 37.00558,0.748600101 C37.3039229,1.18595428 37.3536468,1.74136726 37.1409393,2.22433507 L24.7210313,30.4538034 L25.7182703,30.4538034 C35.8177329,30.4538034 45.4006201,34.7790484 51.9116795,42.275782 C58.4227389,49.7725157 61.1989861,59.6760388 59.5000886,69.3434444 C52.8564323,107.11421 43.5221642,160.189689 43.5221642,160.189689 C43.3895674,160.940972 42.7182956,161.491019 41.9337641,161.491019 L1.83701931,161.491019 C0.947515223,161.491019 0.223757239,160.790716 0.223757239,159.92674 C0.223757239,159.062764 0.947515223,158.359778 1.83701931,158.359778 L40.574646,158.359778 L56.3205258,68.814863 C57.8619646,60.0570468 55.3481487,51.0845782 49.4475874,44.2935142 C43.5497886,37.5024502 34.8674552,33.5850447 25.7182703,33.5850447 L22.2790387,33.5850447 C21.7376014,33.5850447 21.2320758,33.3194124 20.9337328,32.8820582 C20.6353898,32.4420208 20.585666,31.8866079 20.7983735,31.4036401 L33.2182815,3.17685491 Z" id="Path"></path>
                            </g>
                            <g id="Group" transform="translate(30.342860, 81.161360) scale(-1, 1) translate(-30.342860, -81.161360) translate(0.342860, 0.168867)" fill="#310CA3">
                                <path d="M24.7210313,30.4538034 L37.1409393,2.22433507 C37.3536468,1.74136726 37.3039229,1.18595428 37.00558,0.748600101 C36.707237,0.308562765 36.2017114,0.0456136262 35.6602741,0.0456136262 L1.83701931,0.0456136262 C0.947515223,0.0456136262 0.223757239,0.745916946 0.223757239,1.60989269 C0.223757239,2.47386843 0.947515223,3.17685491 1.83701931,3.17685491 L33.2182815,3.17685491 L20.7983735,31.4036401 C20.585666,31.8866079 20.6353898,32.4420208 20.9337328,32.8820582 C21.2320758,33.3194124 21.7376014,33.5850447 22.2790387,33.5850447 L25.7182703,33.5850447 C34.8674552,33.5850447 43.5497886,37.5024502 49.4475874,44.2935142 C55.3481487,51.0845782 57.8619646,60.0570468 56.3205258,68.814863 L40.574646,158.359778 L1.83701931,158.359778 C0.947515223,158.359778 0.223757239,159.062764 0.223757239,159.92674 C0.223757239,160.790716 0.947515223,161.491019 1.83701931,161.491019 L41.9337641,161.491019 C42.7182956,161.491019 43.3895674,160.940972 43.5221642,160.189689 C43.5221642,160.189689 52.8564323,107.11421 59.5000886,69.3434444 C61.1989861,59.6760388 58.4227389,49.7725157 51.9116795,42.275782 C45.4006201,34.7790484 35.8177329,30.4538034 25.7182703,30.4538034 L24.7210313,30.4538034 Z" id="Path"></path>
                            </g>
                        </g>
                        <g id="Group">
                            <path d="M105.510642,122.844673 C105.618092,122.31397 105.736287,121.784832 105.857169,121.258043 C106.485752,118.562 107.181491,115.86987 108.092131,113.244012 C109.561512,109.002303 109.652844,108.90472 110.856285,105.869747 C111.517104,104.197798 112.317607,102.581163 113.126169,100.974182 C123.202304,80.9431489 141.380177,66.3321208 162.897063,58.9607256 C164.301974,58.4793358 175.447237,55.3165135 180.36308,54.5794262 C181.630991,54.3892185 182.581925,54.387653 183.04396,54.5008905 C183.489878,54.6102143 183.790738,54.8139896 183.992207,55.0125466 C184.370969,55.3885263 184.701378,56.0181163 184.333362,56.9023602 C184.185618,57.2608586 183.715523,57.898798 183.054705,58.5805711 C181.929165,59.743995 180.231453,61.213995 180.032671,61.4099429 C175.342473,66.0072806 171.331897,71.2404703 166.324722,75.5304491 C161.604976,79.5743842 156.278136,82.918282 150.637005,85.6151085 C144.08792,88.7447944 131.220769,93.094523 121.84306,99.573325 C118.568518,101.836248 115.710344,104.349651 113.784301,107.183458 C112.852171,109.381414 112.01406,111.618767 111.264596,113.884561 C111.256537,113.977969 109.499728,119.817266 109.002771,121.949209 C108.932928,122.246914 108.865772,122.545402 108.801302,122.844673 L105.510642,122.844673 Z" id="Path" fill="#FFD7E2"></path>
                            <path d="M113.784301,107.183458 C112.852171,109.381414 121.64965,84.5328295 150.637005,75.7798846 C168.411941,70.4125842 186.46356,53.9594901 183.992207,55.0125466 C183.495251,55.2241493 184.701378,56.0181163 184.333362,56.9023602 C184.185618,57.2608586 183.715523,57.898798 183.054705,58.5805711 C181.929165,59.743995 180.231453,61.213995 180.032671,61.4099429 C175.342473,66.0072806 171.331897,71.2404703 166.324722,75.5304491 C161.604976,79.5743842 156.278136,82.918282 150.637005,85.6151085 C144.08792,88.7447944 131.220769,93.094523 121.84306,99.573325 C118.568518,101.836248 115.710344,104.349651 113.784301,107.183458 Z" id="Path" fill="#FA9FB8"></path>
                            <g transform="translate(120.847159, 117.264100)" fill="#FFD7E2" id="Shape">
                                <path d="M25.5247752,6.93514393 C21.5168859,5.30963804 5.87483513,2.99009592 1.32432269,3.62673065 C0.445917985,3.74936111 -0.0832738405,2.59089463 0.118195128,1.74813636 C0.214900234,1.33849843 0.464721755,0.897550607 1.05301114,0.592279034 C1.44789032,0.386155494 2.46598018,0.198296064 3.93804678,0.232215128 C9.37502269,0.365282224 22.9513449,2.49696491 26.7658241,4.04680521 C37.3577193,8.34669881 42.4213061,16.9856234 46.9154072,26.5481902 C47.0121123,26.6316833 47.1007587,26.7282282 47.17866,26.8378068 C50.4827511,31.5499475 56.0191184,34.5687442 61.899326,37.0787549 C68.1072565,39.7244418 74.7100662,41.7882864 79.7897705,44.4026634 C83.5075445,46.3151768 87.0131046,48.6268915 90.2204905,51.2725784 C94.2471837,54.5914283 97.8225863,58.6643251 100.044117,63.3555925 C100.98162,65.3333349 100.737171,66.7292348 100.041431,67.6346129 C99.582082,68.2321102 98.8702249,68.6913222 97.8897426,68.9287556 C96.895829,69.1714074 95.5392713,69.1922806 93.9248333,68.9835479 C84.8238084,67.8120357 66.3370158,59.4261995 63.4304902,57.231897 C53.5853732,49.803622 49.2040947,39.1425994 44.6106022,29.191268 C40.2884213,19.8348247 35.8050652,11.1071888 25.5247752,6.93514393 Z"></path>
                            </g>
                            <g transform="translate(165.438957, 146.225762)" fill="#FA9FB8" id="Path">
                                <path d="M0.0188037704,0.229605969 C24.1816488,40.9455281 38.4349068,15.5088396 53.2979442,39.9670936 C53.2979442,39.9670936 50.9474729,40.2306186 49.3330349,40.0218859 C45.8516511,39.5731106 41.0002783,38.0702352 36.1730818,36.2646973 C28.3722033,33.3424395 20.6331087,29.6243883 18.8386917,28.270235 C8.99357477,20.84196 0.0188037704,0.229605969 0.0188037704,0.229605969 Z"></path>
                            </g>
                            <path d="M81.9924979,122.844673 C81.5841874,121.903288 81.1543869,120.970253 80.7004102,120.047394 C79.0322471,116.654965 77.0094987,113.526584 74.6617136,110.676078 C74.5650085,110.606153 74.4736759,110.523964 74.3930883,110.430035 C67.3309294,102.287894 59.1109955,101.881387 50.6063187,103.516808 C41.4596276,105.275902 31.9771547,109.277569 23.0695401,109.594582 C20.976949,109.668943 8.37842285,108.1298 3.27722856,106.207633 C2.1167673,105.770077 1.28671515,105.267292 0.848855922,104.808341 C0.43248672,104.372351 0.23907651,103.909747 0.190723957,103.470104 C0.155802669,103.146307 0.214900234,102.825641 0.376075409,102.521674 C0.537250584,102.218229 0.942874775,101.880865 1.15777501,101.747798 C5.1522331,99.2589214 10.1916436,97.6274144 14.5568046,95.9066742 C30.2875017,89.7062694 46.4909793,87.4344749 61.877836,96.0540917 C71.4382101,101.410434 78.8683857,109.053703 83.6096221,118.697937 C84.2811853,120.0607 84.8990235,121.444598 85.4765679,122.844673 L81.9924979,122.844673 Z" id="Path" fill="#FFD7E2"></path>
                            <path d="M0.848855922,104.808341 C9.04729983,104.9221 13.7025761,106.264513 23.896906,102.91644 C47.5547354,95.1455826 56.2743124,92.6807104 60.773786,102.91644 C60.773786,102.91644 54.0635263,102.852516 50.6063187,103.516808 C41.4596276,105.275902 31.9771547,109.277569 23.0695401,109.594582 C20.976949,109.668943 8.37842285,108.1298 3.27722856,106.207633 C2.1167673,105.770077 0.848855922,104.808341 0.848855922,104.808341 Z" id="Path" fill="#FA9FB8"></path>
                            <path d="M114.332297,122.844673 C114.386022,122.458517 115.081761,122.091148 115.420229,121.829449 C119.887468,118.381185 124.593783,115.497804 129.512312,113.202788 C130.667401,112.664518 132.292584,111.958741 133.767337,111.384465 C145.648633,106.763123 158.671587,105.437409 172.473555,107.697202 C177.781591,108.566312 183.054705,109.801488 188.137096,111.529012 C191.126895,112.54528 194.167734,113.751233 196.843241,115.424225 C197.224689,115.663224 198.626913,116.410487 199.201771,117.123049 C199.929746,118.028688 199.951236,118.961201 199.285045,119.78413 C197.920429,121.47069 195.478625,122.579321 192.679549,123.206041 C188.95103,124.039407 184.599301,124.086371 182.028557,124.094199 C175.218905,124.12029 168.331353,123.00044 161.75272,121.334231 C157.562165,120.272825 149.833815,117.113395 142.755539,115.440141 C139.824837,114.747149 137.015016,114.2775 134.683349,114.410306 C129.313529,116.525029 124.188159,119.346052 119.347531,122.844673 L114.332297,122.844673 Z" id="Path" fill="#FFD7E2"></path>
                            <path d="M134.683349,114.410306 C154.322544,101.922351 170.117711,129.729982 199.285045,119.78413 C201.369578,119.073395 195.478625,122.579321 192.679549,123.206041 C188.95103,124.039407 184.599301,124.086371 182.028557,124.094199 C175.218905,124.12029 168.331353,123.00044 161.75272,121.334231 C157.562165,120.272825 149.833815,117.113395 142.755539,115.440141 C139.824837,114.747149 137.015016,114.2775 134.683349,114.410306 Z" id="Path" fill="#FA9FB8"></path>
                            <path d="M88.834384,122.844673 L77.2163402,9.29356252 C77.1276938,8.43384471 77.7750808,7.66649113 78.658858,7.58091072 C79.5453214,7.49559123 80.3350798,8.12413757 80.4237261,8.98411629 L92.0740051,122.844673 L88.834384,122.844673 Z M97.6479799,122.844673 L97.6479799,30.2803308 C97.6479799,29.4164384 98.3705819,28.7148356 99.2597316,28.7148356 C100.148881,28.7148356 100.871483,29.4164384 100.871483,30.2803308 L100.871483,122.844673 L97.6479799,122.844673 Z" id="Shape" fill="#FFD7E2"></path>
                            <g transform="translate(71.123293, 0.102368)" fill="#FFDD82" id="Oval">
                                <ellipse cx="7.7256634" cy="7.34530369" rx="7.48927314" ry="7.27433457"></ellipse>
                            </g>
                            <g transform="translate(100.367778, 24.536913) rotate(-2.259081) translate(-100.367778, -24.536913) translate(92.367778, 16.777154)" fill="#FFDD82" id="Oval">
                                <ellipse cx="7.72566493" cy="7.34530515" rx="7.48927463" ry="7.27433602"></ellipse>
                            </g>
                        </g>
                    </g>
                    <g id="LAPTOP" transform="translate(44.000000, 108.264483)">
                        <polygon id="Path" fill="#310CA3" points="8.59258276 0.0420930792 0.122048386 7.74408079 28.042633 205.874375 205.767127 212.980523 436.989677 205.874375 436.989677 180.628985 205.767127 186.014808 41.4851605 180.628985"></polygon>
                        <polygon id="Path" fill="#C59FFC" points="8.59258276 0.0420930792 267.952662 18.2545397 308.908767 168.299112 436.989677 180.628985 205.767127 187.599181 41.4851605 180.628985"></polygon>
                        <path d="M309.177596,168.354016 L79.4989316,180.354465 L205.761751,185.714143 L436.989677,180.464273 L436.989677,184.289253 L207.361284,189.494676 L207.361284,212.915161 L205.767127,212.980523 L204.135335,212.917776 L204.135335,189.473761 L41.3792419,182.566312 C40.45447,182.527095 39.6829306,181.865633 39.5264721,180.979325 L8.59258276,0.0420930792 L12.4672158,0.314260132 L43.135502,178.811923 L45.2205401,178.900816 L308.072709,165.266318 C308.457134,166.685979 308.879196,168.231135 308.908767,168.299112 C308.914144,168.312184 309.008234,168.330485 309.177596,168.354016 Z" id="Path" fill="#FFFFFF"></path>
                        <polygon id="Path" fill="#FFFFFF" points="22.8047679 12.8308072 52.8579733 168.299112 295.886688 158.876537 259.00872 25.3604266"></polygon>
                        <g id="Group" transform="translate(42.475150, 187.504952)" fill="#FFAB82">
                            <path d="M23.5018416,15.0097123 C23.4631302,14.8659161 23.4448498,14.7142764 23.4499576,14.5574078 L23.8921814,1.35168459 C23.895945,1.24187656 23.9118059,1.13206853 23.9381511,1.02748945 L27.0971612,1.15559882 C27.113291,1.25233447 27.1200117,1.35168459 27.1165169,1.45626367 L26.6742931,14.6619869 C26.6683789,14.8397713 26.6323558,15.0070978 26.5710628,15.1665809 L23.5018416,15.0097123 Z M17.643519,14.7116619 C17.6228192,14.6018539 17.613679,14.4894314 17.6177115,14.3743944 L18.0599352,1.16867121 C18.0642365,1.03794736 18.0843987,0.91506694 18.1188088,0.794800999 L21.2557749,0.920295894 C21.2780877,1.0327184 21.2880344,1.15036987 21.284002,1.27063581 L20.8417782,14.476359 C20.8372081,14.6123118 20.8148953,14.7456501 20.7767216,14.871145 L17.643519,14.7116619 Z M11.7940679,14.4109971 C11.7857342,14.3404062 11.782777,14.2645864 11.7851965,14.1887665 L12.2274203,0.983043341 C12.2322592,0.836632631 12.2580668,0.695450874 12.3013483,0.562112549 L15.4125068,0.684992966 C15.4426156,0.813102338 15.4563259,0.94905514 15.4517558,1.08500794 L15.0095321,14.2907311 C15.0063061,14.3874668 14.99394,14.4815879 14.973509,14.5757091 L11.7940679,14.4109971 Z M5.9532192,14.1155612 C5.95160622,14.0789585 5.95160622,14.0423558 5.95295037,14.0057531 L6.39517415,0.800029953 C6.40055073,0.632703427 6.43200373,0.475834809 6.48576953,0.329424098 L9.5676257,0.452304516 C9.60633709,0.596100749 9.62461746,0.745125937 9.61924088,0.901994555 L9.1770171,14.1077177 C9.1751353,14.1652362 9.17002755,14.2227547 9.16169385,14.2776587 L5.9532192,14.1155612 Z M0.120435412,13.8175108 L0.562659191,0.614402088 C0.568842259,0.4313887 0.607015983,0.256218743 0.671534954,0.094121171 L3.72086281,0.217001589 C3.76925204,0.373870207 3.79264016,0.54381121 3.78699475,0.71636669 L3.34477098,13.9220899 C3.34396449,13.9430057 3.34288917,13.961307 3.34154503,13.9822228 L0.120435412,13.8175108 Z" id="Shape"></path>
                        </g>
                        <polygon id="Path-3" fill="#FFD7E2" points="36.8294835 29.1443802 251.161566 37.8094788 284.19834 159.27519 63.7600296 167.857929"></polygon>
                        <ellipse id="Oval" fill="#310CA3" cx="55.4266247" cy="44.9015265" rx="7.78721174" ry="6.66854354"></ellipse>
                        <ellipse id="Oval-Copy-12" fill="#FFF7F2" cx="91.6142558" cy="133.370871" rx="15.5744235" ry="13.3370871"></ellipse>
                        <polygon id="Path-4" fill="#310CA3" points="112.255736 44.6825812 138.772447 45.8067178 139.700743 50.7669866 113.203225 49.7856981"></polygon>
                        <polygon id="Path-4-Copy" fill="#310CA3" points="204.786134 44.6825812 231.302845 45.8067178 232.231141 50.7669866 205.733623 49.7856981"></polygon>
                        <polygon id="Path-4-Copy-2" fill="#310CA3" points="167.22429 58.9088074 193.741 60.0329441 194.669296 64.9932129 168.171779 64.0119243"></polygon>
                        <polygon id="Path-4-Copy-3" fill="#310CA3" points="62.784038 87.3612599 253.202011 88.3340121 254.257833 93.5852338 64.171219 92.7834243"></polygon>
                        <polygon id="Path-4-Copy-4" fill="#310CA3" points="64.6163232 95.3635121 255.034296 96.3362644 256.090118 101.587486 66.0035041 100.785677"></polygon>
                        <polygon id="Path-4-Copy-5" fill="#310CA3" points="67.3647508 103.365764 257.782724 104.338517 258.838545 109.589738 68.7519318 108.787929"></polygon>
                        <polygon id="Path-4-Copy-6" fill="#310CA3" points="182.798713 111.368017 260.241429 112.340769 261.483193 117.357973 184.309968 116.857951"></polygon>
                        <polygon id="Path-4-Copy-7" fill="#310CA3" points="185.547141 119.370269 262.989857 120.343021 264.231621 125.360225 187.058396 124.860203"></polygon>
                        <polygon id="Path-4-Copy-8" fill="#310CA3" points="188.295568 127.372521 265.738285 128.345273 266.980048 133.362478 189.806824 132.862456"></polygon>
                        <polygon id="Path-5" fill="#FFF7F2" points="103.691277 146.110487 153.912098 144.58732 120.342016 124.970869"></polygon>
                        <polygon id="Path-5-Copy" fill="#FFF7F2" points="128.781297 145.272939 177.917838 143.685458 145.077865 124.970869"></polygon>
                    </g>
                    <g id="Group" transform="translate(8.000000, 66.555775)" fill="#FFAB82">
                        <path d="M34.0595825,22.4269219 L44.189417,1.01353865 C44.4564966,0.448752254 45.0402335,0.0928273111 45.675947,0.106012174 C46.311927,0.120206153 46.879138,0.50116318 47.1203627,1.07690111 L55.3329279,20.6658105 L64.6593911,7.68484976 C65.0386868,7.15735074 65.709851,6.91120192 66.3500957,7.06530568 C66.990074,7.21940945 67.4679919,7.74221495 67.5535533,8.38157609 L70.5599317,30.8635165 C70.6745467,31.7198223 70.0569584,32.5057255 69.1816196,32.6178483 C68.3065473,32.7299712 67.5029095,32.1255507 67.388561,31.2695056 L64.9147427,12.7710563 L56.2701055,24.8028839 C55.9339903,25.2704102 55.3641138,25.5215133 54.7833089,25.4578901 C54.2027706,25.3942669 53.7037955,25.0258259 53.4820288,24.4967624 L45.5522694,5.58267621 L36.2210084,25.3079583 C36.0314938,25.7087324 35.67752,26.0122464 35.2467808,26.1441864 C34.815775,26.2758656 34.3479859,26.2231939 33.9588279,25.9992089 L18.6316027,17.1800928 L18.6316027,35.437869 C18.6316027,35.9098281 18.4138341,36.3564944 18.0390697,36.6534896 C17.6640387,36.9507456 17.1722604,37.0662582 16.7002065,36.9682159 L5.62359875,34.6678717 L18.3061493,51.0159085 C18.8397755,51.7037693 18.7022375,52.6860178 17.9990877,53.2080411 C17.295938,53.7300643 16.2921237,53.5952561 15.7584976,52.9076561 L0.477118294,33.2100136 C0.0733002966,32.6895548 0.0426474453,31.9779657 0.400619439,31.4262168 C0.758591433,30.8742072 1.4297556,30.5980721 2.0833277,30.7339233 L15.4330443,33.5062266 L15.4330443,14.4448162 C15.4330443,13.8836803 15.7403724,13.3653075 16.2382813,13.0868256 C16.7361903,12.8080829 17.3487142,12.8117334 17.843158,13.0962126 L34.0595825,22.4269219 Z" id="Path"></path>
                    </g>
                    <g id="Group" transform="translate(177.000000, 86.925144) scale(-1, 1) translate(-177.000000, -86.925144) translate(145.000000, 73.345564)" fill="#FFDD82">
                        <path d="M0.205067159,7.29717209 L5.68413012,26.4195393 L12.7959768,26.2271304 L10.9864664,5.10396705 L0.205067159,7.29717209 Z M54.4778153,7.29717209 L47.978229,23.351002 L54.4778153,26.4195393 L63.0066841,10.786187 L54.4778153,7.29717209 Z M26.6712967,0.00897908252 L26.6461646,21.5633949 L34.0967598,21.5633949 L36.8051435,1.40330232 L26.6712967,0.00897908252 Z" id="Shape"></path>
                    </g>
                </g>
            </g>
        </g>
    </g>
</svg>