<?xml version="1.0" encoding="UTF-8"?>
<svg width="438px" height="343px" viewBox="0 0 438 343" version="1.1" xmlns="http://www.w3.org/2000/svg" xmlns:xlink="http://www.w3.org/1999/xlink">
    <title>5EA354DA-5CD8-4736-A7D8-E1D677F43BAD</title>
    <g id="Tikui" stroke="none" stroke-width="1" fill="none" fill-rule="evenodd">
        <g id="Home" transform="translate(-832.000000, -884.000000)">
            <g id="SECTION-1" transform="translate(104.000000, 885.404220)">
                <g id="illu" transform="translate(729.000000, 0.578807)">
                    <g id="9_BLM_SIGNS">
                        <g id="SIGN-5" transform="translate(317.747360, 104.873480)">
                            <polygon id="Path" stroke="#310CA3" stroke-width="2" fill="#FFF1EB" points="21.1371043 0.42410465 0.269746894 77.9132843 94.887591 101.378502 117.206337 22.7159423"></polygon>
                            <g id="ARM" transform="translate(8.242641, 124.292212)" fill="#310CA3">
                                <g id="Group" transform="translate(3.928002, 0.155421)">
                                    <path d="M4.34929401,10.4524933 C3.56515478,8.38909454 3.70883247,6.05707365 4.82172573,4.06499055 C6.29990124,1.41918091 9.21485361,-0.147385622 12.2929654,0.0475437492 C13.9659581,0.154517185 15.957964,0.475437492 18.1569631,1.20523404 C18.6610526,1.37401435 18.9313615,1.90888153 18.7584612,2.40095933 C18.5879962,2.89303714 18.0376376,3.15690495 17.5335481,2.98812464 C15.5220605,2.32013496 13.7005197,2.02536372 12.1663342,1.93027622 C9.83826865,1.78051341 7.63439907,2.96672995 6.51663538,4.9659446 C5.39887168,6.96753644 5.57420717,9.41841671 6.96227972,11.2464739 C11.2263412,16.8257328 22.1117523,20.1514181 22.1117523,20.1514181 C22.618277,20.3106896 22.900762,20.8384253 22.7400378,21.3352574 C22.5793136,21.8320896 22.0362607,22.1054662 21.5273007,21.9485718 C21.5273007,21.9485718 9.96246462,18.3257381 5.41348297,12.3708835 C5.36234346,12.3043223 5.31363916,12.2353839 5.26493486,12.1688226 C3.93043703,13.3502848 3.22422468,14.5650276 3.02940748,15.7987879 C2.70795909,17.8146428 3.71126768,19.8257434 5.22110099,21.6965899 C9.34148479,26.7980342 17.3362957,30.8107267 17.3362957,30.8107267 C17.8087274,31.0484454 17.9938037,31.6165932 17.7502822,32.0801448 C17.5067607,32.5413191 16.9247443,32.7219854 16.4498774,32.4842666 C16.4498774,32.4842666 8.37470443,28.4050129 3.96696526,23.1799549 C3.95478918,23.1989724 3.94017789,23.2179899 3.9255666,23.2370074 C2.68604216,24.753653 2.11133142,26.2298864 2.05045104,27.6538217 C1.95791287,29.8218167 3.03671312,31.8400488 4.57089858,33.6348254 C8.68397674,38.4438756 16.1089473,41.6625874 16.1089473,41.6625874 C16.5935551,41.8741571 16.8127245,42.4327961 16.5959903,42.9082336 C16.3792562,43.3836711 15.8094159,43.5952408 15.3223729,43.3836711 C15.3223729,43.3836711 7.97532917,40.1744681 3.54080263,35.3511547 C2.76640425,36.8796862 3.34355021,38.7077434 4.4442674,40.566704 C7.79755847,46.2315417 16.2745419,52.0699141 16.2745419,52.0699141 C16.7080102,52.3694397 16.8102892,52.9589822 16.5034521,53.3821216 C16.1941798,53.8076381 15.5926817,53.90748 15.1567782,53.6079544 C15.1567782,53.6079544 12.8944635,52.0366335 10.2011157,49.7164985 L6.91601064,69.1737779 C6.8283429,69.6848732 6.33155903,70.0343197 5.80555259,69.948741 C5.27954615,69.8655394 4.92400476,69.3805932 5.0116725,68.8671207 L8.45750174,48.4589664 C8.47211303,48.3757648 8.49646518,48.2973176 8.53055819,48.2236248 C6.36078161,46.210147 4.15447681,43.8448455 2.7737099,41.5104474 C1.12750455,38.7291381 0.657508054,35.9811094 2.25744432,33.7869654 C0.87911262,31.8828382 0.0267873651,29.7837817 0.121760751,27.5753745 C0.197252416,25.8019927 0.87424219,23.9477865 2.41573329,22.0626768 C2.53992926,21.9105368 2.70308866,21.8059406 2.88085936,21.7512653 C1.52200938,19.744919 0.786574449,17.6149591 1.12019891,15.5111482 C1.39050777,13.8185907 2.34024163,12.1165245 4.28354321,10.5024142 C4.30546014,10.4857739 4.32737708,10.4691336 4.34929401,10.4524933 Z M32.1813664,4.17196399 C32.1813664,4.17196399 32.6197051,4.27656024 33.3478344,4.45247211 C41.0138913,6.29716958 46.4030221,13.010347 46.4030221,20.7195659 L46.4030221,66.233197 C46.4030221,66.7514238 46.8364903,67.1745632 47.3673672,67.1745632 C47.9006793,67.1745632 48.3341476,66.7514238 48.3341476,66.233197 L48.3341476,20.7195659 C48.3341476,12.1426735 42.3386482,4.67355054 33.80809,2.62203777 C33.082396,2.44850308 32.6440573,2.34152965 32.6440573,2.34152965 C32.1277917,2.2179159 31.6042204,2.52695027 31.475154,3.03091401 C31.3485229,3.53725494 31.6651008,4.04835024 32.1813664,4.17196399 Z M13.3230613,6.42316051 C13.3230613,6.42316051 26.7800595,11.2702457 33.6230137,9.95803827 C34.1465849,9.85819639 34.487515,9.3637414 34.385236,8.8526461 C34.282957,8.34155079 33.773997,8.00874455 33.252861,8.10858642 C30.6885796,8.60066423 27.1380361,8.13948986 23.7969211,7.43584237 C18.6513118,6.35184489 13.9976159,4.65691023 13.9976159,4.65691023 C13.4983968,4.47624399 12.9407326,4.72347148 12.7556562,5.21079491 C12.5681447,5.69811834 12.8238423,6.24011708 13.3230613,6.42316051 Z" id="Shape"></path>
                                </g>
                                <g id="Group" transform="translate(0.076322, 65.808027)">
                                    <polygon id="Path" points="0.143334583 42.4105589 4.83207604 0.141010029 62.5351782 0.141010029 56.9499882 42.4105589"></polygon>
                                </g>
                            </g>
                            <g id="SIGN" transform="translate(28.403224, 86.750457)" fill="#310CA3">
                                <path d="M0.0297845529,43.1162591 L9.85831235,0.600261444 L25.1733796,3.97349045 L15.4593069,45.9879016 C13.1141948,46.1138925 10.2698637,45.7026391 7.5643398,45.1321141 C4.63964657,44.5164226 1.87324232,43.7034245 0.0297845529,43.1162591 Z" id="Path"></path>
                            </g>
                        </g>
                        <g id="SIGN-4" transform="translate(57.676914, 0.000000)">
                            <g id="Group" transform="translate(61.300335, 210.659089)" fill="#FFF1EB" stroke="#310CA3" stroke-width="2">
                                <path d="M0.193202769,87.6909049 L0.88516667,35.2990434 L15.4806467,27.5194372 C15.4806467,27.5194372 14.6306522,-3.60136182 22.8643631,0.439190466 C22.8643631,0.439190466 25.8881941,7.95053443 27.1680708,11.8486466 C27.1680708,11.8486466 30.9026731,21.2829326 34.8106937,26.9425546 C34.8106937,26.9425546 41.6448447,40.3960268 42.7781707,67.2507433 L42.7781707,87.0950303 L0.193202769,87.6909049 Z" id="Path"></path>
                            </g>
                            <path d="M61.2426918,275.888654 C62.1237939,275.729596 61.9691462,294.555436 61.697538,297.753217" id="Path" stroke="#000000" stroke-width="0.5"></path>
                            <g id="Group">
                                <polygon id="Path" stroke="#310CA3" stroke-width="2" fill="#FFF1EB" points="10.1541152 0.743186649 145.331571 11.8907903 135.185129 124.81117 0.541361502 110.339013"></polygon>
                                <g transform="translate(58.614614, 117.995526)" fill="#310CA3" id="Rectangle">
                                    <g transform="translate(13.391773, 80.052971) rotate(2.955280) translate(-13.391773, -80.052971) translate(4.891773, 0.389153)">
                                        <rect x="0.0729692399" y="0.0942478924" width="16.3760537" height="159.139109"></rect>
                                    </g>
                                </g>
                            </g>
                            <g id="Group" transform="translate(51.254280, 210.029076)">
                                <g transform="translate(2.962768, 15.111428)" fill="#FFF1EB" id="Path" stroke="#310CA3" stroke-width="2">
                                    <path d="M13.0425303,1.06592713 C13.0425303,1.06592713 6.45409605,-2.14847228 6.28067764,3.89336413 L10.2309537,10.393383 C10.2309537,10.393383 4.17865105,9.44853001 4.28709862,14.0137369 C4.28709862,14.0137369 4.66715363,16.1622091 7.48703475,20.0626953 L8.50043335,21.653277 C8.50043335,21.653277 0.899333245,18.7474979 2.21413793,26.1781257 L5.90135539,31.092311 C5.90135539,31.092311 -1.07299591,30.6080144 0.170975902,34.9999191 L8.19853876,46.9411518 C8.19853876,46.9411518 11.3115214,45.8562326 11.1715654,43.3136759 L7.92058079,34.0265781 C7.92058079,34.0265781 14.4037427,36.751933 14.1826953,30.9237568 L11.1715654,25.6249832 C11.1715654,25.6249832 17.7814938,23.9964174 15.6450278,19.1297123 L13.0425303,13.6932465 C13.0425303,13.6932465 20.0115081,13.6315224 17.5494551,8.14520263 L13.0425303,1.06592713 Z"></path>
                                </g>
                                <g transform="translate(14.443131, 20.100255) rotate(-31.756831) translate(-14.443131, -20.100255) translate(9.443131, 12.813930)" fill="#310CA3" id="Path">
                                    <path d="M9.42736163,4.74562833 C9.42736163,2.22443909 7.32216097,0.178050087 4.72943502,0.178050087 C2.13670906,0.178050087 0.0317526495,2.22443909 0.0317526495,4.74562833 C0.0317526495,4.74562833 0.0317526495,13.1044864 0.0317526495,13.1044864 C0.0317526495,13.6291407 0.46945071,14.0540869 1.00875725,14.0540869 C1.54806379,14.0540869 1.98576185,13.6291407 1.98576185,13.1044864 L1.98576185,4.74562833 C1.98576185,3.27374761 3.21507789,2.07725102 4.72943502,2.07725102 C6.24379214,2.07725102 7.47335243,3.27374761 7.47335243,4.74562833 C7.47335243,5.26790859 7.91105049,5.6952288 8.45035703,5.6952288 C8.98941932,5.6952288 9.42736163,5.26790859 9.42736163,4.74562833 Z"></path>
                                </g>
                                <g transform="translate(16.371428, 23.128137) rotate(-31.756831) translate(-16.371428, -23.128137) translate(11.371428, 15.841812)" fill="#310CA3" id="Path">
                                    <path d="M0.0317526495,9.54348469 C0.0317526495,12.0646739 2.13670906,14.1110629 4.72943502,14.1110629 C7.32216097,14.1110629 9.42736163,12.0646739 9.42736163,9.54348469 C9.42736163,9.54348469 9.42736163,1.18462658 9.42736163,1.18462658 C9.42736163,0.659972324 8.98941932,0.235026115 8.45035703,0.235026115 C7.91105049,0.235026115 7.47335243,0.659972324 7.47335243,1.18462658 L7.47335243,9.54348469 C7.47335243,11.0153654 6.24379214,12.211862 4.72943502,12.211862 C3.21507789,12.211862 1.98576185,11.0153654 1.98576185,9.54348469 C1.98576185,9.02120443 1.54806379,8.59388422 1.00875725,8.59388422 C0.46945071,8.59388422 0.0317526495,9.02120443 0.0317526495,9.54348469 Z"></path>
                                </g>
                                <g transform="translate(12.572166, 31.140791) rotate(-31.756831) translate(-12.572166, -31.140791) translate(7.572166, 23.854466)" fill="#310CA3" id="Path">
                                    <path d="M9.42736163,4.74562833 C9.42736163,2.22443909 7.32216097,0.178050087 4.72943502,0.178050087 C2.13670906,0.178050087 0.0317526495,2.22443909 0.0317526495,4.74562833 L0.0317526495,13.1044864 C0.0317526495,13.6291407 0.46945071,14.0540869 1.00875725,14.0540869 C1.54806379,14.0540869 1.98576185,13.6291407 1.98576185,13.1044864 L1.98576185,4.74562833 C1.98576185,3.27374761 3.21507789,2.07725102 4.72943502,2.07725102 C6.24379214,2.07725102 7.47335243,3.27374761 7.47335243,4.74562833 C7.47335243,5.26790859 7.91105049,5.6952288 8.45035703,5.6952288 C8.98941932,5.6952288 9.42736163,5.26790859 9.42736163,4.74562833 Z"></path>
                                </g>
                                <g transform="translate(14.500463, 34.168673) rotate(-31.756831) translate(-14.500463, -34.168673) translate(9.500463, 26.882348)" fill="#310CA3" id="Path">
                                    <path d="M0.0317526495,9.54348469 C0.0317526495,12.0646739 2.13670906,14.1110629 4.72943502,14.1110629 C7.32216097,14.1110629 9.42736163,12.0646739 9.42736163,9.54348469 C9.42736163,9.54348469 9.42736163,1.18462658 9.42736163,1.18462658 C9.42736163,0.659972324 8.98941932,0.235026115 8.45035703,0.235026115 C7.91105049,0.235026115 7.47335243,0.659972324 7.47335243,1.18462658 L7.47335243,9.54348469 C7.47335243,11.0153654 6.24379214,12.211862 4.72943502,12.211862 C3.21507789,12.211862 1.98576185,11.0153654 1.98576185,9.54348469 C1.98576185,9.02120443 1.54806379,8.59388422 1.00875725,8.59388422 C0.46945071,8.59388422 0.0317526495,9.02120443 0.0317526495,9.54348469 Z"></path>
                                </g>
                                <g transform="translate(10.235866, 40.992471) rotate(-31.756831) translate(-10.235866, -40.992471) translate(5.235866, 34.191901)" fill="#310CA3" id="Path">
                                    <path d="M9.42736163,4.74562833 C9.42736163,2.22443909 7.32216097,0.178050087 4.72943502,0.178050087 C2.13670906,0.178050087 0.0317526495,2.22443909 0.0317526495,4.74562833 C0.0317526495,4.75987234 0.152168466,12.4278961 0.152168466,12.4278961 C0.160473005,12.9501764 0.605010098,13.3703746 1.14407239,13.3608786 C1.68313467,13.3537566 2.11423795,12.9216883 2.10593341,12.3970341 L1.9855176,4.72901032 C1.98576185,3.27374761 3.21507789,2.07725102 4.72943502,2.07725102 C6.24379214,2.07725102 7.47335243,3.27374761 7.47335243,4.74562833 C7.47335243,5.26790859 7.91105049,5.6952288 8.45035703,5.6952288 C8.98941932,5.6952288 9.42736163,5.26790859 9.42736163,4.74562833 Z"></path>
                                </g>
                                <g transform="translate(12.427502, 44.433385) rotate(-31.756831) translate(-12.427502, -44.433385) translate(7.427502, 37.147061)" fill="#310CA3" id="Path">
                                    <path d="M0.152168466,8.85265035 C0.152168466,10.2889211 0.819706859,11.8628838 1.88684013,12.8932003 C2.6660013,13.6457587 3.64935643,14.1110629 4.72943502,14.1110629 C7.32216097,14.1110629 9.42736163,12.0646739 9.42736163,9.54348469 C9.42736163,9.54348469 9.42736163,1.18462658 9.42736163,1.18462658 C9.42736163,0.659972324 8.98941932,0.235026115 8.45035703,0.235026115 C7.91105049,0.235026115 7.47335243,0.659972324 7.47335243,1.18462658 L7.47335243,9.54348469 C7.47335243,11.0153654 6.24379214,12.211862 4.72943502,12.211862 C4.16668037,12.211862 3.66938502,11.9364779 3.26343961,11.5447677 C2.55218027,10.8586813 2.10617767,9.80937282 2.10617767,8.85265035 C2.10617767,8.32799609 1.6684796,7.90304988 1.12917307,7.90304988 C0.589866527,7.90304988 0.152168466,8.32799609 0.152168466,8.85265035 Z"></path>
                                </g>
                                <g transform="translate(7.641042, 50.431792) rotate(-31.756831) translate(-7.641042, -50.431792) translate(2.641042, 44.602732)" fill="#310CA3" id="Path">
                                    <path d="M9.42662888,4.69577431 C9.55388373,5.99435295 9.23464747,8.57726621 8.7620215,10.7091193 C8.64844471,11.2219035 8.12843402,11.5471417 7.60109578,11.4379376 C7.0740018,11.3263596 6.73840072,10.8230713 6.85197751,10.3102871 C7.28356929,8.36360611 7.6054923,6.00147495 7.47872596,4.84533638 C7.47506219,4.81210036 7.47335243,4.77886435 7.47335243,4.74562833 C7.47335243,3.27374761 6.24379214,2.07725102 4.72943502,2.07725102 C3.21507789,2.07725102 1.98576185,3.27374761 1.98576185,4.74562833 C1.98576185,5.26790859 1.54806379,5.6952288 1.00875725,5.6952288 C0.46945071,5.6952288 0.0317526495,5.26790859 0.0317526495,4.74562833 C0.0317526495,2.22443909 2.13670906,0.178050087 4.72943502,0.178050087 C7.30506339,0.178050087 9.399517,2.19832508 9.42662888,4.69577431 Z"></path>
                                </g>
                                <g transform="translate(10.193757, 55.366683) rotate(-31.756831) translate(-10.193757, -55.366683) translate(5.693757, 47.594604)" fill="#310CA3" id="Path">
                                    <path d="M0.0317526495,1.18462658 L0.0317526495,9.54348469 C0.0317526495,10.8373153 0.0053735253,12.3661721 0.340486103,13.4083586 C0.682926215,14.4742851 1.35828064,15.1318834 2.4224829,15.2031035 C3.07561048,15.2458355 3.91485743,14.9585813 4.76436293,14.274869 C6.29923716,13.0427624 8.03146631,10.4432311 8.7620215,7.14811751 C8.87559828,6.63533326 8.5399972,6.12967101 8.01290322,6.02046696 C7.48580924,5.9088889 6.96555429,6.23650106 6.85197751,6.74928532 C6.31731174,9.1588965 5.18496341,11.1483095 4.04357779,12.3305621 C3.70626695,12.6795402 3.37310838,12.9525504 3.05680314,13.1306005 C2.86995101,13.2374305 2.70556999,13.3181465 2.55486703,13.3086505 C2.43713797,13.3015285 2.37412118,13.2160645 2.32038592,13.1187304 C2.21706769,12.9311844 2.15478364,12.6985322 2.10739892,12.4397661 C1.94765867,11.5756297 1.98576185,10.4883372 1.98576185,9.54348469 C1.98576185,9.54348469 1.98576185,1.18462658 1.98576185,1.18462658 C1.98576185,0.659972324 1.54806379,0.235026115 1.00875725,0.235026115 C0.46945071,0.235026115 0.0317526495,0.659972324 0.0317526495,1.18462658 Z"></path>
                                </g>
                                <path d="M27.1602548,41.5592881 C23.7700469,34.3162064 24.4488213,25.1644267 25.0294066,17.4204305 C25.3571918,13.0451438 25.7887838,8.64849117 26.8385759,4.37291264 C27.0879564,3.35921356 27.5476374,2.01790214 28.3431638,1.15851323 C29.0133893,0.432068458 29.894648,0.00237400252 31.042629,0.144814153 C32.0276945,0.268262284 32.8625454,0.757306803 33.5498685,1.45051554 C34.4328369,2.34314048 35.0644708,3.5823698 35.487514,4.59844287 C37.3233067,9.01171355 38.1530283,13.4534723 40.5256853,17.7171808 C43.5732087,23.1963786 46.9001555,28.5331362 48.8431745,34.5085006 C54.1856829,50.934224 54.0054255,74.3395148 53.6419795,91.3611128 C53.630744,91.8833934 53.1840084,92.3012178 52.6449458,92.2895946 C52.1056389,92.2798518 51.6772222,91.8454094 51.6882135,91.3207548 C52.0479956,74.4843289 52.2648908,51.3306824 46.9800256,35.0806352 C45.0746213,29.221597 41.7955478,23.9940434 38.806889,18.6216757 C36.3983271,14.2914951 35.5392953,9.79038638 33.6759022,5.31064363 C33.3884184,4.6198089 32.9959066,3.79603002 32.4544015,3.11943931 C32.0174359,2.57579273 31.4878991,2.11523624 30.7939812,2.02739815 C30.2236545,1.95617807 29.8501943,2.30040844 29.5658858,2.72060688 C29.1377132,3.35209155 28.896393,4.17587043 28.7393394,4.8144771 C27.7139725,8.99034753 27.2982568,13.2849181 26.9782876,17.5581226 C26.4296992,24.8747984 25.7047614,33.5066715 28.7735346,40.4102708 L28.8570685,40.3651648 C29.9752509,39.7787862 31.1955304,39.5342639 32.4495165,39.8879903 C34.6216432,40.4957349 35.1375019,42.5065151 34.5937985,44.0899747 C34.2120338,45.2010079 33.3029305,46.0509008 32.1803515,46.1648529 C31.4986462,46.233699 30.700433,46.0461528 29.8687573,45.3766841 C29.3653554,44.9731037 28.9159331,44.4911812 28.5422286,43.9712746 C28.3866405,43.7552404 28.2386242,43.5320841 28.0976913,43.3065539 C27.5933123,43.7908504 27.1475537,44.308383 26.7760475,44.7689395 C26.339082,45.310212 25.9387541,45.8894686 25.6102361,46.4995873 C25.5220614,46.6633935 25.4653951,47.0645999 25.3999358,47.2568941 C25.3181116,47.4966683 25.199894,47.6533525 25.1234433,47.7293206 C24.7658594,48.094917 24.3755459,48.102039 24.0291975,47.9690948 C23.872144,47.9073708 23.5678069,47.7696786 23.4173481,47.3043741 C23.311343,46.9743878 23.3995177,46.6301574 23.6188554,46.3903832 C23.6901767,46.1339909 23.8008226,45.7636465 23.8794715,45.6164584 C24.2631903,44.9066316 24.7289775,44.2276669 25.2392184,43.5961822 C25.7616719,42.9504535 26.4157769,42.2121387 27.1602548,41.5592881 Z M29.6418479,42.1148046 C29.7986572,42.3783189 29.9654809,42.6347112 30.1442728,42.8839815 C30.4178342,43.2638219 30.7458637,43.6175482 31.1144389,43.9142985 C31.4336754,44.1706908 31.7162741,44.301261 31.9781115,44.2751469 C32.365494,44.2371629 32.6085241,43.8715665 32.7401755,43.4893521 C32.9665964,42.8293794 32.8114969,41.9652425 31.9072786,41.7112242 C31.1093096,41.488068 30.3450474,41.7112242 29.6418479,42.1148046 Z" id="Shape" fill="#310CA3"></path>
                            </g>
                            <rect id="Rectangle" fill="#310CA3" x="59.2806212" y="294.826072" width="52.2580517" height="41.739"></rect>
                        </g>
                        <g id="SIGN-3" transform="translate(148.911304, 63.127726)">
                            <g id="Sign">
                                <path d="M16.2108504,0.518225446 L0.721821008,106.398305 L124.739216,122.923876 L137.549507,17.8768465 C137.549507,17.8768465 97.103288,12.0906395 16.2108504,0.518225446 Z" id="Path" stroke="#310CA3" stroke-width="2" fill="#FFF1EB"></path>
                                <g id="Group" transform="translate(55.635333, 113.747861)" fill="#310CA3">
                                    <g transform="translate(11.484136, 52.825585) rotate(-1.924108) translate(-11.484136, -52.825585) translate(2.484136, 0.849802)" id="Path">
                                        <polygon points="17.6417239 2.43309581 0.201738763 0.154444558 0.201738763 103.178469 17.4946483 103.178469"></polygon>
                                    </g>
                                </g>
                            </g>
                            <g id="HAND" transform="translate(34.525449, 138.929087)">
                                <path d="M1.92031804,100.605203 C1.92031804,100.605203 1.09252713,25.0509118 13.3799643,16.1525276 C13.3799643,16.1525276 21.9944316,6.72190359 26.1346118,1.76304435 C26.1346118,1.76304435 34.766238,-4.23653379 33.1533081,7.14246808 C33.1533081,7.14246808 32.3338514,18.0795208 26.1346118,24.6493559 C26.1346118,24.6493559 30.8858914,28.7076844 24.6449804,46.5733589 L25.6803931,77.8471995 L42.6274327,77.6262249 L41.4557298,59.3148384 C41.4557298,59.3148384 36.8301999,55.1485975 41.4557298,50.0543022 C41.4557298,50.0543022 35.8251828,46.3119911 41.4557298,42.0374402 C41.4557298,42.0374402 34.2392168,39.5259336 39.2299847,33.3457741 C39.2299847,33.3457741 29.408026,29.130625 39.2299847,21.353746 C39.2299847,21.353746 46.2724582,14.6104578 49.3120221,18.1270422 C50.5793241,19.5930778 51.5176096,23.4003874 48.4045078,26.7173819 C48.4045078,26.7173819 54.5920388,27.4788631 51.047515,35.5004772 C52.1996078,34.9373485 57.9380851,38.5694653 52.4766751,44.181744 C52.4766751,44.181744 61.3913349,46.2435335 49.4365339,56.1897649 L51.047515,100.845186 L1.92031804,100.605203 Z" id="Path" stroke="#FFF1EB" stroke-width="2" fill="#310CA3"></path>
                                <g id="Group" transform="translate(37.303774, 25.336668)" fill="#FFF1EB">
                                    <path d="M13.1583703,0.995573561 C12.6068365,0.572633003 11.9425447,0.297008819 11.1752999,0.144940304 L1.94630141,8.00735776 C0.725573323,9.52329077 0.235321078,10.7232064 0.210808465,11.8470878 L13.1583703,0.995573561 Z" id="Path"></path>
                                </g>
                                <path d="M53.1531484,35.2395024 C52.7045676,34.7452797 52.12607,34.3959973 51.2950924,34.3152109 C51.2950924,34.3152109 51.0499663,34.5338094 50.9200494,34.6478608 C48.8732463,36.4441701 45.8263286,39.0031981 42.9730605,40.9468238 C42.4460394,41.3032344 41.5170114,41.9257649 41.5170114,41.9257649 C40.3673699,42.9641077 39.4015729,43.9287924 39.0608476,45.2094944 C39.0608476,45.2094944 42.2229746,43.7790999 44.0981894,42.50315 C47.3166954,40.312413 50.775425,37.3565812 52.839387,35.5222547 C52.9472425,35.4248359 53.1531484,35.2395024 53.1531484,35.2395024 Z" id="Path" fill="#FFF1EB"></path>
                                <g id="Group" transform="translate(41.420910, 54.318985)" fill="#FFF1EB">
                                    <path d="M0.134819367,5.88913376 L0.0147075674,4.11183299 C0.0147075674,4.11183299 0.330920265,4.09044835 0.465739633,4.078568 C1.4094752,3.98114911 2.69148483,3.78631132 3.92201796,3.38950754 C5.00547542,3.0378491 5.61245125,2.4464048 6.97535249,1.41281411 C7.0635979,1.34866021 7.82293245,0.729923565 7.82293245,0.729923565 L8.01562421,3.46078966 C8.01562421,3.46078966 7.72392412,3.6508753 7.57929971,3.74116598 C6.42475567,4.46349143 5.32413938,4.95058589 4.29215841,5.25472292 C2.95622104,5.6515267 1.64234502,5.80121915 0.556436298,5.84161235 C0.404458102,5.84874056 0.134819367,5.88913376 0.134819367,5.88913376 Z" id="Path"></path>
                                </g>
                                <path d="M54.0012848,44.1450148 C53.4571048,43.7529631 52.8246794,43.4298175 52.0672397,43.2040908 C52.0672397,43.2040908 51.7583808,43.4345697 51.5941463,43.5557493 C49.1477876,45.3686911 45.2355747,48.1296851 41.879798,49.8856012 C41.7768451,49.9402509 41.5733904,50.044798 41.5733904,50.044798 C40.8110481,50.5794138 40.0021319,51.8815005 39.6246377,52.9887494 C39.6246377,52.9887494 39.908984,52.8675698 40.1075362,52.7915355 C44.3433156,51.1663033 50.6945334,46.6161282 53.6286931,44.4253911 C53.7586099,44.3255961 54.0012848,44.1450148 54.0012848,44.1450148 Z" id="Path" fill="#FFF1EB"></path>
                                <path d="M24.6337046,46.4355468 L24.8589755,53.3380317 C24.3238651,54.8658451 23.503428,55.8566665 22.4996365,57.154001 C22.0245821,57.7670272 21.3124907,58.4917288 20.5185272,58.8410111 C19.8260459,59.1475242 19.0754697,59.2045499 18.314108,58.8528915 C17.6473649,58.5440023 17.2225614,58.1234378 16.9651789,57.6553519 C16.5916067,56.9781718 16.5678295,56.1679318 16.8335462,55.3291789 C17.3627735,53.6564252 19.1097874,51.8577398 20.1733896,51.2898589 C21.1708078,50.7552431 22.2873573,50.4724907 23.4468039,50.384576 C23.6149604,49.8190713 23.7779693,49.2535665 23.9500478,48.697566 C24.1012906,48.2080954 24.459665,46.9178891 24.6337046,46.4355468 Z M22.8165846,52.3614667 C22.2223989,52.4778942 21.6519904,52.6679798 21.1215375,52.9531083 C20.3508609,53.3665446 19.0916481,54.6733834 18.7082708,55.8851794 C18.6085045,56.2011968 18.5545767,56.5053338 18.695034,56.7619494 C18.7803379,56.916394 18.9394247,57.0351975 19.1607736,57.1373686 C19.4240391,57.2609242 19.6752934,57.1468728 19.9037509,57.0066847 C20.3182592,56.7524451 20.6709957,56.3485131 20.9308294,56.0134872 C21.785339,54.9086144 22.3569731,53.6588013 22.8165846,52.3614667 Z" id="Shape" fill="#FFF1EB"></path>
                                <polygon id="Path" fill="#310CA3" points="0.554965541 134.065029 0.152713574 100.64322 51.9961531 100.857067 52.7879105 134.065029"></polygon>
                            </g>
                        </g>
                        <g id="SIGN-2" transform="translate(0.000000, 91.637022)">
                            <g id="SIGN1">
                                <polygon id="Path" stroke="#310CA3" stroke-width="2" fill="#FFF1EB" points="0.219618533 26.0932661 109.237282 0.70681587 126.350447 90.8691986 20.4847967 115.513908"></polygon>
                                <g id="SIGN2">
                                    <g id="Group" transform="translate(85.180727, 154.424987) rotate(-15.443565) translate(-85.180727, -154.424987) translate(77.180727, 101.963448)" fill="#310CA3">
                                        <rect id="Rectangle" x="0.0384948121" y="0.110951502" width="15.2216333" height="104.695317"></rect>
                                    </g>
                                    <polyline id="Path" stroke="#3C6DC0" stroke-width="0.5" points="108.749729 0.012829599 0.165445962 25.4705554 21.2397964 114.893811"></polyline>
                                    <polyline id="Path" stroke="#3C6DC0" stroke-width="0.5" points="21.2397964 114.893811 127.179629 90.702889 108.749729 0.012829599"></polyline>
                                </g>
                            </g>
                            <g id="HAND1" transform="translate(50.024221, 141.125589)">
                                <path d="M9.94408317,83.6442337 C9.94408317,83.6442337 -2.91287381,12.6870479 15.8581663,5.09145012 C17.1151163,4.58301786 18.5372683,3.74671808 23.853501,2.33783804 L25.8181108,8.59820718 L40.6135673,6.02040812 L38.8483224,0.0593962916 C38.8483224,0.0593962916 50.2843474,0.914702891 52.2294356,4.30741907 C52.2294356,4.30741907 55.7138056,9.92562223 52.2294356,13.4418827 C52.2294356,13.4418827 58.7228236,17.9206364 53.9122016,24.734579 C54.5871626,24.9982985 59.5258953,28.3827934 54.0398244,36.8123151 C54.0398244,36.8123151 57.9614793,40.9264208 49.7728803,47.1867899 C41.5842813,53.4447832 38.5645883,55.229716 38.5645883,55.229716 L43.0642661,65.4166997 L48.4871358,63.9104098 L49.6952817,80.3156655 C49.6952817,80.3156655 9.45091755,79.3486939 9.94408317,83.6442337 Z" id="Path" stroke="#310CA3" stroke-width="2" fill="#FFF1EB"></path>
                                <g id="Group" transform="translate(21.261514, 3.956696)" fill="#310CA3">
                                    <path d="M18.3049607,50.3918138 C18.3049607,50.3918138 13.3945344,52.7177726 10.5153354,54.0838873 C10.1031846,54.2787071 9.84671895,54.6921053 9.86062813,55.1363896 C9.8745373,55.5830497 10.155893,55.9798169 10.5795128,56.1508783 C13.1619827,57.1986288 16.2844702,57.4932344 20.1456081,56.956292 L18.3049607,50.3918138 Z M16.9835892,42.5182414 C16.9835892,42.5182414 25.1724323,39.1896732 31.6262889,35.1626046 C32.1223828,34.8537439 32.6084718,34.5401315 33.0801636,34.2217674 C33.1358003,34.1837538 33.191437,34.148116 33.2465856,34.1101024 C33.3285766,34.0530819 33.5960231,33.8962757 33.5960231,33.8962757 C33.4818215,32.8366459 33.1021255,31.9195671 32.6267733,31.0523813 C32.6267733,31.0523813 32.4542508,31.168798 32.3390731,31.249577 C32.137268,31.3921281 31.8237016,31.6130823 31.6262889,31.74613 C30.2836876,32.6537053 28.8019946,33.539898 27.3081005,34.3761977 C21.6951388,37.5146978 15.8559701,39.8857978 15.8559701,39.8857978 C15.1102431,40.1899068 14.7573894,41.0262066 15.0685156,41.7508413 C15.3798859,42.4778519 16.2378623,42.8199746 16.9835892,42.5182414 Z M16.0338611,31.3992556 C16.0338611,31.3992556 24.2224601,28.0706874 30.6763167,24.0459947 C31.7592801,23.368877 32.7927073,22.6727524 33.736091,21.9671245 C33.9884082,21.7770564 34.4183725,21.4753232 34.4183725,21.4753232 C33.9874322,20.5891305 33.3168636,19.9025094 32.3834848,19.4297149 C32.3834848,19.4297149 31.9886595,19.6981862 31.7546437,19.8692475 C30.1519165,21.0429182 28.2649052,22.1904546 26.3581283,23.257212 C20.7454107,26.395712 14.9062419,28.7691878 14.9062419,28.7691878 C14.160515,29.070921 13.8076612,29.9072208 14.1187875,30.6318555 C14.4299137,31.3588661 15.2881341,31.7033646 16.0338611,31.3992556 Z M13.6932156,20.6794129 C13.6932156,20.6794129 21.9591691,17.538537 28.5074617,13.6587712 C30.2365916,12.6347792 32.7783101,10.6699498 32.7783101,10.6699498 C32.1411724,9.6245751 31.4244839,9.11851869 30.6311729,8.58395207 C30.6311729,8.58395207 26.5484644,11.5347598 24.209283,12.7749544 C18.5231151,15.7851585 12.6287977,18.0232107 12.6287977,18.0232107 C11.8759942,18.3106888 11.5033748,19.1374852 11.7969315,19.8692475 C12.0907323,20.6033856 12.940412,20.9668909 13.6932156,20.6794129 Z M1.69667518,6.81156672 C1.69667518,6.81156672 9.25862933,6.61199518 15.7466488,5.25063218 C18.6714797,4.6352866 21.3793762,3.77047659 23.1743917,2.62769194 C23.8503287,2.19766279 24.0401767,1.31147012 23.5977674,0.653359208 C23.155114,-0.00475170333 22.2468694,-0.190068133 21.5706883,0.24233687 C19.4725993,1.57994136 15.9238078,2.40198603 12.4355334,2.95318362 C6.96996019,3.82036948 1.61785653,3.96292058 1.61785653,3.96292058 C0.809904347,3.98430324 0.171790497,4.6400383 0.193752351,5.4264452 C0.215470183,6.2128521 0.888967019,6.83294939 1.69667518,6.81156672 Z" id="Shape"></path>
                                </g>
                                <g id="Group" transform="translate(0.190509, 79.729538)" fill="#310CA3">
                                    <path d="M4.71252569,24.5187892 L57.0158995,24.5187892 C57.0158995,24.5187892 67.8233275,12.3544287 54.9995574,0.192443985 L6.4131052,0.192443985 C2.84381599,2.3592207 -4.81965073,14.4736883 4.71252569,24.5187892 Z" id="Path"></path>
                                </g>
                                <path d="M7.59294476,104.247619 L5.5824591,101.187522 C4.69764043,99.8404145 5.10247059,98.0466465 6.48606735,97.1865882 C7.86966411,96.3241541 9.71153155,96.7185454 10.5963502,98.0656533 L14.658073,104.247619 L7.59294476,104.247619 Z M30.4979377,104.247619 C30.5545505,104.097941 30.6245844,103.953014 30.7085275,103.808087 L34.4752293,97.3956632 C35.2902581,96.0081658 37.1099197,95.5234921 38.535732,96.3170265 C39.9615443,97.1129368 40.4571501,98.8829463 39.6418773,100.27282 L37.3063562,104.247619 L30.4979377,104.247619 Z M54.9585619,97.5667245 L48.4498006,93.7677377 C47.0410697,92.945693 45.2118914,93.3923531 44.3675801,94.7632195 C43.5232689,96.1364618 43.9815396,97.9159747 45.3902704,98.7380194 L51.8987877,102.537006 C53.3077626,103.359051 55.1369409,102.912391 55.9812522,101.541524 C56.8255634,100.168282 56.3672928,98.3887692 54.9585619,97.5667245 Z M23.5191928,97.6617585 L23.7519884,90.2752357 C23.8025007,88.6786634 22.5106557,87.3410589 20.8688851,87.291166 C19.2273586,87.2412731 17.8535226,88.5004745 17.8032544,90.0994227 L17.5702147,97.4835697 C17.5199465,99.0825178 18.8117915,100.417746 20.453318,100.467639 C22.0950886,100.517532 23.4686805,99.2583309 23.5191928,97.6617585 Z M1.88066671,86.1507572 L7.82769257,84.5518091 C9.41089818,84.1265316 11.0509606,85.0341069 11.4877574,86.5760347 C11.9245543,88.1155866 10.9936157,89.7145347 9.41041013,90.1398122 L2.09564885,92.1022657 C1.4990185,92.2638236 0.894335472,92.2353133 0.348949447,92.0547486 C0.516591595,89.9164821 1.10102091,87.9065116 1.88066671,86.1507572 Z M57.140594,81.9763859 C58.6132583,83.7155093 59.6396089,85.4403776 60.3221345,87.1177289 C60.1235018,87.2127629 59.9102278,87.2887902 59.6852408,87.3434348 L52.3060581,89.0635514 C50.7086993,89.4365601 49.1013356,88.476716 48.7184673,86.922909 C48.335843,85.3667262 49.3216862,83.8010399 50.918801,83.4280312 L57.140594,81.9763859 Z M39.1360226,79.9212742 L40.4625186,84.8606698 C40.8780857,86.4097251 39.9251852,87.9944181 38.3361231,88.3983129 C36.7473051,88.8022077 35.1199317,87.8756255 34.7043647,86.3265703 L32.9842635,79.9212742 L39.1360226,79.9212742 Z M27.3102967,79.9212742 C27.681208,80.6387814 27.7468495,81.5012155 27.4169337,82.3018775 C26.8071262,83.7867848 25.073848,84.5114196 23.5487193,83.9174567 L16.5033567,81.173348 C15.854994,80.9215077 15.3479192,80.4700959 15.0263001,79.9212742 L27.3102967,79.9212742 Z" id="Shape" fill="#FFFFFF"></path>
                            </g>
                        </g>
                        <g id="SIGN-1" transform="translate(251.681077, 7.127324)">
                            <g id="SIGN3" transform="translate(3.542152, 0.068036)">
                                <polygon id="Path" stroke="#310CA3" stroke-width="2" fill="#FFF1EB" points="18.6329533 0.529915395 0.517845004 90.0494641 127.367471 112.664047 143.1137 22.6670382"></polygon>
                                <g id="Group" transform="translate(20.777631, 97.854181)" fill="#310CA3">
                                    <g transform="translate(25.077160, 72.240370) rotate(12.212199) translate(-25.077160, -72.240370) translate(16.077160, 0.834387)" id="Rectangle">
                                        <rect x="0.0991282896" y="0.0900113246" width="17.2183636" height="142.420626"></rect>
                                    </g>
                                </g>
                            </g>
                            <g id="HAND2" transform="translate(0.053373, 175.534496)">
                                <g id="Group" transform="translate(0.198118, 67.537124)" fill="#310CA3">
                                    <path d="M5.92669487,86.9110773 C-8.8569749,69.3432883 9.04266105,53.4817319 9.04266105,53.4817319 C-7.36639842,36.7326498 8.92310969,25.6884123 8.92310969,25.6884123 C-4.75661777,10.7238739 11.2200219,0.0664457777 11.2200219,0.0664457777 L49.8325661,0.0664457777 C49.8325661,0.0664457777 65.8092058,10.7238739 52.1294784,25.6884123 C52.1294784,25.6884123 68.4189865,36.7326498 52.009927,53.4817319 C52.009927,53.4817319 69.9095629,69.3432883 55.1258932,86.9110773 L5.92669487,86.9110773 Z" id="Path"></path>
                                </g>
                                <g id="Group" transform="translate(2.140035, 67.564274)" fill="#FFFFFF">
                                    <path d="M50.6335922,78.0524313 L41.0020964,81.7733948 C40.2514636,82.0629086 39.8858957,82.8911077 40.1832243,83.6220113 C40.4805529,84.3529148 41.3311075,84.7112474 42.0817403,84.4217337 L51.7107989,80.7007701 C52.4614317,80.4112564 52.8294367,79.5830572 52.5321082,78.8521537 C52.2347796,78.1212501 51.3842249,77.7629175 50.6335922,78.0524313 Z M23.7082973,80.9451957 L13.3554142,80.5963553 C12.5487277,80.5702516 11.8712085,81.1848751 11.8444002,81.9703591 C11.8151547,82.7558431 12.4463687,83.4155548 13.2530552,83.4416585 L23.6083754,83.7928719 C24.4150619,83.8189756 25.0925811,83.2043521 25.1193894,82.4188681 C25.1486349,81.6333841 24.5149838,80.9736724 23.7082973,80.9451957 Z M35.277303,67.0627742 L33.35929,76.9750604 C33.2106257,77.7486791 33.7321693,78.4938211 34.5242331,78.638578 C35.318734,78.7833348 36.0839895,78.2754992 36.2326538,77.5018805 L38.1506667,67.5895943 C38.299331,66.8159756 37.7777875,66.0708337 36.9832865,65.9260768 C36.1912227,65.78132 35.4259673,66.2891555 35.277303,67.0627742 Z M2.76369337,74.1819647 L12.7436972,71.4695531 C13.5211383,71.2583505 13.9744425,70.4728665 13.7575389,69.7158592 C13.5406353,68.958852 12.7339487,68.5150891 11.9565077,68.7262918 L1.97894093,71.4387033 C1.19906273,71.649906 0.745758529,72.43539 0.962662154,73.1923972 C1.17956578,73.9494045 1.98625229,74.3907943 2.76369337,74.1819647 Z M18.4977361,59.6564431 L24.17135,68.099803 C24.6124686,68.7571416 25.519077,68.9422405 26.1941591,68.510343 C26.8692411,68.0808185 27.0593364,67.1980389 26.6182178,66.5407003 L20.947041,58.0973404 C20.5034853,57.4400018 19.5968769,57.2549028 18.9217948,57.6868004 C18.2467128,58.1163249 18.0566175,58.9991045 18.4977361,59.6564431 Z M52.9074246,61.0162085 L42.5886611,60.1120713 C41.7844117,60.0408794 41.0727729,60.6199069 40.9996593,61.4030178 C40.9265457,62.1861288 41.5212028,62.8766902 42.3254522,62.9478822 L52.6442157,63.8520193 C53.4484651,63.9208382 54.1601039,63.3441838 54.2307804,62.5610728 C54.303894,61.7779619 53.7092368,61.0850273 52.9074246,61.0162085 Z M10.5356671,57.8291842 L15.3051097,48.8756157 C15.6755518,48.177935 15.3952831,47.3165129 14.67877,46.9558073 C13.9622569,46.5927286 13.0800197,46.8656309 12.7071404,47.5633115 L7.93769781,56.5192532 C7.56725567,57.2169338 7.84752439,58.0759828 8.56403749,58.4390615 C9.28055059,58.7997672 10.1627878,58.5268649 10.5356671,57.8291842 Z M41.1020183,48.626444 L31.7142345,52.8979583 C30.9830986,53.2301872 30.6687102,54.0773708 31.009907,54.7892899 C31.3511037,55.5012089 32.2211553,55.8097072 32.9522911,55.4774783 L42.3400749,51.2083371 C43.0712107,50.8737351 43.3880363,50.0265514 43.0444024,49.3146324 C42.7032057,48.6027134 41.8331541,48.2942151 41.1020183,48.626444 Z M26.7108284,46.4740754 L23.7107344,36.8180801 C23.476771,36.0658189 22.660336,35.6410406 21.8877691,35.8664816 C21.1152023,36.0942957 20.6789579,36.891645 20.9129214,37.6415331 L23.9130153,47.2999015 C24.1445417,48.0521626 24.9634138,48.476941 25.7359806,48.2491269 C26.5085475,48.0213128 26.9447918,47.2263365 26.7108284,46.4740754 Z M50.4191257,32.0529686 L50.5092991,42.1384884 C50.5166104,42.9239724 51.1770698,43.5575804 51.9837563,43.5505206 C52.7928799,43.543342 53.4411537,42.9002418 53.4338423,42.1147578 L53.3436689,32.0268649 C53.3363576,31.2413809 52.6734611,30.6077729 51.8667746,30.6148327 C51.0600881,30.6220113 50.4118143,31.2651115 50.4191257,32.0529686 Z M40.6243429,30.9993284 L35.3357938,39.6752485 C34.9239207,40.3491985 35.1530099,41.224859 35.8475889,41.6259067 C36.5397308,42.0269544 37.4390279,41.8038865 37.850901,41.1275634 L43.1394501,32.4540163 C43.5513233,31.7776932 43.322234,30.9044058 42.6300921,30.5033581 C41.9355131,30.1023104 41.0362161,30.3253783 40.6243429,30.9993284 Z M1.33554142,38.6026238 L11.5470716,40.3017373 C12.3440096,40.4346288 13.0995167,39.9125548 13.2359953,39.1365631 C13.372474,38.3629444 12.8363078,37.6272947 12.0393697,37.4944032 L1.82783953,35.7952897 C1.03333862,35.6647712 0.27539449,36.1844721 0.141352924,36.9604639 C0.00487423875,37.7340826 0.541040502,38.4697322 1.33554142,38.6026238 Z M14.8225601,29.9528074 L13.7575389,19.9171219 C13.6771139,19.136384 12.9557266,18.5668488 12.1539143,18.6475329 C11.3521021,18.7282171 10.7671934,19.4282708 10.8500555,20.2113818 L11.9126395,30.2446942 C11.9979387,31.0278051 12.7168889,31.5973404 13.5187012,31.5166562 C14.3205135,31.4359721 14.9054221,30.7359183 14.8225601,29.9528074 Z M34.9726631,21.9579565 L24.9512282,24.5161189 C24.1689129,24.7154563 23.7009859,25.4938211 23.905704,26.2532014 C24.110422,27.0125817 24.9122343,27.4682099 25.6921125,27.2688726 L35.7135473,24.7107101 C36.4934255,24.5137459 36.9613525,23.733008 36.7566344,22.9736277 C36.5519164,22.2142473 35.7525413,21.7586191 34.9726631,21.9579565 Z M40.5341695,13.229829 L44.2873333,22.6342796 C44.5773505,23.3651831 45.4254681,23.7306349 46.178538,23.4458673 C46.9316078,23.1610997 47.3044871,22.3352736 47.0120328,21.601997 L43.2613061,12.1999194 C42.9688517,11.4666428 42.1207342,11.1035641 41.3701014,11.3883317 C40.6170315,11.6707262 40.2417152,12.4965523 40.5341695,13.229829 Z M17.3230445,8.75423122 L24.9122343,15.621877 C25.5020172,16.1581893 26.4281225,16.1249664 26.9789115,15.548312 C27.5272634,14.9740306 27.4931437,14.0722665 26.9009237,13.5359542 L19.3141711,6.66830841 C18.7219511,6.13436912 17.7958457,6.16521895 17.2474938,6.74187338 C16.6967049,7.31852781 16.7308245,8.21791887 17.3230445,8.75423122 Z M9.49257997,4.17659174 L2.82218424,11.8961673 C2.30307781,12.4965523 2.38106563,13.3959434 3.00009395,13.9014059 C3.61668516,14.4068685 4.5403534,14.3285574 5.05945983,13.7281723 L11.7298556,6.00859676 C12.248962,5.4082117 12.168537,4.50882063 11.5519458,4.00335811 C10.9353546,3.49552252 10.0116864,3.57383362 9.49257997,4.17659174 Z M33.1058296,0.0830572222 L36.4032521,0.113907048 L31.8263419,8.47895585 C31.4461513,9.17189039 30.5590399,9.43530044 29.847401,9.06510253 C29.1357622,8.69490463 28.8652419,7.83348258 29.2454325,7.13817498 L33.1058296,0.0830572222 Z M52.2591508,4.27626041 C52.7611974,4.95495657 53.2803038,5.76654428 53.7677277,6.72051581 L49.7074868,8.83016925 C48.995848,9.20036715 48.1087365,8.93933017 47.730983,8.24639563 C47.3507924,7.55108803 47.6188755,6.68966598 48.3305144,6.31946808 L52.2591508,4.27626041 Z" id="Shape"></path>
                                </g>
                                <g id="Group" transform="translate(35.417770, 36.863722) rotate(7.512139) translate(-35.417770, -36.863722) translate(12.417770, 2.860873)" fill="#FFF1EB" stroke="#310CA3" stroke-width="2">
                                    <path d="M2.70196688,67.7570606 C2.70196688,67.7570606 -6.21271014,23.3364318 8.76979322,11.9972502 C8.76979322,11.9972502 16.6053285,4.62048148 21.2593251,1.44215028 C21.3883919,1.35614132 28.6730734,-3.52236705 27.2980481,5.97262238 C27.2980481,5.97262238 25.0767074,13.6194192 19.7432121,19.1499955 C19.7432121,19.1499955 26.2161647,29.423066 18.5489225,40.1141801 L16.6325337,59.9262446 L33.1250342,61.1723745 L34.1561724,47.9676648 C34.1561724,47.9676648 30.296953,45.7087631 33.3591259,41.6283379 C33.3591259,41.6283379 28.2280883,38.6240248 32.9246854,33.7875208 C32.9246854,33.7875208 26.7159822,31.6733005 31.0097729,26.4707584 C31.0097729,26.4707584 22.5594832,22.9223886 31.0097729,16.3757064 C31.0097729,16.3757064 37.0687417,10.6991149 39.6838204,13.6594234 C40.7741396,14.893552 42.2728049,17.4472367 39.5944581,20.2395277 C39.5944581,20.2395277 44.8975739,21.1327793 41.8480546,27.885483 C42.8392538,27.4114336 47.5801692,30.7698865 42.8814631,35.4943788 C42.8814631,35.4943788 50.0970603,37.5920238 39.8117868,45.9648963 L42.0774611,62.7005337 L2.70196688,67.7570606 Z" id="Path"></path>
                                </g>
                                <path d="M50.4678681,49.860437 L50.4776165,51.9463598 C48.9032374,52.6084445 47.3483553,53.0071192 45.9665086,53.0261037 C45.3474802,53.035596 44.7625716,52.9715232 44.2166569,52.8291394 L44.606596,50.9662846 C45.2378099,51.1561297 45.9616343,51.170368 46.7317641,51.0683263 C47.9113298,50.9117041 49.1908175,50.4750604 50.4678681,49.860437 Z M54.1674153,40.0596848 C54.4208757,40.1261306 55.0886464,40.368183 55.9416382,41.2106206 L43.4294673,48.5766097 C43.3197969,48.6430554 43.197941,48.6833975 43.076085,48.702382 C43.0858335,47.2168443 44.6870209,45.7313065 44.6870209,45.7313065 L54.1674153,40.0596848 Z M29.4574619,41.5119996 L29.4574619,45.2733053 L27.744167,46.6354437 C27.3274196,46.9652995 26.7108284,46.9035999 26.3720688,46.497806 C26.0308721,46.0920122 26.0942372,45.4940002 26.5109846,45.1617713 L29.4574619,41.5119996 Z M54.5281089,32.5964001 L54.5013006,32.6319961 C54.5013006,32.6319961 55.2665561,32.4374049 56.3169546,33.7734396 L42.8396844,41.5119996 C43.2028152,39.2908122 45.3474802,37.8978239 45.3474802,37.8978239 L45.2670553,37.9144354 L54.5281089,32.5964001 Z M53.1657592,24.817498 L53.1365138,24.855467 C53.1365138,24.855467 53.9237033,24.9859855 54.9277965,25.9613146 C54.9034253,25.9826722 54.876617,26.0016567 54.8473716,26.0182681 L42.3961287,33.8683621 C42.5350445,32.0956837 44.3385128,30.3941972 44.3385128,30.3941972 L44.301956,30.4036894 L53.1657592,24.817498 Z" id="Shape" fill="#310CA3"></path>
                            </g>
                        </g>
                    </g>
                    <ellipse id="Oval" fill="#FFD7E2" cx="38" cy="149.612536" rx="17" ry="16.5156695"></ellipse>
                    <ellipse id="Oval-Copy-10" fill="#FFDD82" cx="44" cy="175.843305" rx="17" ry="16.5156695"></ellipse>
                    <ellipse id="Oval-Copy-4" fill="#FFD5C1" cx="104" cy="38.8603989" rx="17" ry="16.5156695"></ellipse>
                    <ellipse id="Oval-Copy-5" fill="#FFDD82" cx="122" cy="55.3760684" rx="17" ry="16.5156695"></ellipse>
                    <ellipse id="Oval-Copy-6" fill="#D4FFDA" cx="143" cy="45.6609687" rx="17" ry="16.5156695"></ellipse>
                    <ellipse id="Oval-Copy-7" fill="#C59FFC" cx="143" cy="76.7492877" rx="17" ry="16.5156695"></ellipse>
                    <ellipse id="Oval-Copy-8" fill="#C59FFC" cx="295" cy="81.6068376" rx="17" ry="16.5156695"></ellipse>
                    <ellipse id="Oval-Copy-9" fill="#C59FFC" cx="357" cy="93.2649573" rx="17" ry="16.5156695"></ellipse>
                    <ellipse id="Oval-Copy-11" fill="#FFD5C1" cx="373" cy="156.413105" rx="17" ry="16.5156695"></ellipse>
                    <polygon id="Rectangle" fill="#9FB9FA" transform="translate(328.758407, 70.666622) rotate(10.000000) translate(-328.758407, -70.666622) " points="277.95286 68.8812229 379.584805 68.3755878 379.563954 72.4520209 277.932009 72.957656"></polygon>
                    <polygon id="Rectangle" fill="#C59FFC" transform="translate(86.515370, 149.576279) rotate(-328.000000) translate(-86.515370, -149.576279) " points="68.5531458 131.847898 104.957043 131.368449 68.0736972 167.78411"></polygon>
                    <polygon id="Rectangle" fill="#9FB9FA" transform="translate(89.661384, 164.849116) rotate(-13.000000) translate(-89.661384, -164.849116) " points="76.4887601 152.018956 102.666977 152.185986 102.834007 177.679277 76.6557906 177.512246"></polygon>
                    <polygon id="Rectangle-Copy" fill="#FFD5C1" transform="translate(182.993117, 147.539901) rotate(8.000000) translate(-182.993117, -147.539901) " points="169.94462 134.857669 196.146638 134.752645 196.041613 160.222133 169.839595 160.327158"></polygon>
                    <polygon id="Rectangle-Copy-10" fill="#FFD7E2" transform="translate(206.063882, 122.085173) rotate(8.000000) translate(-206.063882, -122.085173) " points="193.015385 109.402941 219.217404 109.297916 219.112379 134.767405 192.91036 134.87243"></polygon>
                    <polygon id="Rectangle-Copy-13" fill="#FFD7E2" transform="translate(314.077011, 51.830123) rotate(10.000000) translate(-314.077011, -51.830123) " points="301.04527 39.1564287 327.23907 39.0261104 327.108752 64.5038173 300.914952 64.6341356"></polygon>
                    <polygon id="Rectangle-Copy-14" fill="#FFD7E2" transform="translate(352.877844, 57.939258) rotate(10.000000) translate(-352.877844, -57.939258) " points="339.846103 45.2655635 366.039903 45.1352452 365.909585 70.6129521 339.715784 70.7432704"></polygon>
                    <polygon id="Rectangle-Copy-11" fill="#FFD7E2" transform="translate(240.670030, 127.176119) rotate(8.000000) translate(-240.670030, -127.176119) " points="227.621533 114.493887 253.823552 114.388862 253.718527 139.85835 227.516508 139.963375"></polygon>
                    <polygon id="Rectangle-Copy-12" fill="#FFDD82" transform="translate(229.134647, 95.612256) rotate(8.000000) translate(-229.134647, -95.612256) " points="216.086151 82.9300237 242.288169 82.8249989 242.183144 108.294487 215.981126 108.399512"></polygon>
                    <polygon id="Rectangle-Copy-2" fill="#FFD5C1" transform="translate(217.599265, 152.630847) rotate(8.000000) translate(-217.599265, -152.630847) " points="204.550768 139.948615 230.752786 139.84359 230.647762 165.313079 204.445743 165.418103"></polygon>
                    <polygon id="Rectangle-Copy-3" fill="#FFD5C1" transform="translate(252.205413, 158.739982) rotate(8.000000) translate(-252.205413, -158.739982) " points="239.156916 146.05775 265.358935 145.952725 265.25391 171.422213 239.051891 171.527238"></polygon>
                </g>
            </g>
        </g>
    </g>
</svg>