<?xml version="1.0" encoding="UTF-8"?>
<svg width="599px" height="512px" viewBox="0 0 599 512" version="1.1" xmlns="http://www.w3.org/2000/svg" xmlns:xlink="http://www.w3.org/1999/xlink">
    <title>412ADAEC-C601-4E7A-A204-8E1EA1C5A13F</title>
    <g id="Tikui" stroke="none" stroke-width="1" fill="none" fill-rule="evenodd">
        <g id="Home" transform="translate(-756.000000, -208.000000)">
            <g id="SECTION-0" transform="translate(104.000000, -1133.000000)">
                <g id="5_SKATEBOARD_PROTESTER" transform="translate(652.000000, 1341.000000)">
                    <g id="SKATEBOARD" transform="translate(333.000000, 463.000000)" fill="#310CA3">
                        <g id="Group" transform="translate(76.715156, 13.765737) rotate(0.096684) translate(-76.715156, -13.765737) translate(0.215156, 0.265737)">
                            <path d="M7.97590627,1.46864549 C6.25066228,-0.303470114 3.38163124,-0.367161372 1.57222901,1.32253025 C-0.237173232,3.01222187 -0.302204602,5.82213033 1.42303939,7.59424594 C1.42303939,7.59424594 4.75876614,11.0223343 8.48468111,14.8475563 C15.7337662,22.2919405 25.7792002,26.5030566 36.2836791,26.5030566 C59.385117,26.5030566 104.18408,26.5030566 126.466888,26.5030566 C136.08388,26.5030566 145.670269,23.6182173 152.953782,17.4701375 L151.458061,15.7692063 C144.587688,21.5651108 135.536851,24.2551298 126.466888,24.2551298 L36.2836791,24.2551298 C26.4065616,24.2551298 16.9617115,20.2950322 10.1448937,13.2964868 C6.42280414,9.47126479 3.08325202,6.04317647 3.08325202,6.04317647 C2.23019346,5.16648503 2.26462183,3.78026352 3.15593414,2.94853061 C4.05107182,2.11305116 5.46646046,2.14677007 6.31569365,3.01971496 L7.97590627,1.46864549 Z" id="Path"></path>
                        </g>
                        <g id="Group" transform="translate(80.840705, 10.896510) rotate(0.096684) translate(-80.840705, -10.896510) translate(6.340705, 1.396510)">
                            <path d="M146.833183,16.3461742 C148.401586,15.0236439 149.560675,12.2024958 147.644162,10.0444861 C146.756675,9.05165179 145.807982,8.54212173 144.748354,8.43721848 C143.765232,8.33980832 142.648223,8.60581298 141.336119,9.31390992 C137.537522,11.3745095 129.814091,16.413612 120.334812,16.5072756 C98.0558299,16.7283217 53.2606921,16.5072756 30.1630796,16.5072756 C22.1374434,16.5072756 14.4599164,13.2889938 8.92077382,7.59799248 C5.19485886,3.77277043 1.85530673,0.344682105 1.85530673,0.344682105 L0.19509411,1.89575158 C0.19509411,1.89575158 3.53464623,5.3238399 7.2605612,9.14906195 C13.2319711,15.285902 21.510082,18.7552024 30.1630796,18.7552024 C53.2645175,18.7552024 98.0749568,18.9762485 120.357764,18.7552024 C130.315215,18.6540456 138.459438,13.4426021 142.445478,11.2808458 C143.378869,10.7788089 144.117167,10.5352835 144.782782,10.7226107 C145.192097,10.8387536 145.551682,11.1197444 145.911268,11.5243712 C146.871437,12.5996295 146.117838,13.9821045 145.337461,14.6452429 L146.833183,16.3461742 Z" id="Path"></path>
                        </g>
                        <g id="Group" transform="translate(37.854580, 29.013162)">
                            <ellipse id="Oval" cx="9.89162674" cy="9.41240371" rx="9.55589058" ry="9.35897085"></ellipse>
                        </g>
                        <g id="Group" transform="translate(105.101502, 28.306564)">
                            <ellipse id="Oval" cx="9.89162674" cy="9.41240371" rx="9.55589058" ry="9.35897085"></ellipse>
                        </g>
                    </g>
                    <g id="YELLOW-SMOKE" transform="translate(42.000000, 411.000000)" stroke="#310CA3" stroke-width="1.5">
                        <g id="Group" transform="translate(510.256624, 62.492210) rotate(-2.287157) translate(-510.256624, -62.492210) translate(464.756624, 42.992210)">
                            <path d="M0.180273277,34.2128158 C2.29368978,29.9633926 39.1346436,-12.5460978 33.9642526,15.1247424 C33.9642526,15.1247424 69.4013762,-9.59362602 81.1076324,4.68046884 C82.6457087,6.55341929 82.2161213,12.0959794 78.1810684,15.1247424 C78.1810684,15.1247424 90.6812941,19.2330268 90.7313059,26.1793461 C90.769513,31.9202634 83.3974866,38.9962779 71.0736985,38.4851264 L0.180273277,34.2128158 Z" id="Path"></path>
                        </g>
                        <path d="M287.037354,78.4350737 C287.037354,78.4350737 95.0934215,79.8502771 34.8000429,78.4350737 C18.3725386,78.0498027 -9.28139226,68.9062918 3.45396055,40.5945946 C6.01269134,34.9070791 18.1880461,14.4037953 46.608714,20.09894 C46.608714,20.09894 47.0225756,-0.888793511 73.5799076,0.392900136 C83.1436002,0.850647867 104.756073,13.2212803 123.561267,29.8375229 C123.561267,29.8375229 138.87031,5.67988643 172.651233,29.8375229 C182.428569,36.8334341 239.744369,71.0386333 287.037354,78.4350737 Z" id="Path"></path>
                        <path d="M291.475147,61.7120233 C291.475147,61.7120233 258.32403,18.3938297 254.82596,46.1753024 C254.82596,46.1753024 243.829286,44.3328678 243.430383,53.762471 C243.280795,57.3596053 247.338863,64.8018205 291.475147,61.7120233 Z" id="Path"></path>
                    </g>
                    <g id="SHOES" transform="translate(99.000000, 268.000000)" fill="#310CA3">
                        <path d="M28.8923573,0.0885090084 L33.8639244,95.2510859 L12.2665299,95.6513005 C12.2665299,95.6513005 8.67939143,108.161856 0.287878141,110.478484 L0.287878141,0.615714841 L28.8923573,0.0885090084 Z" id="Path"></path>
                        <path d="M16.5862394,100.757885 C16.3733095,100.203742 16.6192935,99.5687862 17.1639174,99.3071074 C17.7377519,99.0300357 18.4272758,99.2724734 18.7024704,99.8497061 C18.7793404,100.007483 18.8558261,100.261465 18.8911863,100.600109 C18.9350022,101.027261 18.93039,101.700699 18.9004107,102.543459 C18.8108571,105.060193 18.5064519,109.25475 19.109497,112.510343 C19.2901415,113.483942 19.5495778,114.369032 19.9450739,115.069407 C20.2521696,115.612006 20.6357508,116.03531 21.1661538,116.231569 C21.6427478,116.404739 22.2158136,116.389346 22.9049532,116.200783 C23.5187601,116.031462 24.1537063,116.393194 24.3228203,117.008909 C24.4915499,117.620776 24.1306453,118.25958 23.5168384,118.428901 C21.8264671,118.894536 20.5200615,118.636705 19.5046088,117.955571 C18.1255611,117.035847 17.2615423,115.19255 16.8422165,112.929798 C16.2084233,109.512581 16.5016824,105.106372 16.5958481,102.462646 C16.623137,101.685306 16.5900829,100.857939 16.5862394,100.757885 Z" id="Path"></path>
                        <path d="M20.0649911,104.279005 C18.9961138,103.309254 17.9007163,102.312565 17.0001843,101.192734 C16.9805825,101.169645 16.7353672,100.831002 16.6335144,100.638591 C16.5162877,100.415394 16.4824649,100.219135 16.4743935,100.111385 C16.4494108,99.7727417 16.5601036,99.5226076 16.684633,99.3455896 C16.8441382,99.1223929 17.0639864,98.9569196 17.3637794,98.8876517 C17.7227623,98.7991427 18.2816072,98.8684106 18.8646661,99.299411 C19.8240037,100.015179 21.3218156,102.047038 21.5877858,102.408771 C21.6611966,102.512673 21.7430632,102.631968 21.831848,102.766655 L22.0147986,102.932129 C23.1555494,103.967299 24.4596489,105.198729 25.8905839,106.183873 C27.185459,107.076659 28.5818025,107.784731 30.0642404,107.865544 C30.6995709,107.900178 31.1876954,108.442776 31.1531039,109.08158 C31.1185124,109.716536 30.5746572,110.20526 29.9393267,110.170626 C28.0175767,110.066724 26.1830742,109.166241 24.5073083,108.000231 C25.3521095,110.039787 26.0470143,112.248664 26.1273435,114.034237 C26.2280432,116.266203 25.4297482,117.901696 23.5168384,118.428901 C22.9034158,118.598223 22.2680852,118.236491 22.0993556,117.620776 C21.9302416,117.005061 22.2915306,116.370105 22.9049532,116.200783 C23.3796254,116.069944 23.6252251,115.727453 23.7374553,115.273363 C23.9188684,114.54605 23.8270088,113.618629 23.6121572,112.614244 C22.9602996,109.566456 21.0923586,105.906801 20.0649911,104.279005 Z" id="Path"></path>
                        <path d="M29.9393267,110.170626 C31.4440569,110.251439 32.2903955,109.735778 32.747772,109.096973 C33.2116825,108.446625 33.3231439,107.534597 33.0756226,106.545605 C32.7062622,105.071738 31.5282295,103.386218 30.6027147,102.67045 C27.3837836,100.169108 22.7527506,99.6649917 18.8312277,99.2262948 C18.1989719,99.1531787 17.6278278,99.6111166 17.5567231,100.242224 C17.4856183,100.87718 17.9414574,101.446716 18.5740975,101.519833 C22.0985869,101.916199 26.2956888,102.243298 29.1886911,104.494505 C29.8109538,104.975532 30.5904155,106.114605 30.8387056,107.107445 C30.9009703,107.357579 30.9878334,107.588472 30.870991,107.753945 C30.8375526,107.800124 30.769907,107.80782 30.6934213,107.827062 C30.5212325,107.869392 30.3125305,107.877088 30.0642404,107.865544 C29.4289099,107.83091 28.8850546,108.319633 28.8504631,108.954589 C28.8158716,109.589545 29.3036118,110.135992 29.9393267,110.170626 Z" id="Path"></path>
                        <g id="Group" transform="translate(265.795651, 182.521232)">
                            <path d="M7.11047478,0.161625146 L78.949331,8.33139144 L76.9737721,18.2520968 C76.9737721,18.2520968 94.865264,19.0255886 93.473917,27.9842395 L0.0384349988,27.9842395 L7.11047478,0.161625146 Z" id="Path"></path>
                        </g>
                        <path d="M350.096717,199.152965 C350.238926,199.657082 350.019847,200.207377 349.543253,200.472904 C348.985945,200.780761 348.286429,200.576806 347.978949,200.018814 C347.813678,199.722502 347.721434,199.222233 347.844426,198.614215 C347.986636,197.909991 348.409421,196.917151 348.697683,196.297588 C349.796924,193.942478 351.046061,191.602762 352.952437,189.7941 C353.425188,189.343858 354.447559,188.435679 355.373842,188.139366 C356.046455,187.923866 356.688319,187.966196 357.234096,188.293295 C357.779873,188.620393 357.960518,189.328465 357.63382,189.874912 C357.32634,190.390573 356.676789,190.579136 356.146386,190.325154 C356.061829,190.355939 355.815845,190.448297 355.673635,190.536806 C355.208572,190.82927 354.781943,191.237181 354.539803,191.468074 C352.844819,193.076629 351.764796,195.177756 350.784703,197.275035 C350.56178,197.752214 350.1659,198.945162 350.096717,199.152965 Z" id="Path"></path>
                        <path d="M355.938837,190.198163 C355.48146,189.844127 355.350781,189.197626 355.654418,188.689661 C355.981115,188.143214 356.688319,187.966196 357.234096,188.293295 C357.960518,188.728143 358.283372,189.486242 358.252624,190.382877 C358.221876,191.210244 357.8529,192.16845 357.618446,192.668718 C356.419274,195.231631 354.205418,197.001812 351.999249,198.652697 C352.199111,198.629608 352.345164,198.610367 352.410504,198.606518 C353.859503,198.498768 355.715914,198.310206 357.307123,197.709884 C358.187284,197.378937 358.986732,196.920999 359.528666,196.236016 L359.509448,196.236016 C358.875271,196.178293 358.406364,195.616453 358.464016,194.981497 C358.517825,194.35039 359.078976,193.877059 359.713154,193.934782 C360.689403,194.019443 361.381233,194.492774 361.715617,195.070006 C362.084593,195.704962 362.149933,196.574659 361.446572,197.525169 C360.650968,198.60267 359.46717,199.360769 358.121945,199.868734 C356.3155,200.553717 354.216949,200.788458 352.575774,200.907753 C352.245233,200.930842 350.104404,201.211762 349.155059,201.04244 C348.39789,200.911601 348.005853,200.472904 347.867487,200.111172 C347.740652,199.780225 347.717591,199.191447 348.23262,198.614215 C348.736118,198.044679 350.208178,197.109562 350.40804,196.963329 C352.383599,195.485614 354.455246,193.984809 355.527582,191.691271 C355.654418,191.421896 355.85428,190.956261 355.927306,190.498324 C355.938837,190.409815 355.938837,190.271279 355.938837,190.198163 Z" id="Path"></path>
                        <path d="M359.713154,193.934782 C358.106571,193.792398 356.419274,194.296514 354.970275,194.950711 C353.71345,195.524096 352.518122,196.247561 351.334324,196.959481 C350.788547,197.28658 350.615589,197.9985 350.942287,198.544947 C351.268984,199.091394 351.980032,199.264564 352.525809,198.937465 C353.628893,198.271723 354.743508,197.590589 355.923463,197.055687 C357.01886,196.559267 358.291059,196.128266 359.509448,196.236016 C360.143626,196.289891 360.704777,195.820409 360.758586,195.185453 C360.816238,194.550497 360.347331,193.992505 359.713154,193.934782 Z" id="Path"></path>
                    </g>
                    <g id="PANTS" transform="translate(125.000000, 131.000000)" fill="#310CA3">
                        <g id="Group" transform="translate(0.000000, 7.312259)">
                            <path d="M280.576742,163.098002 C162.563989,74.9872112 197.76158,0.996776294 197.76158,0.996776294 C198.125073,0.228989149 199.039545,-0.0985230622 199.800967,0.265550441 C200.566215,0.6300088 200.891446,1.54865938 200.527953,2.31644653 C200.527953,2.31644653 166.700155,74.6747083 283.193891,161.216058 C283.679823,161.577822 283.909398,162.193591 283.779306,162.786269 L250.747367,314.65803 L247.713157,314.319357 L280.576742,163.098002 Z" id="Path"></path>
                            <path d="M258.957867,8.16141799 C258.957867,8.16141799 311.67348,64.1934781 347.756812,102.549208 C367.676378,123.718951 374.235588,154.267011 364.780802,181.81509 C345.890433,236.837891 316.36631,322.177092 316.36631,322.177092 L319.119796,322.493692 C319.119796,322.493692 348.79753,237.845606 367.684059,182.822806 C377.515192,154.18593 370.694843,122.433246 349.991859,100.42567 C313.904687,62.0707123 261.189074,6.03903827 261.189074,6.03903827 C260.609191,5.41973736 259.633758,5.39271052 259.019312,5.97842091 C258.404866,6.5641313 258.377984,7.54211708 258.957867,8.16141799 Z" id="Path"></path>
                            <path d="M143.212535,125.390148 L196.354975,4.1213092 C196.699852,3.33910147 197.620831,2.97772612 198.4164,3.31555029 C199.211969,3.65337446 199.576442,4.56299017 199.235483,5.34558399 L145.705057,127.498171 C145.465994,128.03869 144.936921,128.401609 144.341224,128.428635 L0.317373425,135.335692 L0.0779189201,132.030806 L143.212535,125.390148 Z" id="Path"></path>
                            <path d="M5.33304299,226.24616 C5.33304299,226.24616 111.97946,222.899783 167.41032,221.006689 C187.974198,220.302994 206.5733,208.825875 216.124296,190.946658 L247.14359,132.865018 C247.541224,132.119254 247.248846,131.193742 246.484767,130.80365 C245.724585,130.409733 244.781181,130.70039 244.379649,131.446154 L213.360354,189.52397 C204.33174,206.431781 186.746213,217.281693 167.301165,217.947144 C111.870306,219.840238 5.17866771,223.056584 5.17866771,223.056584 L5.33304299,226.24616 Z" id="Path"></path>
                            <path d="M280.347168,172.184446 L282.283246,173.181222 C282.283246,173.181222 294.159898,177.834127 301.678461,176.529466 C302.485798,176.38707 303.120954,175.752058 303.266351,174.940012 C303.411749,174.127967 303.036777,173.312073 302.332749,172.89258 C295.881706,169.067114 282.283246,161.019781 282.283246,161.019781 C282.283246,161.019781 281.066501,172.657818 280.347168,172.184446 Z" id="Path"></path>
                        </g>
                        <path d="M323.629606,315.83184 C322.944709,318.006275 322.317206,320.003676 321.754748,321.785558 C321.318557,321.901015 320.89767,322.016471 320.492089,322.128079 C315.043521,323.640562 312.372805,325.503264 310.096192,328.751446 L304.483096,328.108737 C307.157639,323.394255 310.80022,319.226267 319.068727,316.932527 C320.434695,316.555369 321.965192,316.158967 323.629606,315.83184 Z M260.852469,307.653656 C263.584405,307.653656 265.799799,309.920456 265.799799,312.71066 C265.799799,315.500864 263.584405,317.763816 260.852469,317.763816 C258.120533,317.763816 255.90514,315.500864 255.90514,312.71066 C255.90514,309.920456 258.120533,307.653656 260.852469,307.653656 Z M305.933242,302.177159 C305.933242,302.177159 296.555125,310.913384 284.67082,306.783882 C279.011809,304.813421 270.10432,301.315083 266.121203,290.535274 C265.604661,289.142096 264.062686,288.430113 262.677586,288.94582 C261.292487,289.465375 260.584632,291.016344 261.097349,292.409521 C265.81893,305.194428 276.211001,309.543298 282.922228,311.875523 C297.810132,317.051833 309.568171,306.133476 309.568171,306.133476 C310.654823,305.125154 310.719869,303.416395 309.717394,302.327253 C308.714919,301.234263 307.016068,301.168837 305.933242,302.177159 Z M315.364926,235.058323 C315.364926,235.058323 325.401156,243.020988 323.181936,255.47107 C322.125894,261.397848 320.067376,270.792176 310.096192,276.418767 C308.806749,277.146144 308.3476,278.789478 309.066933,280.086441 C309.793919,281.383405 311.427724,281.845232 312.713341,281.117855 C324.540252,274.448305 327.199489,263.449129 328.454496,256.421664 C331.236174,240.823462 318.689929,230.828759 318.689929,230.828759 C317.530578,229.908954 315.843206,230.10523 314.928734,231.271343 C314.010436,232.437456 314.205575,234.134669 315.364926,235.058323 Z M266.714271,238.29496 C270.739476,239.861322 274.95982,242.593798 278.284824,247.30828 C282.386554,253.134996 288.321054,262.756389 284.758823,275.914606 C284.372373,277.346269 282.89927,278.1968 281.472082,277.804247 C280.044894,277.415543 279.203121,275.933848 279.589572,274.498337 C282.593171,263.399098 277.374178,255.340219 273.91143,250.421763 C271.489419,246.985002 268.466689,244.872144 265.512831,243.582877 L266.714271,238.29496 Z M302.516408,251.395448 C305.244518,251.395448 307.463738,253.662248 307.463738,256.448604 C307.463738,259.238808 305.244518,261.505608 302.516408,261.505608 C299.784472,261.505608 297.565252,259.238808 297.565252,256.448604 C297.565252,253.662248 299.784472,251.395448 302.516408,251.395448 Z M345.148386,248.870795 C343.059259,248.278117 341.524936,246.319201 341.524936,243.998521 C341.524936,241.208317 343.740329,238.945366 346.472266,238.945366 C347.130379,238.945366 347.761709,239.076217 348.339471,239.314827 C347.310212,242.366733 346.242691,245.564884 345.148386,248.870795 Z M294.963408,237.679191 C294.963408,237.679191 288.940905,226.337493 295.931447,215.827083 C299.260277,210.82011 304.888678,203.038328 316.267919,201.903004 C317.737195,201.75291 318.812369,200.432855 318.666972,198.955009 C318.521575,197.473314 317.209174,196.39187 315.736071,196.538115 C302.244745,197.888959 295.426384,206.894582 291.477703,212.829057 C282.719437,226.002668 290.238001,240.211541 290.238001,240.211541 C290.93055,241.523899 292.556703,242.020363 293.861451,241.323774 C295.166199,240.623337 295.659784,238.991549 294.963408,237.679191 Z M38.2207199,231.925598 C34.138886,228.596596 30.2456857,223.635806 26.9474659,216.388973 C26.3322063,215.038129 26.9237432,213.437129 28.2679017,212.817512 C29.6120602,212.201742 31.2030112,212.79442 31.8182708,214.145264 C36.0240749,223.389498 41.2101621,228.411865 46.5240457,230.817213 C47.1496361,231.098158 47.7756091,231.344466 48.4008169,231.559985 L42.7831298,231.76011 L38.2207199,231.925598 Z M65.2225031,230.951913 C68.8310311,229.662646 71.1439938,228.134769 71.1439938,228.134769 C72.3840785,227.326572 74.0442845,227.680639 74.848943,228.927572 C75.178765,229.43943 75.3142139,230.020562 75.2736558,230.5863 L68.5291406,230.832607 L65.2225031,230.951913 Z M143.494003,228.023161 C143.099901,227.569031 142.71345,227.099507 142.342305,226.606892 C138.213791,221.149638 135.439766,213.129245 136.243277,201.267992 C136.342759,199.782449 137.62455,198.662518 139.097652,198.762581 C140.574581,198.862643 141.688018,200.15191 141.588535,201.633605 C140.899812,211.774553 143.073117,218.678864 146.604737,223.339467 C147.940096,225.105954 149.459113,226.545315 151.066134,227.719125 C148.644124,227.819187 146.118805,227.91925 143.494003,228.023161 Z M349.127677,223.17013 C349.127677,223.17013 341.456064,212.886786 346.770712,201.425783 C349.299858,195.96468 353.677077,187.413186 364.750219,184.542162 C366.181233,184.168852 367.045964,182.698704 366.674818,181.259343 C366.307499,179.819983 364.845875,178.954057 363.414861,179.323519 C350.283202,182.729492 344.914985,192.674164 341.915212,199.147437 C335.257553,213.510252 344.842287,226.39907 344.842287,226.39907 C345.729975,227.588274 347.409695,227.830733 348.592003,226.941716 C349.774312,226.048851 350.015365,224.359334 349.127677,223.17013 Z M114.697713,188.048198 C114.697713,188.048198 118.416819,202.522621 109.306157,212.359533 C105.334901,216.650674 98.9378089,219.971979 88.885891,221.007241 C87.4150839,221.161183 86.3437364,222.485087 86.4941077,223.962933 C86.6448616,225.440779 87.9607059,226.522223 89.4315129,226.368281 C101.189934,225.159834 108.580702,221.049575 113.22461,216.034905 C124.221227,204.158258 119.889922,186.724294 119.889922,186.724294 C119.526429,185.281085 118.068632,184.411311 116.633791,184.776924 C115.202777,185.142537 114.33422,186.608838 114.697713,188.048198 L114.697713,188.048198 Z M184.377389,197.146187 C187.086368,197.146187 189.28263,199.355259 189.28263,202.076189 C189.28263,204.800967 187.086368,207.010039 184.377389,207.010039 C181.672237,207.010039 179.475974,204.800967 179.475974,202.076189 C179.475974,199.355259 181.672237,197.146187 184.377389,197.146187 Z M7.41259214,190.996193 L7.56487653,191.165529 C15.9914072,200.55216 28.3960807,197.450223 28.3960807,197.450223 C29.8309211,197.092307 31.2841275,197.973627 31.6399679,199.416836 C31.9954257,200.860045 31.1192165,202.318648 29.6843761,202.676564 C29.6843761,202.676564 17.8628217,205.616861 7.83539177,198.558607 L7.41259214,190.996193 Z M56.2759863,192.570253 C59.0071571,192.570253 61.2240812,194.837053 61.2240812,197.627257 C61.2240812,200.417461 59.0071571,202.680412 56.2759863,202.680412 C53.545198,202.680412 51.3278913,200.417461 51.3278913,197.627257 C51.3278913,194.837053 53.545198,192.570253 56.2759863,192.570253 Z M157.578397,198.25842 C157.578397,198.25842 158.875492,183.368352 170.729187,177.152933 C175.894613,174.443549 183.030552,173.454469 192.848687,175.855969 C194.283527,176.206188 195.733673,175.317171 196.081861,173.873962 C196.433875,172.426905 195.550013,170.97215 194.111346,170.618083 C182.624971,167.812485 174.295244,169.205662 168.253609,172.373025 C153.947294,179.873863 152.244617,197.765805 152.244617,197.765805 C152.110698,199.243651 153.193525,200.556009 154.666627,200.694557 C156.13973,200.829256 157.444478,199.740114 157.578397,198.25842 L157.578397,198.25842 Z M286.243405,190.503577 C288.975341,190.503577 291.194561,192.766529 291.194561,195.556733 C291.194561,198.346937 288.975341,200.613737 286.243405,200.613737 C283.515295,200.613737 281.296075,198.346937 281.296075,195.556733 C281.296075,192.766529 283.515295,190.503577 286.243405,190.503577 Z M46.853485,185.16178 C46.853485,185.16178 55.5375217,175.728967 67.6996116,178.930966 C73.4929232,180.454995 82.642996,183.256744 87.4349804,193.701728 C88.0544488,195.052572 89.6473129,195.641401 90.9895583,195.017935 C92.331421,194.394469 92.9183664,192.793469 92.298898,191.442625 C86.61693,179.061817 75.9256472,175.528842 69.0567793,173.72002 C53.8160959,169.705975 42.9258486,181.497954 42.9258486,181.497954 C41.920695,182.587095 41.9845933,184.295855 43.0685674,185.304177 C44.1525414,186.316347 45.8483315,186.250922 46.853485,185.16178 Z M224.816931,180.058593 C224.950849,176.979748 224.556747,174.247272 223.783846,171.822681 C219.701247,159.02238 205.329885,155.216157 205.329885,155.216157 L205.329885,155.216157 C203.902697,154.831301 203.053272,153.353456 203.435896,151.914095 C203.822346,150.478583 205.291623,149.628052 206.718811,150.012908 C206.718811,150.012908 223.959853,154.72739 228.884225,170.179347 C229.02197,170.606537 229.148236,171.037575 229.266849,171.48016 L224.816931,180.058593 Z M138.99817,155.912746 C138.99817,155.912746 132.19894,166.796466 119.656522,165.911297 C113.683759,165.487956 104.176316,164.4373 97.5481181,155.062215 C96.6914227,153.849919 95.0178249,153.568975 93.8133242,154.431052 C92.6088235,155.28928 92.3264469,156.974948 93.1831423,158.187243 C101.042241,169.298028 112.199178,170.783571 119.28155,171.283883 C134.995922,172.396116 143.532266,158.779921 143.532266,158.779921 C144.320471,157.525291 143.9455,155.858866 142.694319,155.066063 C141.443138,154.273261 139.786376,154.654268 138.99817,155.912746 Z M337.277808,161.031327 C340.009744,161.031327 342.228964,163.298127 342.228964,166.088331 C342.228964,168.878535 340.009744,171.141487 337.277808,171.141487 C334.549698,171.141487 332.330479,168.878535 332.330479,166.088331 C332.330479,163.298127 334.549698,161.031327 337.277808,161.031327 Z M305.68071,165.795841 C305.68071,165.795841 304.280305,153.014782 314.653245,145.87186 C319.596748,142.465887 327.693074,137.347306 338.678213,140.545457 C340.097748,140.961102 341.582329,140.13751 341.995564,138.709696 C342.404971,137.281881 341.586156,135.784792 340.16662,135.372997 C327.142096,131.578319 317.48849,137.389641 311.626688,141.426777 C298.628947,150.378521 300.354582,166.380821 300.354582,166.380821 C300.515284,167.858667 301.839164,168.924718 303.30844,168.766927 C304.777717,168.605287 305.841412,167.273687 305.68071,165.795841 Z M59.6534092,137.609008 C62.634051,142.696801 64.827635,149.312471 63.5175301,157.694628 C63.2879556,159.164777 61.9162482,160.16925 60.455772,159.938337 C58.9952958,159.707423 57.9962642,158.325791 58.2258387,156.859491 C59.5137514,148.615882 56.6762111,142.438948 53.5027267,137.95153 L59.6534092,137.609008 Z M186.156591,153.934588 C186.156591,153.934588 173.399904,153.110996 168.200042,141.599962 C165.720638,136.115768 162.108666,127.206358 167.140173,116.88068 C167.790634,115.54523 167.243482,113.928836 165.915776,113.274582 C164.58807,112.620327 162.981049,113.174519 162.330588,114.50612 C156.365478,126.752229 160.383031,137.324215 163.321585,143.828277 C169.841499,158.252669 185.808403,159.311022 185.808403,159.311022 C187.281506,159.407236 188.559471,158.283457 188.655127,156.797914 C188.750783,155.31622 187.63352,154.03465 186.156591,153.934588 Z M273.019916,147.164976 C275.751852,147.164976 277.967246,149.431776 277.967246,152.22198 C277.967246,155.012184 275.751852,157.275135 273.019916,157.275135 C270.291806,157.275135 268.072586,155.012184 268.072586,152.22198 C268.072586,149.431776 270.291806,147.164976 273.019916,147.164976 Z M15.1829225,146.51457 C17.9137107,146.51457 20.1310174,148.78137 20.1310174,151.567725 C20.1310174,154.357929 17.9137107,156.624729 15.1829225,156.624729 C12.4517516,156.624729 10.2344449,154.357929 10.2344449,151.567725 C10.2344449,148.78137 12.4517516,146.51457 15.1829225,146.51457 Z M118.317337,143.593515 C121.045447,143.593515 123.264667,145.856466 123.264667,148.64667 C123.264667,151.436874 121.045447,153.703674 118.317337,153.703674 C115.585401,153.703674 113.366181,151.436874 113.366181,148.64667 C113.366181,145.856466 115.585401,143.593515 118.317337,143.593515 Z M238.736796,153.218756 C237.267519,152.364376 236.276523,150.771074 236.276523,148.943009 C236.276523,146.218231 238.472785,144.009159 241.181764,144.009159 C241.924055,144.009159 242.631909,144.178495 243.267065,144.478683 L238.736796,153.218756 Z M240.064502,132.586641 C242.195718,131.012581 244.728689,129.673284 247.732289,128.77657 C254.539172,126.744532 265.501352,124.192938 276.742848,131.820778 C277.967246,132.652067 278.28865,134.330038 277.462182,135.561576 C276.635714,136.793114 274.971299,137.120242 273.743075,136.288953 C264.265476,129.854166 254.99832,132.224877 249.255133,133.941333 C247.173658,134.560951 245.375324,135.453816 243.82187,136.500624 L240.064502,132.586641 Z M227.196853,118.416254 C228.363856,119.955677 229.572949,121.491251 230.747605,122.888277 C228.639346,126.178794 225.574527,129.373096 221.124608,131.678382 C214.811311,134.945807 204.507243,139.502498 192.056655,134.102973 C190.698339,133.514144 190.070836,131.928538 190.656251,130.5623 C191.241666,129.196062 192.818077,128.568748 194.176393,129.157577 C204.679424,133.706571 213.34586,129.642495 218.671988,126.886928 C222.877027,124.708645 225.528612,121.533585 227.196853,118.416254 Z M291.810586,74.2321243 C291.810586,74.2321243 302.420752,81.4000619 301.158093,93.9817648 C300.557373,99.9739683 299.222015,109.502996 289.706153,115.880055 C288.47793,116.703646 288.145047,118.377768 288.963862,119.617004 C289.782678,120.852391 291.447093,121.187215 292.679142,120.363624 C303.962727,112.801209 305.776366,101.628848 306.488046,94.5244114 C308.07211,78.7568729 294.79888,69.7616403 294.79888,69.7616403 C293.574483,68.9318914 291.910068,69.2594036 291.0836,70.4928662 C290.257132,71.7267136 290.582362,73.4019905 291.810586,74.2321243 Z M200.669524,103.233696 C203.40146,103.233696 205.62068,105.496648 205.62068,108.286852 C205.62068,111.077056 203.40146,113.343856 200.669524,113.343856 C197.941414,113.343856 195.722194,111.077056 195.722194,108.286852 C195.722194,105.496648 197.941414,103.233696 200.669524,103.233696 Z M329.02078,97.6032571 C331.74889,97.6032571 333.96811,99.8700572 333.96811,102.660261 C333.96811,105.450465 331.74889,107.713417 329.02078,107.713417 C326.288844,107.713417 324.069624,105.450465 324.069624,102.660261 C324.069624,99.8700572 326.288844,97.6032571 329.02078,97.6032571 Z M272.23171,95.5250363 C274.95982,95.5250363 277.17904,97.7918364 277.17904,100.58204 C277.17904,103.372244 274.95982,105.639044 272.23171,105.639044 C269.499774,105.639044 267.280554,103.372244 267.280554,100.58204 C267.280554,97.7918364 269.499774,95.5250363 272.23171,95.5250363 Z M178.814035,57.447797 C183.386393,60.2041336 188.716347,65.0109814 190.893478,73.0356079 C192.760683,79.9260645 195.052602,91.0068302 187.21646,102.136857 C186.363208,103.353001 184.691141,103.641643 183.482049,102.779566 C182.276783,101.921338 181.989815,100.239519 182.846893,99.0272232 C189.454811,89.6367439 187.300637,80.2643527 185.724226,74.4530315 C184.078942,68.3811629 180.164698,64.6218923 176.648382,62.3777986 L178.814035,57.447797 Z M229.990009,97.4262235 C229.990009,97.4262235 229.140583,84.5993674 239.808143,77.9117297 C244.889392,74.7258942 253.199987,69.9621502 264.035902,73.6348282 C265.440132,74.1093553 266.95915,73.3508047 267.429778,71.9418479 C267.904232,70.5328912 267.150462,69.0034746 265.746232,68.5289475 C252.897714,64.1743051 243.003055,69.5615154 236.976725,73.3388742 C223.604013,81.7194922 224.64475,97.7802907 224.64475,97.7802907 C224.740406,99.2658338 226.018371,100.389612 227.491473,100.293399 C228.968403,100.197185 230.085665,98.9117665 229.990009,97.4262235 Z M211.004201,80.7796745 C213.736137,80.7796745 215.955357,83.0445504 215.955357,85.8343694 C215.955357,88.6245733 213.736137,90.8913735 211.004201,90.8913735 C208.276091,90.8913735 206.056871,88.6245733 206.056871,85.8343694 C206.056871,83.0445504 208.276091,80.7796745 211.004201,80.7796745 Z M205.065875,17.9296579 C205.065875,17.9296579 216.946353,22.6780077 218.358236,35.2439315 C219.027828,41.2292076 219.72803,50.8236605 211.769449,59.082664 C210.74019,60.1506386 210.766974,61.8574737 211.826843,62.8923507 C212.890538,63.9272277 214.585562,63.9002878 215.614821,62.8326981 C225.054158,53.0400445 224.476396,41.7360625 223.680537,34.6389384 C221.908988,18.8929518 207.047867,12.9246094 207.047867,12.9246094 C205.674247,12.3742657 204.116967,13.0489178 203.569814,14.4301649 C203.022662,15.8114121 203.692254,17.3793142 205.065875,17.9296579 Z M239.605353,38.1923111 C242.337289,38.1923111 244.552682,40.4575719 244.552682,43.2473909 C244.552682,46.0375948 242.337289,48.3024707 239.605353,48.3024707 C236.873417,48.3024707 234.658023,46.0375948 234.658023,43.2473909 C234.658023,40.4575719 236.873417,38.1923111 239.605353,38.1923111 Z M246.599721,0.110453589 L250.150473,3.90397634 C246.507892,14.4875084 250.942505,22.8003918 253.930799,27.9197425 C260.301491,38.8223199 273.073483,38.3012253 273.073483,38.3012253 C274.550412,38.2423424 275.797767,39.4007581 275.855161,40.886686 C275.91638,42.372229 274.764682,43.6260889 273.283927,43.6849719 C273.283927,43.6849719 257.294065,44.311517 249.312526,30.649524 C245.71586,24.4918327 240.619307,14.400531 245.279668,1.59407236 C245.524548,0.922114286 246.01048,0.406792487 246.599721,0.110453589 Z" id="PANTS1"></path>
                    </g>
                    <g id="Group">
                        <path d="M320.518558,38.6849978 C320.518558,38.6849978 345.738635,29.1997406 395.269488,46.7114032 L391.110526,52.1289437 L320.518558,38.6849978 Z" id="Path" fill="#310CA3"></path>
                        <polygon id="Rectangle" fill="#D4FFDA" transform="translate(341.804878, 19.883066) rotate(-45.000000) translate(-341.804878, -19.883066) " points="328.390244 6.46843141 355.239382 6.4485618 355.219512 33.2976997 328.370374 33.3175693"></polygon>
                        <polygon id="Rectangle-Copy-4" fill="#C59FFC" transform="translate(361.450358, 17.380619) rotate(-121.000000) translate(-361.450358, -17.380619) " points="349.624913 5.56338311 373.260364 5.57882168 373.275802 29.1978542 349.640352 29.1824156"></polygon>
                        <polygon id="Rectangle-Copy-6" fill="#310CA3" transform="translate(346.043631, 28.481148) rotate(-29.000000) translate(-346.043631, -28.481148) " points="336.387798 18.8177339 355.711597 18.8056016 355.699464 38.144562 336.375666 38.1566943"></polygon>
                        <polygon id="Rectangle" fill="#FA9FB8" transform="translate(341.804878, 41.378272) rotate(-45.000000) translate(-341.804878, -41.378272) " points="328.390244 27.9636374 355.239382 27.9437678 355.219512 54.7929057 328.370374 54.8127753"></polygon>
                        <polygon id="Rectangle" fill="#310CA3" transform="translate(370.726558, 28.481148) rotate(-45.000000) translate(-370.726558, -28.481148) " points="361.068022 18.8226114 380.399401 18.8083053 380.385095 38.1396846 361.053716 38.1539907"></polygon>
                        <polygon id="Rectangle-Copy-5" fill="#9FB9FA" transform="translate(320.287534, 31.521029) rotate(-102.000000) translate(-320.287534, -31.521029) " points="312.76243 24.0060902 327.808112 24.0106159 327.812638 39.0359681 312.766956 39.0314424"></polygon>
                        <polygon id="Rectangle-Copy-7" fill="#FFAB82" transform="translate(268.775339, 31.521029) rotate(-102.000000) translate(-268.775339, -31.521029) " points="261.250235 24.0060902 276.295917 24.0106159 276.300443 39.0359681 261.254761 39.0314424"></polygon>
                        <polygon id="Rectangle-Copy-8" fill="#310CA3" transform="translate(196.798096, 36.734884) rotate(-102.000000) translate(-196.798096, -36.734884) " points="183.897918 23.8521318 209.690516 23.8598902 209.698274 49.6176369 183.905676 49.6098785"></polygon>
                        <ellipse id="Oval" fill="#FA9FB8" cx="211.95122" cy="70.3967997" rx="10.195122" ry="10.2102229"></ellipse>
                        <ellipse id="Oval-Copy-3" fill="#C59FFC" cx="16.6341463" cy="227.311804" rx="16.6341463" ry="16.6587847"></ellipse>
                        <ellipse id="Oval-Copy-2" fill="#C59FFC" cx="162.04878" cy="128.971236" rx="7.51219512" ry="7.5233221"></ellipse>
                        <polygon id="Rectangle-Copy-4" fill="#D4FFDA" transform="translate(360.048780, 37.079230) rotate(-67.000000) translate(-360.048780, -37.079230) " points="346.624457 23.6687092 373.487397 23.6544162 373.473104 50.4897515 346.610164 50.5040445"></polygon>
                        <polygon id="Rectangle-Copy-4" fill="#FFDD82" transform="translate(333.802048, 32.263530) rotate(-99.000000) translate(-333.802048, -32.263530) " points="327.987426 25.7541426 339.616671 28.9922028 333.458236 38.7729172"></polygon>
                        <polygon id="Rectangle-Copy-9" fill="#D4FFDA" transform="translate(249.922725, 96.461844) rotate(-99.000000) translate(-249.922725, -96.461844) " points="242.399187 87.8753581 257.446264 92.1466006 249.477933 105.048329"></polygon>
                        <polygon id="Rectangle-Copy-9" fill="#FFDD82" transform="translate(88.085039, 125.895770) rotate(-36.000000) translate(-88.085039, -125.895770) " points="75.203027 111.398185 100.967051 118.588684 87.2994865 140.393355"></polygon>
                        <polygon id="Rectangle" fill="#9FB9FA" transform="translate(368.875592, 43.962511) rotate(-42.000000) translate(-368.875592, -43.962511) " points="362.43704 37.5229624 375.323629 37.5134772 375.314144 50.4020604 362.427555 50.4115455"></polygon>
                        <ellipse id="Oval" fill="#C59FFC" cx="383.121951" cy="37.6166105" rx="11.804878" ry="11.8223633"></ellipse>
                        <ellipse id="Oval" fill="#FFAB82" cx="356.292683" cy="40.8408914" rx="6.43902439" ry="6.4485618"></ellipse>
                        <ellipse id="Oval" fill="#FFDD82" cx="377.756098" cy="42.990412" rx="6.43902439" ry="6.4485618"></ellipse>
                        <g transform="translate(259.707317, 38.203138)">
                            <path d="M133.751754,11.1165818 L61.0852338,1.33153728 C61.0852338,1.33153728 14.8638686,28.4003445 21.1868745,61.7894227 C26.8218451,91.5552388 65.832293,97.8226803 65.832293,97.8226803 L133.751754,11.1165818 Z" id="Path" stroke="#310CA3" stroke-width="2" fill="#FFD5C1"></path>
                            <g transform="translate(32.312542, 1.387123)" fill="#310CA3" id="Path">
                                <path d="M0.0860656697,5.65849999 C0.344262679,6.99404879 1.42943851,7.81658406 2.87384497,8.2174986 C4.61386829,8.70016687 6.88151159,8.57521576 8.06772104,8.47846791 C15.117622,7.90262182 29.7188499,1.76145356 29.7188499,1.76145356 C30.1678882,1.57188489 30.3774394,1.05137429 30.1903401,0.600122302 C29.9994989,0.148870315 29.4831048,-0.0631895583 29.0340666,0.126379117 C29.0340666,0.126379117 14.7995532,6.14866532 7.9217836,6.71058829 C6.88151159,6.79591204 4.87954927,6.93335826 3.34533516,6.5078105 C2.60816399,6.30324769 1.9533165,6.00229403 1.82234701,5.32077501 C1.72879736,4.84024876 1.26479115,4.52572899 0.785816984,4.61890681 C0.306842822,4.71208463 -0.00748397128,5.17797375 0.0860656697,5.65849999 Z"></path>
                            </g>
                            <g transform="translate(32.312542, 0.316114)" fill="#310CA3" id="Path">
                                <path d="M29.4868468,1.13491303 C22.2797825,0.218842933 14.1259958,-0.53086369 6.94886733,1.23951495 C5.7589159,1.53297154 3.4388848,2.19164236 1.88221878,3.26122381 C0.58374976,4.1540887 -0.183357296,5.33826816 0.0860656697,6.72950946 C0.179615311,7.2100357 0.64362153,7.52455548 1.12259569,7.43137766 C1.60156985,7.33819983 1.91589665,6.87231072 1.82234701,6.39178447 C1.68763552,5.68777425 2.22648145,5.17618873 2.88132894,4.72457974 C4.25837966,3.77887839 6.32021374,3.22123946 7.37171171,2.96205517 C14.343031,1.24237098 22.2648145,2.00492971 29.2623277,2.89493858 C29.7487858,2.95634312 30.1903401,2.61219208 30.2539539,2.12666779 C30.3138257,1.6407865 29.969563,1.19667457 29.4868468,1.13491303 Z"></path>
                            </g>
                            <g transform="translate(10.786097, 1.154330)" fill="#310CA3" id="Shape">
                                <path d="M49.7505134,0.477501881 C49.7881718,0.423387542 49.8371278,0.372702984 49.8898495,0.327353644 C50.2589019,0.0102893462 50.820012,0.0556386868 51.1363426,0.428722758 C51.3359321,0.663853373 51.5242241,1.07466505 51.1627035,1.56931584 C51.1099817,1.64553322 50.9932407,1.76671885 50.8237779,1.89362079 C50.5036815,2.13370553 49.8597228,2.51326808 49.7053234,2.60511002 C48.300665,3.45340945 46.8847091,4.27998693 45.4612216,5.09779941 C41.6275964,7.30162493 37.8015028,9.52526697 33.9980043,11.7858744 C22.960327,18.3474286 11.8586304,25.0698015 1.66826716,32.935435 C1.28038563,33.233826 0.723041297,33.1610384 0.42553993,32.773092 C0.128038563,32.3851455 0.203355365,31.8276154 0.587471054,31.5292244 C10.8380878,23.620528 21.996272,16.8577599 33.0942027,10.2596214 C36.9052329,7.99482199 40.7388581,5.76660691 44.5837808,3.55858944 C45.992205,2.74725543 47.4006292,1.92715643 48.7939901,1.08533548 C48.9144969,1.01369114 49.5509239,0.604784904 49.7505134,0.477501881 Z M49.746863,1.14516612 C49.8098701,1.54650214 50.0093926,1.89488411 50.3034259,2.19867318 C49.9988914,1.88745196 49.8203713,1.52141864 49.746863,1.14516612 Z"></path>
                            </g>
                            <g transform="translate(1.932213, 1.469057)" fill="#310CA3" id="Path">
                                <path d="M59.505282,0.233584332 C56.2123341,2.06473233 52.9498412,4.87080772 49.7749064,7.04888588 C40.961988,13.0960396 32.4155509,19.4495334 23.9718995,26.0052118 C16.2401339,32.0071803 7.71653807,37.1567575 0.456825145,43.7491967 C0.0951719052,44.0777464 0.0647168955,44.6391147 0.395915126,45.0017448 C0.719499603,45.3647578 1.28291728,45.3927113 1.64457052,45.0641616 C8.87002156,38.5023565 17.3593555,33.3822645 25.0530523,27.4078665 C33.4700556,20.873632 41.9898446,14.5404332 50.7761149,8.5131916 C53.9053671,6.36536452 57.1183706,3.59030606 60.3618291,1.78481405 C60.7881993,1.54740047 60.9442812,1.0070931 60.7082549,0.578982804 C60.4684217,0.151255428 59.9316521,-0.00382925135 59.505282,0.233584332 Z"></path>
                            </g>
                            <g transform="translate(8.686503, 31.445466)" fill="#310CA3" id="Oval">
                                <ellipse cx="2.50883966" cy="2.25714989" rx="2.13836598" ry="2.13624856"></ellipse>
                            </g>
                            <g transform="translate(0.226744, 43.642933)" fill="#310CA3" id="Oval">
                                <ellipse cx="2.50883966" cy="2.25714989" rx="2.13836598" ry="2.13624856"></ellipse>
                            </g>
                            <path d="M62.5720156,3.48550816 C62.5066715,3.62664418 62.3106391,4.03848368 62.2875765,4.08437217 C61.7532921,5.09738938 61.2805081,6.14588341 60.8384742,7.20170417 C59.6123108,10.1420377 58.5591171,13.3318658 58.7397744,16.5602557 C58.7666808,17.1024339 58.8166498,17.7583693 58.966557,18.3768998 C59.0857139,18.8728039 59.2625275,19.3517409 59.608467,19.6675616 C59.9697816,19.9972646 59.996688,20.5587237 59.6661236,20.9204329 C59.3394029,21.2821422 58.7782121,21.3083642 58.4168975,20.9786612 C57.3175785,19.9741275 57.0485145,18.0414126 56.971639,16.659745 C56.7794504,13.1629654 57.8787693,9.69973444 59.2087146,6.51530499 C59.6699674,5.41128204 60.165814,4.31535706 60.723161,3.25645136 C60.7500674,3.20554985 60.8769119,2.89435651 60.9960689,2.66915588 C61.1036945,2.4670923 61.2266952,2.30898912 61.3074145,2.22993753 C61.5149782,2.03057328 61.7340732,1.97542997 61.8993554,1.9650183 C62.3836708,1.93301204 62.8064858,2.30397609 62.837236,2.79255349 C62.8564548,3.06171451 62.752673,3.31082343 62.5720156,3.48550816 Z" id="Path" fill="#310CA3"></path>
                            <path d="M59.7007175,19.7342735 C59.7353115,19.7095939 59.8083432,19.6583068 59.8506247,19.6155033 C59.9275001,19.5395366 60.0005318,19.4493021 60.0697197,19.3501984 C60.757755,18.3811416 61.2190077,16.6936793 61.3381647,16.2220691 C62.4874527,11.7300107 62.2030135,6.82881203 61.4496341,2.29433566 C61.3689148,1.81154253 61.6956355,1.35420015 62.1761071,1.27360609 C62.6604224,1.19301203 63.1139876,1.51963007 63.1947068,2.00280881 C63.986524,6.77598243 64.2594318,11.9351592 63.0486434,16.6636012 C62.8795175,17.3384318 62.0646377,20.0107612 60.9845376,20.9817461 C60.6116916,21.3180046 60.1965642,21.498088 59.7814368,21.5189113 C59.3509342,21.5397347 58.8858377,21.4047685 58.4168975,20.9786612 C58.0555829,20.6485726 58.0325202,20.0874991 58.3592409,19.7254042 C58.6898053,19.363695 59.2471524,19.3378586 59.608467,19.6675616 C59.6353734,19.6914699 59.6738111,19.7184631 59.7007175,19.7342735 Z" id="Path" fill="#310CA3"></path>
                        </g>
                    </g>
                    <g id="SHIRT" transform="translate(326.000000, 47.000000)" stroke="#310CA3" stroke-width="2">
                        <path d="M0.313362409,30.7693145 L18.1482693,84.7799556 L39.6670952,77.7512886 L58.9656338,98.1971052 L66.8078044,92.2825401 L80.118834,106.940811 L127.431499,63.5992821 C127.431499,63.5992821 108.683255,33.9244271 95.4341394,12.94875 C88.0892303,1.32197881 73.2427308,-3.0489878 60.7617354,2.73977532 C36.3844329,14.042446 0.313362409,30.7693145 0.313362409,30.7693145 Z" id="Path" fill="#FFD5C1"></path>
                        <path d="M95.5144753,19.9678367 C95.5144753,19.9678367 103.031267,57.3543351 69.0008738,90.316386 C68.7715842,90.5381792 68.3091836,90.9821472 68.3091836,90.9821472 L70.4721485,93.7444454 C70.4721485,93.7444454 71.010979,93.2279461 71.2784835,92.970269 C107.093514,58.2739559 97.9449447,17.3952652 97.9449447,17.3952652 C97.7462271,16.4527397 96.8176043,15.8499662 95.8736956,16.05 C94.9297869,16.2500338 95.3157577,19.0253112 95.5144753,19.9678367 Z" id="Path" fill="#310CA3"></path>
                        <path d="M89.6842293,8.33036272 C89.6842293,8.33036272 94.4811526,35.1994677 78.1022345,53.8930803 C69.7255223,63.4546175 59.2309072,71.6337519 38.0224193,78.201423 L45.754263,84.6914189 C45.754263,84.6914189 99.0977784,68.9224446 94.8712859,15.263874 C94.6541124,12.5066887 90.8421416,8.72852151 89.6842293,8.33036272 Z" id="Path" fill="#310CA3" stroke-linejoin="round"></path>
                    </g>
                    <g id="FIST-ARM" transform="translate(406.000000, 3.000000)">
                        <path d="M0.119659257,150.89372 C0.119659257,150.89372 9.59590044,160.691593 18.7247438,170.130648 C28.8842007,180.630521 44.300945,184.318593 58.1968588,179.571229 C58.1968588,179.571229 58.1968588,179.570848 58.1968588,179.570848 C76.4931452,173.31958 90.0378011,157.9202 93.7472381,139.150763 C102.297085,96.2624298 110.109677,55.3859113 115.440303,9.97289587 C115.629442,8.34735274 114.718488,6.79044619 113.197657,6.14144914 C111.564888,5.45622723 109.453481,5.35365367 107.87475,8.05869776 C107.87475,8.05869776 104.196193,-0.00266920055 98.3521895,4.82057619 C98.3521895,4.82057619 94.0483163,-2.18149947 88.6636497,3.02000976 C88.6636497,3.02000976 82.653667,-4.69283587 78.2378544,4.8102807 C78.2378544,4.8102807 69.0588314,1.18207453 65.6002928,19.3658126 L47.0569679,108.413775 L0.119659257,150.89372 Z" id="Path" stroke="#310CA3" stroke-width="2" fill="#FFD5C1"></path>
                        <g id="Group" transform="translate(34.319396, 107.914447)" fill="#310CA3">
                            <path d="M2.67835335,43.7919932 L12.7985046,0.398953082 L9.82178541,3.17256897 L0.135305415,43.3131684 C0.00346936963,44.006471 0.46489553,44.6766635 1.16570819,44.808837 C1.86652086,44.9410105 2.54651731,44.4852958 2.67835335,43.7919932 Z" id="Path"></path>
                        </g>
                        <path d="M85.5602289,25.2521624 C85.3633702,25.4016377 85.9886863,26.3343326 86.0543059,26.4674113 C86.7143618,27.7932413 87.3589778,29.1297482 87.9881539,30.4700682 C88.5208306,31.6060037 89.0149075,32.7602422 89.4472248,33.9365971 C89.7637428,34.7861655 90.053241,35.6445041 90.3272993,36.5081811 C90.5666179,37.2658528 90.7827765,38.0303881 90.9719153,38.8014057 C91.5470518,41.1350496 92.5081858,46.6873681 89.1924664,47.780215 C88.0962332,48.1409384 87.2663383,47.3283575 86.99228,46.3373215 C86.5561028,44.7640184 87.2122987,43.0576366 88.0923732,41.7531602 C90.4006389,38.332389 95.0673499,36.8178084 99.0354053,36.6195249" id="Path" stroke="#310CA3" stroke-width="2"></path>
                        <path d="M78.2378544,5.89459625 C78.2378544,5.89459625 85.1047518,9.61813101 89.4665247,14.1649235 C90.4894183,15.2528134 90.8020764,16.8310735 90.2655397,18.2297346 C89.7290031,19.628777 88.4359111,20.6068483 86.9305204,20.7536544 C86.5483828,20.7830156 86.1160655,20.8154273 85.6567283,20.8432633 C83.1670438,20.9969329 78.4964728,20.4566105 73.5441235,19.701608 C72.9149474,19.6051355 72.3205111,20.0337329 72.2240117,20.6575632 C72.1275123,21.2813935 72.5598296,21.8663297 73.1928657,21.9628022 C78.3459337,22.7486911 83.2133635,23.2867257 85.8034074,23.126955 C86.2743245,23.0979751 86.7143618,23.0648007 87.1350992,23.032389 C87.1428191,23.0320077 87.1505391,23.0312451 87.158259,23.0304824 C89.5398642,22.798262 91.5856515,21.2520323 92.4309863,19.0400276 C93.280181,16.828023 92.7861041,14.3323205 91.1533342,12.599628 C87.7874351,9.08772273 82.1248503,5.94531106 79.3765473,4.52758426 C79.2491681,4.4623795 79.0793292,4.35141702 79.0793292,4.35141702 C78.7280713,4.87534296 78.2378544,5.89459625 78.2378544,5.89459625 Z" id="Path" fill="#310CA3"></path>
                        <path d="M76.1843471,21.6489805 C76.1843471,21.6489805 75.6864102,24.4970175 76.2924265,27.0136923 C76.7633435,28.9641153 77.8750166,30.6834617 80.0443232,31.1959482 C81.1830161,31.4647749 85.1819513,31.9257839 87.0578996,22.5179959 C87.1814189,21.8983601 86.7722614,21.296646 86.1469453,21.1746254 C85.5216292,21.0526048 84.911753,21.4564167 84.7882337,22.0760526 C84.1899374,25.0663198 83.4179422,26.8607852 82.6112072,27.909781 C81.7658725,29.0110169 80.9629975,29.0605878 80.5847198,28.9705976 C79.3418075,28.6773669 78.8168508,27.6001538 78.5466525,26.483284 C78.0448556,24.3997823 78.465593,22.0409717 78.465593,22.0409717 C78.5736723,21.4190479 78.1529349,20.8261041 77.5198988,20.7181921 C76.8907227,20.6098989 76.2924265,21.0270568 76.1843471,21.6489805 Z" id="Path" fill="#310CA3"></path>
                        <path d="M89.3623053,10.5583168 C89.6209237,8.21457791 89.8563823,5.61359434 90.060961,2.72724289 C90.0802609,2.50349792 90.0378011,2.28885164 89.9528817,2.09943353 C89.9413017,2.07255105 89.9374418,2.0043109 89.9142819,2.01961324 C89.3816052,2.35709178 88.6675096,3.10318406 88.6675096,3.10318406 C88.6713696,3.08870888 87.8569147,2.11680375 87.8453348,2.147822 C87.7951551,2.27148142 87.7642753,2.39844945 87.7526953,2.53947909 C87.5519766,5.38695434 87.320378,7.95278389 87.0617596,10.265091 C86.9884201,10.9454245 87.4400373,11.5628945 88.0769333,11.6439555 C88.7099694,11.724603 89.2851058,11.2382368 89.3623053,10.5583168 Z" id="Path" fill="#310CA3"></path>
                        <path d="M85.7956875,22.1163131 C85.6528684,25.1889442 85.8111274,26.6942933 86.4634633,28.4811325 C87.0385998,30.0551982 88.0074537,30.9985699 89.3044057,31.2395606 C90.0339412,31.3760711 91.1649141,31.6395593 92.4657261,31.0607241 C93.6391588,30.5367982 95.04805,29.2651148 96.3064022,26.1429128 C97.7809131,22.4918277 99.1743644,16.0575292 100.008119,4.80570493 C100.035139,4.46366594 100.008119,3.77653746 100.008119,3.77653746 C99.4831625,3.95461127 98.9311859,4.34927163 98.3676294,4.80417967 C98.1707707,4.50446658 97.9661919,4.23220812 97.7423133,4.00227556 C97.7423133,4.00227556 97.7075735,4.54336064 97.6998536,4.63868923 C96.8931186,15.5282648 95.5807267,21.7619921 94.1563956,25.2956323 C93.2415813,27.5633088 92.3653667,28.5947641 91.512312,28.9753159 C90.7827765,29.3009583 90.1420205,29.0679753 89.732863,28.9913311 C89.1770265,28.8883762 88.8875283,28.3758897 88.6404898,27.7043951 C88.0653534,26.1261349 87.9842939,24.8301274 88.1078131,22.1163131 C88.1386929,21.4856191 87.6947113,21.031775 87.0539553,21.0031765 C86.4170592,20.9745779 85.8227073,21.4856191 85.7956875,22.1163131 Z" id="Path" fill="#310CA3"></path>
                        <path d="M100.174098,32.6530929 C97.7847731,32.5181076 96.3874617,30.4586287 95.9319846,27.2487244 C95.05577,21.0699065 97.4412352,10.3862406 97.472115,7.86804058 C97.479835,7.23696531 98.0047917,6.73096115 98.6455477,6.73858744 C99.2863037,6.74659504 99.7958206,7.26556389 99.7881006,7.89702047 C99.7572208,10.3706068 97.3640357,20.8613275 98.2248103,26.9310896 C98.3521895,27.841287 98.5529083,28.6409032 98.8732863,29.2685466 C99.2129642,29.9335589 99.6916012,30.3735956 100.432717,30.3724517 C100.614135,30.3724517 100.791694,30.4143963 100.953813,30.4956162 C100.988553,30.4925657 101.783708,30.4090579 102.559563,29.2292712 C104.153734,26.8033493 106.021962,19.4882145 106.813257,6.59368798 C106.817117,6.51628116 106.840277,6.33591947 106.840277,6.33591947 C107.195395,6.78625173 107.531213,7.36089248 107.88247,8.05946039 C108.241448,7.44058718 108.639026,6.87662324 109.171702,6.51246802 C109.171702,6.51246802 109.156262,6.75269607 109.148543,6.87242878 C108.310928,20.3869725 106.176361,27.9267014 104.501131,30.4757879 C103.408758,32.135268 102.324105,32.6130549 101.57141,32.7491841 C100.953813,32.8609092 100.471316,32.7583357 100.174098,32.6530929 Z" id="Path" fill="#310CA3"></path>
                        <path d="M108.770265,33.0008516 C107.97511,32.8536643 107.307334,32.3636753 106.805537,31.5270716 C106.238121,30.5844625 105.879143,29.0958112 105.720884,27.2746538 C105.296286,22.385441 106.211101,14.8636339 106.585518,10.4056877 C106.689738,9.1401053 109.001863,9.07223134 108.893784,10.3553542 C108.515506,14.7953786 107.608412,22.2355845 108.029149,27.0786582 C108.133369,28.2759853 108.310928,29.2986705 108.631306,30.0353698 C108.793425,30.4079139 108.924664,30.7244049 109.233462,30.7575792 C109.360841,30.7713065 109.4805,30.8048622 109.5963,30.8578649 C109.62718,30.8540517 109.797019,30.8300289 109.955278,30.7274554 C110.264076,30.5291719 110.596034,30.1638727 110.962731,29.5629213 C111.947025,27.9518681 114.197391,19.8676223 114.197391,19.8676223 C114.174231,20.831585 112.896579,30.0849407 112.7113,30.9863678 C112.591641,31.5716854 112.178624,31.8275473 111.885266,32.1120078 C111.028351,32.9421292 110.252496,33.1243975 109.715959,33.1457511 C109.299082,33.1625289 108.974844,33.0782584 108.770265,33.0008516 Z" id="Path" fill="#310CA3"></path>
                    </g>
                    <g id="ARM-BACK" transform="translate(96.000000, 78.000000)">
                        <path d="M62.5415888,74.7351774 L228.95029,0.229590614 L246.913893,54.1887243 C246.913893,54.1887243 134.93025,100.835283 91.6528634,107.264582 C91.6528634,107.264582 42.7004108,110.707679 4.77592414,99.0275425 C4.77592414,99.0275425 -0.146649508,96.9345304 2.75785755,94.5223034 C2.75785755,94.5223034 6.57497874,91.7614953 10.4417529,91.2340471 C10.4417529,91.2340471 3.14353421,87.3676191 0.304461315,84.0816511 C-0.00808304376,83.6785327 -0.0446491941,83.1285831 0.211698765,82.6884709 C0.868734751,81.5836137 2.7324537,79.9299511 7.89212997,81.1549429 C7.89212997,81.1549429 4.5934783,78.8536974 2.82175209,75.7771069 C2.64200059,75.454841 2.64007606,75.0643081 2.8171332,74.7405167 C3.50611646,73.4728104 6.40100085,71.0788897 18.4420417,75.2088511 C18.4420417,75.2088511 14.5710336,71.6883345 13.1711274,67.9607288 C12.9132398,67.2711941 13.0271722,66.4989001 13.4728943,65.9111939 C13.9190014,65.3234877 14.6360828,65.0008404 15.3758738,65.0549964 C18.9335677,65.7861014 26.229477,67.9119121 38.0907664,74.2554017 C38.0907664,74.2554017 35.1978065,64.3692756 47.0664091,66.9912614 C47.0664091,66.9912614 53.2126016,68.8973974 62.5415888,74.7351774 Z" id="Path" stroke="#310CA3" stroke-width="2" fill="#FFD5C1"></path>
                        <g id="Group" transform="translate(13.926184, 72.771054)" fill="#310CA3">
                            <path d="M4.4926327,1.37792507 L0.286370693,0.0781828504 C0.286370693,0.0781828504 0.58698294,0.467190204 0.759806114,0.67847459 C3.35061409,3.8492659 9.38672325,9.54021465 22.4150502,15.4329133 C22.9951048,15.6949212 23.6806239,15.441685 23.9450549,14.8669457 C24.2098708,14.2925878 23.9539077,13.6133505 23.374238,13.3509612 C13.7862085,9.01467334 8.16810818,4.84352293 4.97530589,1.82070697 C4.72126737,1.58043772 4.4926327,1.37792507 4.4926327,1.37792507 Z" id="Path"></path>
                        </g>
                        <path d="M8.90498345,80.0631345 C7.52393769,79.7359107 6.04628031,79.4578848 4.63020802,79.7076886 L4.87962766,79.9102012 C4.87962766,79.9102012 18.869067,91.135733 33.7353241,95.9449318 C34.3411675,96.140961 34.9935846,95.8133558 35.1918116,95.213064 C35.3900386,94.6127723 35.0590187,93.9663336 34.4531753,93.769923 C23.0360685,90.0697766 9.24370148,80.3087431 9.24370148,80.3087431 L8.90498345,80.0631345 Z" id="Path" fill="#310CA3"></path>
                        <path d="M12.6345095,91.2115457 C11.5748609,91.4190163 10.4513178,91.6917028 9.41283915,92.0879564 C9.41283915,92.0879564 9.53639425,92.1562234 9.60298314,92.1928358 C13.0675297,94.1027856 25.1878613,100.583953 38.4725362,105.353489 C38.7092539,105.438536 39.1830742,105.606725 39.1830742,105.606725 L50.5362866,106.782518 C50.5362866,106.782518 50.0347529,106.552546 49.8388354,106.502967 C35.0953635,102.781463 19.2579865,94.7808789 12.7861628,91.3160438 C12.7099512,91.2756175 12.6345095,91.2115457 12.6345095,91.2115457 Z" id="Path" fill="#310CA3"></path>
                    </g>
                    <g id="HEAD" transform="translate(393.000000, 13.000000)">
                        <path d="M0.319818171,29.0172142 C0.319818171,29.0172142 0.366056943,22.3716661 0.412295714,15.6852798 C0.470094179,7.17797058 7.36737763,0.26831038 15.9523762,0.110301138 C25.4467374,-0.0377848188 36.4245924,2.06900508 39.8540037,11.8094734 C39.8693809,12.4957067 34.8948597,14.8303506 25.0498546,10.7400485 C25.0498546,10.7400485 24.2291164,15.8440524 16.414764,19.9690859 C16.414764,19.9690859 14.7501682,16.2959435 10.3305122,18.75959 C8.9433491,19.5324613 8.1727029,21.4075807 9.78720668,25.086448 C9.78720668,25.086448 9.46353528,27.1493465 0.319818171,29.0172142 Z" id="Path" stroke="#310CA3" stroke-width="2" fill="#FFD5C1"></path>
                        <g id="Group" transform="translate(0.041222, 10.284375)" fill="#FFD5C1" stroke="#310CA3" stroke-linejoin="round" stroke-width="2">
                            <path d="M0.278595921,25.0205808 L0.443121562,18.5137979 C0.443121562,18.5137979 7.09765146,17.4287248 9.83729868,15.0291979 C9.83729868,15.0291979 7.11691761,9.84657112 10.7158353,7.97297843 C12.6231847,6.98064986 15.4437498,7.52490392 16.3916446,9.62291552 C16.3916446,9.62291552 24.5104022,4.9711845 24.8687527,0.298843567 C24.957377,0.730888162 36.3641397,4.04790329 39.8127814,1.52509872 C39.3426873,10.3030083 39.4108464,24.9971385 34.8563274,29.2538464 C33.0453089,30.9492016 30.8605269,31.6278017 27.8280341,31.6522282 L28.009136,40.0053448 C28.009136,40.0053448 19.1825471,22.2798456 0.278595921,25.0205808 Z" id="Path"></path>
                        </g>
                        <path d="M31.1610789,27.4756699 C30.1977712,27.5138364 28.9724437,28.0680137 28.6333594,29.2065199 C28.4291381,29.893135 28.5216157,30.8595104 29.3924459,32.1140427 C29.7122641,32.5708955 30.2863955,33.1861392 30.9684174,33.5708574 C31.5001632,33.8704643 32.0897076,34.0303818 32.6831051,33.9517589 C33.315035,33.8685559 33.9777907,33.5254392 34.5596286,32.6903566 C34.8023822,32.3438049 34.7137579,31.8678689 34.3669671,31.6281833 C34.0163231,31.3884978 33.5346692,31.4751357 33.2919156,31.8213057 C33.0298959,32.1987723 32.764023,32.4010546 32.4827371,32.4388394 C32.1359463,32.4842576 31.8084217,32.3125084 31.5194294,32.1086994 C31.1495192,31.8499306 30.845114,31.5106306 30.6640121,31.2484268 C30.1707985,30.5377669 29.9974031,30.0259544 30.1130001,29.6370379 C30.2517164,29.1622468 30.8181413,29.0172142 31.2227306,29.0011843 C31.646586,28.984391 31.9779639,28.6286794 31.9586977,28.2077031 C31.9432848,27.7867268 31.5849343,27.4588767 31.1610789,27.4756699 Z" id="Path" fill="#310CA3"></path>
                        <path d="M34.5596286,32.6903566 C34.8563274,32.2663269 35.0374293,31.5968868 34.9950437,30.863327 C34.9410985,29.9042033 34.5133899,28.8462283 33.615587,28.1706816 C33.0221895,27.7245154 32.2207174,27.4336868 31.1610789,27.4756699 C30.7333703,27.4924632 30.4019924,27.8481748 30.4212586,28.2691511 C30.4366715,28.6901274 30.795022,29.0179775 31.2227306,29.0011843 C31.8508072,28.9759944 32.3324611,29.122172 32.6831051,29.3866658 C33.2032913,29.7763455 33.4267787,30.3973142 33.4576046,30.9503466 C33.4768707,31.2965166 33.4344852,31.6213134 33.2919156,31.8213057 C33.0530153,32.1678574 33.1377864,32.6437935 33.4884304,32.883479 C33.8390744,33.1231645 34.3207283,33.0365266 34.5596286,32.6903566 Z" id="Path" fill="#310CA3"></path>
                    </g>
                </g>
            </g>
        </g>
    </g>
</svg>